<?xml version="1.0" standalone="no"?>
<!DOCTYPE svg PUBLIC "-//W3C//DTD SVG 1.1//EN" "http://www.w3.org/Graphics/SVG/1.1/DTD/svg11.dtd" >
<svg xmlns="http://www.w3.org/2000/svg" xmlns:xlink="http://www.w3.org/1999/xlink" version="1.1">
<metadata>
Created by FontForge 20170731 at Sat Jul 13 00:37:26 2019
 By Aleksey,,,
This typeface is licensed under the SIL open font license.
</metadata>
<defs>
<font id="Jost-HairlineItalic" horiz-adv-x="525" >
  <font-face 
    font-family="Jost* 100 Hairline"
    font-weight="100"
    font-style="italic"
    font-stretch="normal"
    units-per-em="1000"
    panose-1="0 0 0 0 0 0 0 0 0 0"
    ascent="800"
    descent="-200"
    x-height="460"
    cap-height="700"
    bbox="-184 -324 1364.95 1004"
    underline-thickness="50"
    underline-position="-175"
    slope="-10"
    unicode-range="U+0020-FF19"
  />
<missing-glyph horiz-adv-x="500" 
d="M50 -200h400v1000h-400v-1000zM100 -150v900h300v-900h-300z" />
    <glyph glyph-name=".notdef" horiz-adv-x="500" 
d="M50 -200h400v1000h-400v-1000zM100 -150v900h300v-900h-300z" />
    <glyph glyph-name=".null" horiz-adv-x="0" 
 />
    <glyph glyph-name="nonmarkingreturn" horiz-adv-x="333" 
 />
    <glyph glyph-name="space" unicode=" " horiz-adv-x="300" 
 />
    <glyph glyph-name="exclam" unicode="!" horiz-adv-x="254" 
d="M214 700h14l-90 -499h-6zM90 1q0 11 11 11t11 -11t-11 -11t-11 11z" />
    <glyph glyph-name="quotedbl" unicode="&#x22;" horiz-adv-x="391" 
d="M227 700h13l-99 -279h-7zM402 700h13l-99 -279h-7z" />
    <glyph glyph-name="numbersign" unicode="#" horiz-adv-x="554" 
d="M48 240l2 11h112l83 203h-122l2 11h124l96 235h11l-96 -235h192l97 235h11l-96 -235h109l-2 -11h-111l-83 -203h120l-1 -11h-124l-98 -240h-11l98 240h-192l-98 -239l-11 -1l97 240h-109zM173 251h193l82 203h-193z" />
    <glyph glyph-name="dollar" unicode="$" horiz-adv-x="562" 
d="M484 548q-6 36 -22.5 70t-47 56t-78.5 23q-44 0 -82.5 -19.5t-65 -52.5t-32.5 -75q-8 -48 13.5 -82.5t58.5 -58.5t76 -41q41 -17 74 -43.5t51 -63t11 -86.5t-33 -92t-69.5 -66.5t-102.5 -23.5l-17 -105h-10l17 105q-58 1 -93.5 31.5t-54 76t-25.5 92.5l10 4q7 -46 25 -90
t52 -73.5t92 -29.5q87 -1 137.5 48.5t61.5 122.5q6 48 -12 83t-50.5 60t-69.5 41q-39 17 -77.5 42t-61 61.5t-14.5 87.5q6 45 33 80t67.5 55.5t86.5 21.5l18 111h10l-18 -111q49 -1 81 -24.5t49 -59.5t22 -73z" />
    <glyph glyph-name="percent" unicode="%" horiz-adv-x="680" 
d="M103 561q7 40 30 74t59 54.5t80 20.5q44 -1 72.5 -22t40.5 -55t6 -73q-6 -41 -29.5 -75t-59.5 -54.5t-80 -19.5q-43 0 -72 21t-41 55.5t-6 73.5zM113 560q-6 -35 5 -67t37.5 -52.5t67.5 -20.5q41 -1 74.5 19t55.5 52t28 69q6 36 -5 67.5t-37.5 51.5t-66.5 21
q-41 0 -75 -19.5t-56 -51.5t-28 -69zM650 699h12l-564 -699h-12zM357 141q6 40 29.5 74t59.5 54.5t80 20.5q43 -1 71.5 -22t41 -55t6.5 -73q-7 -41 -30.5 -75t-59.5 -54.5t-79 -19.5q-44 0 -72.5 21t-40.5 55.5t-6 73.5zM367 140q-6 -35 4.5 -67t37 -52.5t67.5 -20.5
q41 -1 74.5 19t55.5 52t29 69q5 36 -6 67.5t-37 51.5t-67 21q-41 0 -74.5 -19.5t-55.5 -51.5t-28 -69z" />
    <glyph glyph-name="ampersand" unicode="&#x26;" horiz-adv-x="655" 
d="M226 427q-21 32 -34.5 67.5t-6.5 82.5q9 56 54 95.5t113 38.5q43 -1 70 -21.5t38 -51.5t6 -64q-10 -57 -58 -97.5t-110 -76.5l-14 -8t-15 -8l185 -265q44 46 84 98.5t79 98.5l8 -6q-40 -46 -80.5 -99t-85.5 -99l79 -112h-13l-73 104q-49 -49 -106 -81.5t-126 -31.5
q-55 0 -97 22.5t-62.5 63t-12.5 96.5q8 59 41.5 98.5t78 67t86.5 48.5zM234 435l30 -43q7 4 14 7.5t14 7.5q59 34 106.5 74t57.5 93q5 30 -5 58.5t-35 48t-64 20.5q-43 0 -76.5 -17t-54.5 -45.5t-26 -62.5q-6 -45 7 -78t32 -63zM58 173q-7 -52 12 -91t58.5 -60t91.5 -22
q68 0 123.5 32t103.5 80l-188 267q-41 -21 -84.5 -47.5t-76 -64t-40.5 -94.5z" />
    <glyph glyph-name="quotesingle" unicode="'" horiz-adv-x="216" 
d="M227 700h13l-99 -279h-7z" />
    <glyph glyph-name="parenleft" unicode="(" horiz-adv-x="232" 
d="M303 780h5q-71 -116 -117 -238t-66 -252q-19 -123 -11.5 -245.5t42.5 -244.5h-5q-40 118 -47.5 242.5t11.5 247.5q20 131 66.5 255t121.5 235z" />
    <glyph glyph-name="parenright" unicode=")" horiz-adv-x="232" 
d="M-13 -199h-5q70 115 116 237t66 252q18 123 11 245.5t-42 244.5h5q40 -118 47.5 -242.5t-10.5 -247.5q-21 -130 -67.5 -254.5t-120.5 -234.5z" />
    <glyph glyph-name="asterisk" unicode="*" horiz-adv-x="574" 
d="M231 381l-9 7l124 136l-150 49l5 12l147 -55l28 170h12l-34 -170l167 55l1 -12l-168 -49l78 -137l-10 -7l-72 139z" />
    <glyph glyph-name="plus" unicode="+" horiz-adv-x="533" 
d="M80 250l1 10h194l39 220h10l-39 -220h195l-2 -10h-194l-38 -219h-10l38 219h-194z" />
    <glyph glyph-name="comma" unicode="," horiz-adv-x="267" 
d="M161 93l10 -5l-151 -248l-6 2z" />
    <glyph glyph-name="hyphen" unicode="-" horiz-adv-x="203" 
d="M23 265l2 10h194l-2 -10h-194z" />
    <glyph glyph-name="period" unicode="." horiz-adv-x="252" 
d="M88 1q0 11 11 11t11 -11t-11 -11t-11 11z" />
    <glyph glyph-name="slash" unicode="/" horiz-adv-x="460" 
d="M528 700l12 -1l-567 -848h-12z" />
    <glyph glyph-name="zero" unicode="0" horiz-adv-x="533" 
d="M86 350q9 63 31 127t56.5 116.5t81.5 84.5t106 32q47 -1 78 -23.5t48.5 -60.5t25 -84.5t6.5 -96.5t-6 -95q-9 -63 -31 -127t-56.5 -116.5t-81.5 -84.5t-105 -31q-48 0 -79 22.5t-48.5 60.5t-25 84.5t-6.5 96.5t6 95zM97 350q-5 -42 -6 -90t5.5 -94t23 -83.5t45.5 -60
t74 -22.5q56 0 101 31.5t78 83.5t54.5 113.5t29.5 121.5q5 42 6 90t-5.5 94t-23 83t-45.5 59.5t-74 23.5q-56 0 -101 -31.5t-78 -83.5t-54.5 -113.5t-29.5 -121.5z" />
    <glyph glyph-name="one" unicode="1" horiz-adv-x="397" 
d="M178 655l2 11l182 39l-122 -705h-9l118 691z" />
    <glyph glyph-name="two" unicode="2" horiz-adv-x="498" 
d="M7 0l362 334q40 38 76 81t45 104q7 42 -5.5 83.5t-47 69.5t-91.5 29q-64 0 -111.5 -34t-77.5 -89t-41 -117h-10q12 66 43 123t81 92t116 35q60 -1 96.5 -30.5t51 -73.5t7.5 -88q-9 -60 -45.5 -106t-77.5 -85l-344 -317l416 -1l-2 -10h-441z" />
    <glyph glyph-name="three" unicode="3" horiz-adv-x="534" 
d="M252 -9q-64 0 -105 26t-59 70t-13 98h10q-5 -52 11.5 -93.5t55.5 -66t100 -24.5q56 -1 103 21.5t78.5 62.5t38.5 90q6 45 -9.5 78.5t-45.5 56t-66.5 35t-71.5 15.5l1 8v-1v4q48 2 97 21t85.5 54t45.5 87q6 42 -9 80t-49 62t-85 25q-54 0 -95 -23.5t-67.5 -63t-37.5 -86.5
h-10q11 51 39 92.5t71.5 66t100.5 24.5q54 -1 90.5 -26t52.5 -65.5t9 -84.5q-9 -51 -40.5 -86.5t-77 -56t-94.5 -26.5q48 -7 91.5 -30.5t68 -63t16.5 -96.5q-8 -54 -40.5 -95.5t-82 -65t-107.5 -23.5z" />
    <glyph glyph-name="four" unicode="4" horiz-adv-x="536" 
d="M21 141l468 559h1l-95 -550h106l-1 -10h-107l-24 -140h-10l24 140zM42 151l343 -1l88 515z" />
    <glyph glyph-name="five" unicode="5" horiz-adv-x="540" 
d="M493 230q-9 -71 -45 -125t-90.5 -84.5t-119.5 -29.5q-76 0 -119 40t-61 106l9 5q18 -64 58 -102.5t114 -38.5q62 -1 114.5 28.5t87 81.5t43.5 119q7 53 -9 100t-52.5 76t-90.5 30q-66 0 -120 -30.5t-97 -77.5l148 372h320l-2 -10h-313l-131 -330q33 34 83 60t113 26
q57 -1 95 -31.5t55 -79t10 -105.5z" />
    <glyph glyph-name="six" unicode="6" horiz-adv-x="520" 
d="M412 699h13l-282 -335q36 33 80.5 53.5t97.5 19.5q58 -1 98 -32t59 -80.5t12 -104.5q-9 -63 -42.5 -115.5t-86 -83.5t-118.5 -30q-66 0 -108.5 32t-59.5 84t-9 113q7 44 29.5 86t49.5 73zM76 220q-8 -57 9 -107t57 -81t102 -31q62 -1 112 29t83 80t41 110q7 52 -11 99
t-56 77t-92 31q-65 0 -117 -29t-85.5 -76.5t-42.5 -101.5z" />
    <glyph glyph-name="seven" unicode="7" horiz-adv-x="499" 
d="M124 690l2 10h457l-468 -700h-11l461 690h-441z" />
    <glyph glyph-name="eight" unicode="8" horiz-adv-x="500" 
d="M67 185q8 48 37 88t71 66t89 31q-38 7 -66.5 32t-42 61.5t-7.5 77.5q7 44 35 82.5t70 62.5t91 24q48 -1 82 -25.5t49.5 -63t8.5 -80.5q-7 -43 -33 -80t-63.5 -61.5t-79.5 -29.5q45 -6 77.5 -32.5t48 -66.5t9.5 -86q-9 -53 -38.5 -97.5t-76.5 -71t-106 -25.5
q-59 0 -96.5 27t-52 71.5t-6.5 95.5zM157 541q-6 -42 10.5 -79.5t48.5 -61.5t71 -24q39 -1 80 22t70.5 61t36.5 82q7 41 -7.5 77t-46 58.5t-76.5 23.5q-47 0 -86.5 -22t-66.5 -58.5t-34 -78.5zM77 185q-8 -49 6 -91t49.5 -67.5t90.5 -25.5q55 -1 99.5 24t73.5 67t37 93
q7 48 -11 88.5t-53.5 65.5t-82.5 26q-48 0 -92.5 -24.5t-76.5 -65t-40 -90.5z" />
    <glyph glyph-name="nine" unicode="9" horiz-adv-x="520" 
d="M183 0h-12l280 336q-36 -33 -80.5 -53.5t-96.5 -19.5q-58 1 -98.5 32.5t-59 80.5t-11.5 104q9 63 42 115.5t85.5 83.5t119.5 31q66 -1 108 -33t59.5 -84t9.5 -113q-8 -44 -30.5 -86t-48.5 -73zM519 480q8 57 -9 107t-57 81t-102 32q-62 0 -112.5 -30t-82.5 -80t-41 -110
q-7 -52 11 -99t56 -77t92 -30q65 -1 117 28t85.5 76.5t42.5 101.5z" />
    <glyph glyph-name="colon" unicode=":" horiz-adv-x="291" 
d="M148 349q0 11 11 11t11 -11t-11 -11t-11 11zM88 1q0 11 11 11t11 -11t-11 -11t-11 11z" />
    <glyph glyph-name="semicolon" unicode=";" horiz-adv-x="267" 
d="M178 349q0 11 11 11t11 -11t-11 -11t-11 11zM161 93l10 -5l-151 -248l-6 2z" />
    <glyph glyph-name="less" unicode="&#x3c;" horiz-adv-x="621" 
d="M97 257l444 -202l-2 -9l-460 208l1 6l531 210l-1 -10z" />
    <glyph glyph-name="equal" unicode="=" horiz-adv-x="596" 
d="M89 310l2 10h471l-2 -10h-471zM68 185l1 10h471l-1 -10h-471z" />
    <glyph glyph-name="greater" unicode="&#x3e;" horiz-adv-x="621" 
d="M559 258l-445 202l2 10l460 -209l-1 -6l-531 -209l1 10z" />
    <glyph glyph-name="question" unicode="?" 
d="M502 520q8 48 -7.5 89t-52 65.5t-92.5 25.5q-67 0 -116 -32.5t-88 -79.5l-8 6q40 48 91 82t122 34q58 -1 97 -27t55.5 -68.5t8.5 -94.5q-10 -53 -47.5 -93t-91.5 -63t-114 -27l-28 -166h-8l25 174h1q61 3 114.5 24.5t90.5 60t48 90.5zM182 1q0 11 11 11q10 0 10 -11
t-11 -11q-10 0 -10 11z" />
    <glyph glyph-name="at" unicode="@" horiz-adv-x="747" 
d="M61 320q13 79 51 149t96 124t131 85t157 30q71 0 123.5 -27.5t86 -73.5t45.5 -102t2 -115q-6 -48 -26.5 -91.5t-50.5 -77.5t-65.5 -52.5t-71.5 -15.5q-31 1 -44.5 18t-14.5 43t5 55q-26 -45 -66.5 -75.5t-87.5 -29.5q-40 0 -65.5 22t-35 57.5t-4.5 76.5q8 58 37.5 106
t73.5 75.5t93 26.5q35 -2 56 -21.5t29.5 -50t7.5 -64.5l44 128h12l-80 -231q-3 -7 -5 -17t-3 -18q-3 -17 -2 -37.5t12.5 -35.5t38.5 -17q34 -4 67.5 14.5t62 51.5t47.5 75t25 85q10 56 -1.5 110.5t-43 98.5t-82.5 70.5t-120 27.5q-82 1 -153 -28.5t-127.5 -82t-93 -121
t-49.5 -145.5q-13 -87 10 -158.5t82 -114.5t154 -43q73 -1 133.5 16.5t111.5 40.5l4 -10q-52 -23 -113.5 -41t-136.5 -17q-99 0 -160.5 44.5t-85.5 118.5t-10 164zM237 320q-5 -36 3.5 -69t30.5 -54.5t59 -21.5q35 -1 66.5 16.5t56 47t40.5 65.5l14 42q3 12 5 24
q5 33 -1.5 66t-26 56t-55.5 25q-46 2 -87.5 -25t-69.5 -72t-35 -100z" />
    <glyph glyph-name="A" unicode="A" horiz-adv-x="582" 
d="M530 0l-57 272h-322l-151 -272h-12l400 715l154 -715h-12zM384 688l-228 -406h315z" />
    <glyph glyph-name="B" unicode="B" horiz-adv-x="480" 
d="M430 200q-10 -65 -45.5 -110t-89 -67.5t-118.5 -22.5h-117l120 700h106q55 0 95 -19.5t59.5 -55t11.5 -85.5q-11 -68 -58 -104.5t-111 -46.5q42 -7 78 -32t56 -65.5t13 -91.5zM285 689h-97l-51 -295h97q49 1 93 16.5t74.5 47.5t39.5 82q12 71 -33 110t-123 39zM72 11h106
q93 0 159.5 48t81.5 141q8 55 -16 96t-67 64.5t-93 23.5h-107z" />
    <glyph glyph-name="C" unicode="C" horiz-adv-x="664" 
d="M93 350q-10 -66 1 -127.5t42.5 -110.5t83 -78t122.5 -29q71 -1 127.5 21t106.5 61l-3 -15q-50 -37 -105.5 -58.5t-126.5 -20.5q-73 0 -127 29.5t-87 80t-44.5 114.5t-1.5 133q11 73 44 138t83.5 114t115 77.5t138.5 28.5q66 0 115 -20t91 -59l-3 -15q-39 42 -90 62
t-114 20q-72 0 -134 -27.5t-110.5 -75t-80.5 -110t-43 -133.5z" />
    <glyph glyph-name="D" unicode="D" horiz-adv-x="616" 
d="M216 0h-156l120 700h4h1h150q75 0 130 -28t88.5 -76.5t45.5 -111.5t2 -134q-16 -99 -68.5 -178t-133.5 -125.5t-183 -46.5zM334 689h-145l-117 -678h145q100 0 178 44.5t128.5 121.5t66.5 173q10 69 -1 130t-43.5 108t-85.5 74t-126 27z" />
    <glyph glyph-name="E" unicode="E" horiz-adv-x="494" 
d="M180 700h1h1h328l-2 -10h-319l-51 -296h300l-1 -10h-300l-65 -374h320l-1 -10h-331z" />
    <glyph glyph-name="F" unicode="F" horiz-adv-x="436" 
d="M180 700h2h1h288l-2 -11h-280l-53 -306h271l-1 -10h-271l-64 -373h-11z" />
    <glyph glyph-name="G" unicode="G" horiz-adv-x="742" 
d="M437 330l2 10h281q-13 -67 -44.5 -129t-79.5 -111.5t-110 -78t-135 -28.5q-74 0 -129 29t-90 79.5t-48 114.5t-3 134q11 74 45.5 138.5t86.5 114t118 77.5t141 28q87 0 147.5 -42t97.5 -110l-11 -6q-30 66 -91 106.5t-144 40.5q-73 0 -137 -27t-114 -75t-83.5 -111
t-44.5 -134q-10 -67 2 -129t45.5 -111t86.5 -77.5t126 -28.5q70 0 129 26.5t105 73t77 105t45 121.5h-271z" />
    <glyph glyph-name="H" unicode="H" horiz-adv-x="627" 
d="M180 700h11l-54 -313h432l54 313h11l-121 -700h-11l65 377h-432l-64 -377h-11z" />
    <glyph glyph-name="I" unicode="I" horiz-adv-x="174" 
d="M177 700h10l-121 -700h-10z" />
    <glyph glyph-name="J" unicode="J" horiz-adv-x="191" 
d="M-177 -158q18 -20 42.5 -35t55.5 -15q68 -2 97.5 42.5t40.5 115.5l128 750h11l-130 -760q-10 -70 -43 -115.5t-103 -43.5q-36 0 -64 17.5t-42 36.5z" />
    <glyph glyph-name="K" unicode="K" horiz-adv-x="440" 
d="M177 700h10l-56 -325l359 324h16l-364 -327l257 -372h-15l-254 370l-63 -370h-11z" />
    <glyph glyph-name="L" unicode="L" horiz-adv-x="417" 
d="M180 700h10l-118 -690h301l-2 -10h-311z" />
    <glyph glyph-name="M" unicode="M" horiz-adv-x="805" 
d="M228 675l-186 -675h-10l196 715l171 -583l373 584l-51 -716h-11l48 674l-363 -569z" />
    <glyph glyph-name="N" unicode="N" horiz-adv-x="645" 
d="M661 700h11l-123 -715l-399 693l-117 -678h-11l123 715l398 -698z" />
    <glyph glyph-name="O" unicode="O" horiz-adv-x="751" 
d="M81 350q11 73 45 138t86 114.5t117 77.5t140 28q73 0 127.5 -29.5t89 -80t47.5 -114.5t3 -134q-12 -73 -46 -138t-85.5 -114.5t-117 -77.5t-139.5 -28q-73 0 -128 29.5t-89 80t-47 114.5t-3 134zM92 350q-10 -67 2 -129t44.5 -111t85.5 -78t125 -29t135.5 27.5
t113.5 75.5t82.5 110.5t44.5 133.5q9 67 -2.5 129t-44 111t-85.5 78t-125 29q-73 0 -136.5 -27.5t-113 -75.5t-82.5 -110.5t-44 -133.5z" />
    <glyph glyph-name="P" unicode="P" horiz-adv-x="465" 
d="M180 700h6h1h114q60 0 102.5 -26t62 -71.5t10.5 -105.5q-10 -61 -44.5 -107t-86 -71t-113.5 -25h-111l-50 -294h-11zM300 690h-111l-66 -386h110q59 0 108 24t81.5 67.5t42.5 101.5q9 57 -9 100.5t-58.5 68t-97.5 24.5z" />
    <glyph glyph-name="Q" unicode="Q" horiz-adv-x="748" 
d="M81 350q11 73 45 138t86 114.5t117 77.5t140 28q73 0 127.5 -29.5t89 -80t47.5 -114.5t3 -134q-12 -74 -46.5 -139.5t-85.5 -113.5l84 -97h-16l-77 89q-50 -45 -113 -71t-134 -26q-73 0 -128 29.5t-89 80t-47 114.5t-3 134zM92 350q-10 -67 2 -129t44.5 -111t85.5 -78
t125 -29q69 0 130 25t109 69l-176 203h15l170 -196q50 48 83 111.5t45 134.5q9 67 -2.5 129t-44 111t-85.5 78t-125 29q-73 0 -136.5 -27.5t-113 -75.5t-82.5 -110.5t-44 -133.5z" />
    <glyph glyph-name="R" unicode="R" horiz-adv-x="454" 
d="M180 700h1h1h109q62 0 110 -22.5t72.5 -65.5t14.5 -105q-11 -62 -47 -104t-90.5 -64.5t-117.5 -24.5l160 -314h-13l-158 314h-97l-54 -314h-11zM290 689h-101l-63 -365h101q62 1 115.5 21.5t89 61t45.5 100.5q10 59 -13 99t-68.5 61t-105.5 22z" />
    <glyph glyph-name="S" unicode="S" horiz-adv-x="473" 
d="M55 197q5 -33 15.5 -67t29 -62.5t48 -46t72.5 -17.5q88 -1 139 48.5t63 122.5q7 47 -10.5 82t-49 60t-68.5 42q-39 17 -76.5 42.5t-59.5 61.5t-14 87q7 46 36 81.5t70.5 56t88.5 20.5q51 -1 83.5 -24.5t49 -59.5t21.5 -74l-10 -2q-5 36 -20.5 70t-46 56t-78.5 23
q-44 0 -83 -19.5t-66 -52.5t-34 -75q-8 -48 12.5 -82t57 -58.5t75.5 -41.5q40 -17 73 -43.5t50 -63t10 -86.5q-8 -50 -35 -92t-71.5 -66.5t-106.5 -23.5q-60 0 -95.5 30.5t-54 76.5t-25.5 93z" />
    <glyph glyph-name="T" unicode="T" horiz-adv-x="418" 
d="M110 689l2 11h380l-2 -11h-185l-118 -689h-11l118 689h-184z" />
    <glyph glyph-name="U" unicode="U" horiz-adv-x="558" 
d="M176 700h10l-82 -480q-8 -58 4 -107.5t47.5 -80t96.5 -30.5q62 -1 108.5 28.5t76 79t39.5 110.5l83 480h11l-82 -480q-11 -64 -41 -116t-79 -83t-116 -30q-68 0 -105 32t-49.5 84t-4.5 113z" />
    <glyph glyph-name="V" unicode="V" horiz-adv-x="582" 
d="M276 15l370 685h13l-388 -715l-165 715h12z" />
    <glyph glyph-name="W" unicode="W" horiz-adv-x="921" 
d="M661 27l322 673h11l-339 -715l-106 692l-321 -692l-118 715h11l113 -673l321 689z" />
    <glyph glyph-name="X" unicode="X" horiz-adv-x="485" 
d="M529 699h14l-252 -332l158 -367h-13l-153 356l-267 -356h-14l277 368l-145 332h14l138 -322z" />
    <glyph glyph-name="Y" unicode="Y" horiz-adv-x="492" 
d="M558 699h13l-306 -432l-46 -267h-11l47 267l-148 433h13l141 -418z" />
    <glyph glyph-name="Z" unicode="Z" horiz-adv-x="519" 
d="M129 689l2 11h467l-582 -688h454l-2 -12h-476l582 689h-445z" />
    <glyph glyph-name="bracketleft" unicode="[" horiz-adv-x="252" 
d="M210 769l-151 -978h125l-2 -11h-136l154 1000h136l-1 -11h-125z" />
    <glyph glyph-name="backslash" unicode="\" horiz-adv-x="422" 
d="M107 700h13l261 -700h-13z" />
    <glyph glyph-name="bracketright" unicode="]" horiz-adv-x="252" 
d="M96 -209l151 978h-125l2 11h136l-155 -1000h-135l1 11h125z" />
    <glyph glyph-name="asciicircum" unicode="^" horiz-adv-x="494" 
d="M339 692l-210 -231h-15l227 248v0v0v0l143 -249h-13z" />
    <glyph glyph-name="underscore" unicode="_" horiz-adv-x="485" 
d="M-46 -109l2 11h486l-2 -11h-486z" />
    <glyph glyph-name="grave" unicode="`" horiz-adv-x="342" 
d="M186 692l9 8l141 -160l-5 -4z" />
    <glyph glyph-name="a" unicode="a" 
d="M56 230q9 66 44 120.5t87.5 87t115.5 32.5q53 -1 87 -29.5t50.5 -72t17.5 -91.5l32 183h10l-80 -460h-10l30 172q-18 -48 -49 -89t-74 -66.5t-95 -25.5q-63 -1 -103 33t-56 89t-7 117zM66 230q-9 -59 6.5 -112t54 -85.5t99.5 -32.5q55 1 101 33t77.5 81.5t43.5 102.5
l3 18q4 38 -2.5 77.5t-24.5 72.5t-47.5 53.5t-71.5 21.5q-61 1 -111.5 -30.5t-84.5 -84t-43 -115.5z" />
    <glyph glyph-name="b" unicode="b" 
d="M494 230q-10 -66 -44.5 -120.5t-87 -87t-115.5 -32.5q-54 1 -88 29.5t-50.5 73t-17.5 92.5l-31 -185h-10l134 780h10l-85 -495q17 48 48 90t74.5 68t95.5 27q63 0 103 -34t56.5 -89t7.5 -117zM484 230q8 60 -7.5 112.5t-53.5 85t-99 32.5q-43 -1 -81 -21t-68 -53
t-49.5 -74t-25.5 -82q-6 -38 0 -78t23.5 -74t47.5 -55.5t73 -21.5q61 -2 112 29.5t85 84t43 115.5z" />
    <glyph glyph-name="c" unicode="c" horiz-adv-x="473" 
d="M68 230q-9 -60 11 -112.5t63.5 -84.5t106.5 -32q50 0 91.5 19t68.5 40l-2 -12q-27 -22 -68 -39.5t-91 -17.5q-66 0 -111.5 33.5t-66 88t-12.5 117.5q9 66 46 120.5t93.5 87t123.5 32.5q46 0 83.5 -17.5t58.5 -40.5l-2 -12q-20 23 -57 41.5t-84 18.5q-63 0 -117 -31.5
t-90 -83.5t-45 -115z" />
    <glyph glyph-name="d" unicode="d" 
d="M56 230q9 66 44 120.5t87.5 87t115.5 32.5q53 -1 87 -29t50.5 -71.5t17.5 -90.5l86 501h10l-134 -780h-10l29 171q-17 -47 -48.5 -88.5t-74 -66.5t-94.5 -25q-63 -1 -103 33t-56 89t-7 117zM66 230q-9 -59 6.5 -112t54 -85.5t99.5 -31.5q54 0 99.5 31t77 79.5t43.5 100.5
l5 28q4 38 -3 76t-25 70.5t-47.5 52.5t-70.5 21q-61 1 -111.5 -30.5t-84.5 -84t-43 -115.5z" />
    <glyph glyph-name="e" unicode="e" horiz-adv-x="487" 
d="M436 106q-23 -27 -51.5 -54t-67.5 -44.5t-92 -16.5q-61 0 -99.5 35.5t-54.5 90.5t-9 115q6 41 22 76q18 44 50.5 81t75 59t92.5 22q55 -1 94 -32t58 -80t12 -104q-2 -6 -3.5 -13t-2.5 -13h-388q-5 -56 9.5 -108t50 -85.5t93.5 -33.5q50 -1 87.5 16t65.5 43t51 53z
M302 459q-57 0 -105.5 -29.5t-81.5 -80t-43 -111.5h380q11 53 -3.5 103.5t-52 84t-94.5 33.5z" />
    <glyph glyph-name="f" unicode="f" horiz-adv-x="269" 
d="M101 460h43l33 190q5 33 20 65t41.5 53t66.5 20q28 -1 45.5 -16t29.5 -32l-7 -7q-12 16 -28 30t-40 15q-38 1 -62 -19.5t-37 -50.5t-19 -58l-33 -190h136l-1 -10h-136l-77 -450h-10l76 450h-43z" />
    <glyph glyph-name="g" unicode="g" 
d="M28 -30h10q-6 -51 7 -94t47 -69t89 -26q59 -1 108 28.5t81.5 81.5t42.5 119l28 163q-17 -48 -48.5 -89.5t-74.5 -67t-95 -25.5q-63 -1 -103 33t-56 89t-7 117q9 66 44 120.5t87.5 87t115.5 32.5q53 -1 87 -29.5t50.5 -72.5t17.5 -91l32 183h10l-77 -450
q-11 -69 -44.5 -123.5t-85 -85.5t-114.5 -30q-58 0 -94 27.5t-50 73t-8 98.5zM67 230q-9 -60 6.5 -112.5t54 -85t99.5 -31.5q43 0 81 20t68 54t49.5 75.5t26.5 84.5q5 36 -1.5 75t-24.5 72.5t-48 55t-72 22.5q-61 1 -111.5 -30.5t-84.5 -84t-43 -115.5z" />
    <glyph glyph-name="h" unicode="h" horiz-adv-x="460" 
d="M398 320q4 36 -2 68t-28 51.5t-65 20.5q-47 0 -84.5 -24.5t-64 -62.5t-38.5 -81l-50 -292h-10l134 780h10l-78 -452q23 59 70 100.5t111 41.5q46 -1 70.5 -22t32 -54.5t2.5 -73.5l-56 -320h-10z" />
    <glyph glyph-name="i" unicode="i" horiz-adv-x="184" 
d="M174 695q0 10 10 10t10 -10t-10 -10t-10 10zM140 460h10l-80 -460h-10z" />
    <glyph glyph-name="j" unicode="j" horiz-adv-x="174" 
d="M164 695q0 10 10 10t10 -10t-10 -10t-10 10zM-149 -165q10 -15 26.5 -29.5t40.5 -14.5q38 0 62.5 20.5t37.5 50t19 56.5l93 542h10l-93 -542q-6 -32 -21 -64t-41.5 -52.5t-66.5 -20.5q-28 0 -45.5 15t-29.5 32z" />
    <glyph glyph-name="k" unicode="k" horiz-adv-x="361" 
d="M370 459h16l-269 -189l207 -270h-12l-206 269l-46 -269h-10l134 780h10l-88 -508z" />
    <glyph glyph-name="l" unicode="l" horiz-adv-x="174" 
d="M190 780h10l-134 -780h-10z" />
    <glyph glyph-name="m" unicode="m" horiz-adv-x="669" 
d="M359 320q4 33 0 65t-21.5 53t-54.5 22q-38 0 -71.5 -23.5t-58 -61t-36.5 -76.5l-51 -299h-10l80 460h10l-22 -126q14 36 38 67.5t55 50t67 18.5q36 -1 56 -20.5t26.5 -50t3.5 -64.5q15 37 39.5 68t55.5 49t66 18q40 -1 59.5 -23t25 -56t0.5 -71l-55 -320h-10l55 320
q4 33 0 65t-21.5 53t-53.5 22q-39 0 -72.5 -24t-58 -62t-36.5 -77l-51 -297h-10z" />
    <glyph glyph-name="n" unicode="n" horiz-adv-x="460" 
d="M146 460l-23 -130q23 58 70 99t110 41q46 -1 70.5 -22t32 -54.5t2.5 -73.5l-56 -320h-10l56 320q4 36 -2 68t-28 51.5t-65 20.5q-46 0 -83.5 -23.5t-63.5 -61t-39 -79.5l-51 -296h-10l80 460h10z" />
    <glyph glyph-name="o" unicode="o" horiz-adv-x="539" 
d="M62 230q9 66 46 120.5t93.5 87t123.5 32.5q66 -1 111.5 -34.5t66 -88t12.5 -117.5q-10 -66 -47 -120.5t-93.5 -87t-122.5 -31.5q-66 0 -112 33.5t-66.5 88t-11.5 117.5zM72 230q-9 -60 11 -112.5t63 -84.5t106 -32q64 -1 118 30.5t90 83.5t45 115q8 60 -12 112.5
t-63 84.5t-106 33q-63 0 -117.5 -31.5t-90 -83.5t-44.5 -115z" />
    <glyph glyph-name="p" unicode="p" 
d="M22 -219h-10l118 679h10l-30 -171q17 47 48.5 88t74 66.5t94.5 26.5q63 0 103 -34t56.5 -89t7.5 -117q-10 -66 -44.5 -120.5t-87 -87t-115.5 -32.5q-54 1 -88 29.5t-50.5 72t-16.5 90.5zM484 230q8 60 -7.5 112.5t-53.5 85t-99 32.5q-55 -1 -101 -32.5t-77.5 -80.5
t-43.5 -102l-3 -22q-5 -38 1.5 -76.5t24.5 -71.5t47.5 -53.5t71.5 -20.5q61 -2 112 29.5t85 84t43 115.5z" />
    <glyph glyph-name="q" unicode="q" 
d="M56 230q9 66 44 120.5t87.5 87t115.5 32.5q53 -1 87 -29.5t50.5 -72.5t17.5 -91l32 183h10l-118 -679h-9l67 392q-17 -48 -48.5 -89.5t-74.5 -67t-95 -25.5q-63 -1 -103 33t-56 89t-7 117zM66 230q-9 -59 6.5 -112t54 -85.5t98.5 -31.5q56 0 103 33t78.5 83.5t42.5 105.5
l1 8q6 38 -0.5 78t-24.5 74t-48 55t-72 22q-61 1 -111.5 -30.5t-84.5 -84t-43 -115.5z" />
    <glyph glyph-name="r" unicode="r" horiz-adv-x="281" 
d="M146 460l-19 -107q18 49 50 83.5t83 33.5q16 -1 30.5 -7.5t27.5 -14.5l-7 -8q-12 8 -25 13.5t-27 5.5q-38 2 -65.5 -20.5t-46 -57.5t-28.5 -72l-53 -309h-10l80 460h10z" />
    <glyph glyph-name="s" unicode="s" horiz-adv-x="391" 
d="M54 147q3 -35 13.5 -68.5t36 -56t71.5 -22.5q52 0 92 33t47 84q4 32 -10 53.5t-39 36t-55 24.5q-33 11 -59.5 25.5t-40 38.5t-7.5 64q8 51 49.5 80t93.5 29q53 -1 79 -30.5t36 -69.5l-10 -3q-9 38 -32.5 65t-73.5 28q-47 0 -86 -26.5t-46 -72.5q-6 -37 7.5 -59.5
t39 -35.5t57.5 -24q30 -10 56 -25.5t40.5 -39t10.5 -58.5q-8 -56 -50.5 -91t-99.5 -35q-49 0 -76.5 22.5t-39 58t-14.5 72.5z" />
    <glyph glyph-name="t" unicode="t" horiz-adv-x="184" 
d="M68 460h71l28 160h10l-28 -160h75l-2 -10h-75l-77 -450h-10l77 450h-71z" />
    <glyph glyph-name="u" unicode="u" horiz-adv-x="460" 
d="M91 150q-5 -39 0 -73t27 -55t66 -22q46 0 83.5 24t64 62.5t38.5 80.5l51 293h10l-80 -460h-10l22 130q-23 -58 -70 -99t-110 -40q-47 0 -71 22t-30.5 58.5t-0.5 78.5l54 310h10z" />
    <glyph glyph-name="v" unicode="v" horiz-adv-x="407" 
d="M64 460h11l113 -449l253 449h12l-269 -475z" />
    <glyph glyph-name="w" unicode="w" horiz-adv-x="601" 
d="M68 460h9l57 -441l218 457l69 -457l210 441h10l-226 -475l-69 456l-218 -456z" />
    <glyph glyph-name="x" unicode="x" horiz-adv-x="368" 
d="M389 459h14l-192 -222l131 -237h-13l-126 229l-196 -229h-15l206 238l-125 222h14l118 -215z" />
    <glyph glyph-name="y" unicode="y" horiz-adv-x="412" 
d="M455 460l-264 -440v0v0l-144 -239h-11l144 239v1v1l-119 438h11l115 -426l257 426h11z" />
    <glyph glyph-name="z" unicode="z" horiz-adv-x="417" 
d="M417 450h-328l1 10h350l-425 -449h358l-2 -11h-379z" />
    <glyph glyph-name="braceleft" unicode="{" horiz-adv-x="272" 
d="M225 640l-32 -210q-7 -54 -29.5 -91t-54.5 -49q27 -14 36.5 -51.5t4.5 -88.5l-33 -210q-4 -37 -3 -66.5t15 -46.5t49 -17h20l-2 -10h-19q-39 0 -55 19t-17.5 50.5t3.5 70.5l32 210q5 47 -3.5 81.5t-32.5 53.5l1 4v0v0l1 6q62 34 77 135l32 210q8 62 31.5 101t80.5 39h20
l-1 -10h-20q-51 0 -72 -35.5t-29 -94.5z" />
    <glyph glyph-name="bar" unicode="|" horiz-adv-x="203" 
d="M201 785h10l-155 -1000h-10z" />
    <glyph glyph-name="braceright" unicode="}" horiz-adv-x="272" 
d="M103 -60l32 210q7 54 29.5 91t54.5 49q-27 14 -36.5 51.5t-4.5 88.5l33 210q3 37 2 66.5t-14.5 46.5t-48.5 17h-19l1 10h19q39 0 54.5 -18.5t17 -50.5t-2.5 -71l-32 -210q-6 -47 3 -81.5t33 -53.5l-1 -10q-63 -34 -78 -135l-32 -210q-8 -62 -31.5 -101t-80.5 -39h-20
l2 10h19q51 0 72 35.5t29 94.5z" />
    <glyph glyph-name="asciitilde" unicode="~" horiz-adv-x="558" 
d="M96 179l-10 3q-1 12 1 24q3 24 13 46t26 38q15 17 37.5 27t48.5 10q39 -1 62 -26t40 -51q15 -22 35.5 -44.5t53.5 -22.5q43 -1 69.5 32t32.5 75q2 14 0 31l9 -3q0 -7 0.5 -14t-0.5 -14q-4 -23 -12.5 -45t-22.5 -38q-13 -15 -33.5 -25t-43.5 -9q-36 0 -57.5 22.5
t-38.5 47.5q-11 16 -23.5 33t-29.5 28.5t-42 12.5q-50 0 -80 -35.5t-36 -80.5q-1 -9 1 -22z" />
    <glyph glyph-name="uni00A0" unicode="&#xa0;" horiz-adv-x="300" 
 />
    <glyph glyph-name="exclamdown" unicode="&#xa1;" horiz-adv-x="291" 
d="M225 454q0 -4 -4 -7.5t-8 -3.5q-10 0 -9 11q0 4 4 7.5t8 3.5q10 0 9 -11zM102 -244h-14l90 499h6z" />
    <glyph glyph-name="cent" unicode="&#xa2;" horiz-adv-x="562" 
d="M105 230q-9 -59 9.5 -111.5t61.5 -85t106 -32.5q51 0 93 19t69 40l-2 -12q-27 -22 -68.5 -39.5t-90.5 -17.5l-14 -102h-14l23 102q-65 0 -109 34t-63.5 88.5t-10.5 116.5q11 65 48.5 119t93.5 87t122 33l15 109h14l-25 -109q46 0 83 -17t58 -40l-2 -12q-20 24 -57 42
t-83 18q-65 0 -119.5 -31.5t-91 -84t-46.5 -114.5z" />
    <glyph glyph-name="sterling" unicode="&#xa3;" horiz-adv-x="562" 
d="M109 305h159q-4 29 -17.5 56t-28 54t-23 57.5t-3.5 65.5q8 45 35.5 84t70 63.5t94.5 24.5q47 -1 75.5 -22t43 -53.5t18.5 -69t1 -67.5h-10q3 30 -0.5 64.5t-17.5 65.5t-40.5 51t-70.5 21q-49 0 -89 -23t-66.5 -60.5t-33.5 -78.5q-5 -35 3.5 -65t23 -57t28 -54t17.5 -57
h133l-2 -10h-129q1 -15 -1 -31q-7 -39 -29.5 -74.5t-52.5 -67.5t-59.5 -60t-51.5 -52h371l-1 -10h-392q41 45 84.5 86t77 84t43.5 94q2 15 1 31h-162z" />
    <glyph glyph-name="currency" unicode="&#xa4;" horiz-adv-x="543" 
d="M49 68l-8 10l68 57q-23 33 -32.5 76t-2.5 89q7 48 30.5 91.5t58.5 76.5l-46 55l12 10l44 -56q34 29 76 46t87 17q64 -1 108 -35t63.5 -88.5t10.5 -116.5q-8 -46 -29.5 -88t-54.5 -74l49 -61l-10 -10l-49 61q-35 -31 -78 -49.5t-90 -18.5q-45 1 -80.5 18.5t-58.5 46.5z
M487 461l-8 9l73 63l8 -11zM84 300q-9 -58 9.5 -110.5t60 -85.5t102.5 -33q62 -1 115.5 31t90 84.5t46.5 113.5q8 58 -10 110.5t-59.5 85.5t-102.5 34q-44 0 -84 -16.5t-73 -44.5h1l-4 -3q-36 -32 -60 -75t-32 -91z" />
    <glyph glyph-name="yen" unicode="&#xa5;" horiz-adv-x="548" 
d="M28 145l2 10h221l20 113l-1 2h-221l2 10h215l-143 420h12l143 -418l295 417h13l-295 -419h223l-2 -10h-228l-4 -5l-19 -110h232l-2 -10h-232l-24 -145h-11l25 145h-221z" />
    <glyph glyph-name="brokenbar" unicode="&#xa6;" horiz-adv-x="203" 
d="M190 695h10l-43 -239h-10zM123 245l-43 -239h-10l43 239h10z" />
    <glyph glyph-name="section" unicode="&#xa7;" horiz-adv-x="386" 
d="M32 127q6 -52 47 -89t102 -38q32 0 66 9.5t59.5 31.5t31.5 59q6 38 -13 62.5t-49.5 41t-59.5 29.5q-28 13 -59 29.5t-51 40t-15 57.5q9 51 54.5 81.5t110.5 36.5q-29 12 -59.5 26.5t-50 36.5t-14.5 58q6 37 30 61.5t58.5 37t70.5 12.5q50 0 89 -24.5t52 -65.5l-7 -4
q-14 39 -51.5 61.5t-83.5 22.5q-30 0 -62.5 -11.5t-56.5 -33.5t-29 -56q-4 -26 8.5 -44t34 -31t45 -23t42.5 -18q28 -13 58 -28.5t48.5 -38.5t13.5 -56q-6 -41 -30.5 -66t-60.5 -37.5t-78 -15.5h1q30 -14 61 -31t50 -43t13 -67q-6 -38 -32 -62.5t-62 -36t-73 -10.5
q-42 0 -76 17t-56 47t-26 68zM101 359q-4 -32 16 -53.5t49.5 -37t53.5 -26.5q39 10 74 24t59 36t29 59q4 30 -15.5 51.5t-48.5 37t-54 25.5l-5 2q-59 -14 -105 -43t-53 -75z" />
    <glyph glyph-name="dieresis" unicode="&#xa8;" horiz-adv-x="409" 
d="M380 689q1 11 12 11q10 0 10 -11q-1 -4 -5 -7.5t-8 -3.5q-10 0 -9 11zM186 689q1 11 12 11q10 0 10 -11q-1 -4 -5 -7.5t-8 -3.5q-10 0 -9 11z" />
    <glyph glyph-name="copyright" unicode="&#xa9;" horiz-adv-x="776" 
d="M76 350q10 75 45.5 140.5t90 114.5t123 77t145.5 28q75 0 134 -29t98.5 -79.5t55.5 -115t7 -136.5q-11 -75 -46.5 -140.5t-90 -114.5t-123 -77t-145.5 -28q-76 0 -135 29t-98 79.5t-55 115t-6 136.5zM86 350q-10 -69 6 -132t54 -112t95 -77.5t130 -28.5t139.5 27
t120 75.5t88.5 112t46 135.5q9 69 -7 132t-54 112t-95 77.5t-129 28.5q-74 0 -140.5 -27t-120 -75.5t-88.5 -112t-45 -135.5zM229 350q-7 -53 8 -100.5t52 -77t93 -29.5q42 -1 76 13t64 36l-2 -9q-30 -21 -63 -34.5t-75 -12.5q-59 0 -97.5 30.5t-54.5 79t-8 104.5
q8 59 39 107.5t79 77.5t107 30q40 0 69.5 -12.5t55.5 -34.5l-2 -9q-48 49 -123 49q-57 -1 -103.5 -29t-76.5 -75t-38 -104z" />
    <glyph glyph-name="ordfeminine" unicode="&#xaa;" horiz-adv-x="230" 
d="M133 663l-4 4q15 11 36 22.5t46 10.5q32 -2 43.5 -24t8.5 -51l-30 -164h-5l10 57q-12 -25 -34.5 -44t-53.5 -18q-30 0 -48.5 19.5t-13.5 53.5q5 33 36 52t64 19q23 -1 37 -7.5t24 -13.5l9 46q3 28 -7 48t-40 22q-24 1 -43.5 -9.5t-34.5 -22.5zM92 528q-4 -31 13.5 -49
t44.5 -18q33 -1 57 22t34 51l7 39q-11 8 -25.5 15t-34.5 8q-31 0 -61 -18t-35 -50z" />
    <glyph glyph-name="guillemotleft" unicode="&#xab;" horiz-adv-x="470" 
d="M220 255l161 -228l-8 -7l-163 236l243 233l6 -7zM65 255l160 -228l-7 -7l-163 236l243 233l6 -7z" />
    <glyph glyph-name="logicalnot" unicode="&#xac;" horiz-adv-x="601" 
d="M98 365l2 10h476l-35 -199h-10l34 189h-467z" />
    <glyph glyph-name="uni00AD" unicode="&#xad;" horiz-adv-x="203" 
d="M23 265l2 10h194l-2 -10h-194z" />
    <glyph glyph-name="registered" unicode="&#xae;" horiz-adv-x="776" 
d="M76 350q10 75 45.5 140.5t90 114.5t123 77t145.5 28q75 0 134 -29t98.5 -79.5t55.5 -115t7 -136.5q-11 -75 -46.5 -140.5t-90 -114.5t-123 -77t-145.5 -28q-76 0 -135 29t-98 79.5t-55 115t-6 136.5zM86 350q-10 -69 6 -132t54 -112t95 -77.5t130 -28.5t139.5 27
t120 75.5t88.5 112t46 135.5q9 69 -7 132t-54 112t-95 77.5t-129 28.5q-74 0 -140.5 -27t-120 -75.5t-88.5 -112t-45 -135.5zM489 150l-99 188h-57l-29 -188h-7l66 420h66q55 -1 91.5 -30.5t28.5 -85.5q-5 -38 -27.5 -63.5t-55 -38t-68.5 -13.5l100 -189h-9zM428 563h-60
l-34 -219h60q55 2 97.5 29t50.5 81t-26.5 80.5t-87.5 28.5z" />
    <glyph glyph-name="macron" unicode="&#xaf;" horiz-adv-x="494" 
d="M163 665l2 10h339l-1 -10h-340z" />
    <glyph glyph-name="degree" unicode="&#xb0;" horiz-adv-x="269" 
d="M94 601q5 32 24.5 59.5t49 43.5t63.5 16q50 -1 76 -37t19 -83q-5 -33 -24.5 -60.5t-48.5 -43.5t-63 -15q-50 0 -76.5 36t-19.5 84zM104 600q-7 -43 17.5 -76t69.5 -33q30 -1 57 14t45 40t23 55q7 44 -17 76.5t-69 33.5q-31 0 -57.5 -15t-45 -40t-23.5 -55z" />
    <glyph glyph-name="plusminus" unicode="&#xb1;" horiz-adv-x="591" 
d="M105 380l1 10h228l36 230h10l-36 -230h228l-1 -10h-229l-35 -230h-10l35 230h-227zM46 0l2 10h466l-2 -10h-466z" />
    <glyph glyph-name="uni00B2" unicode="&#xb2;" horiz-adv-x="322" 
d="M50 283l220 200q24 23 46.5 49t28.5 62q5 25 -2.5 49.5t-27.5 41.5t-54 18q-39 0 -67.5 -20.5t-47.5 -53.5t-26 -70h-6q8 39 27 73.5t49.5 55.5t70.5 21q35 -1 56.5 -18.5t30 -44t3.5 -52.5q-6 -36 -28 -64t-47 -51l-210 -190l249 -1l-1 -6z" />
    <glyph glyph-name="uni00B3" unicode="&#xb3;" horiz-adv-x="298" 
d="M174 275q-58 0 -83.5 34t-21.5 82h6q-3 -46 20 -78t79 -32q50 -1 88 29t46 75q5 36 -12.5 59.5t-45.5 36t-56 15.5v2h-1l1 5q29 2 58.5 13t52 32t28.5 52q6 37 -16 68t-67 32q-49 0 -80.5 -30.5t-42.5 -72.5h-6q11 45 44 77t85 32q48 -1 72 -34t16 -72
q-8 -46 -47.5 -70.5t-83.5 -30.5q29 -5 55.5 -18.5t41.5 -37.5t10 -58q-8 -48 -48 -79.5t-92 -30.5z" />
    <glyph glyph-name="acute" unicode="&#xb4;" horiz-adv-x="342" 
d="M336 691l-193 -155l-5 5l191 158z" />
    <glyph glyph-name="mu" unicode="&#xb5;" horiz-adv-x="460" 
d="M341 0l22 130q-23 -58 -70 -99t-110 -40q-51 0 -75 25.5t-29 65.5l-69 -401h-10l79 459l2 10l54 310h10l-56 -320q-3 -36 3 -68t27.5 -51.5t64.5 -20.5q46 0 83.5 24t64 62.5t38.5 80.5l51 293h10l-80 -460h-10z" />
    <glyph glyph-name="paragraph" unicode="&#xb6;" horiz-adv-x="434" 
d="M114 485q10 67 47 115t92 74t119 26h97v0h1l-158 -919h-10l156 909h-77l-157 -909h-10l84 489q-61 4 -106.5 30.5t-66.5 73.5t-11 111z" />
    <glyph glyph-name="periodcentered" unicode="&#xb7;" horiz-adv-x="234" 
d="M117 221q0 4 4 7.5t9 3.5q10 0 9 -11q0 -4 -4 -7.5t-8 -3.5q-11 0 -10 11z" />
    <glyph glyph-name="cedilla" unicode="&#xb8;" horiz-adv-x="339" 
d="M144 0h12l-68 -75q18 9 34 16.5t38 6.5q27 -2 44.5 -22.5t14.5 -51.5q-4 -29 -22.5 -50t-44.5 -32.5t-53 -10.5q-26 0 -44.5 9.5t-36.5 27.5l8 6q17 -16 34 -24.5t40 -8.5t47 10t41.5 28.5t20.5 44.5q3 28 -12 45t-38 19q-23 1 -44.5 -7t-39.5 -18z" />
    <glyph glyph-name="uni00B9" unicode="&#xb9;" horiz-adv-x="456" 
d="M226 667l1 7l110 23l-74 -422h-6l71 414z" />
    <glyph glyph-name="ordmasculine" unicode="&#xba;" horiz-adv-x="269" 
d="M91 581q5 32 24.5 59.5t48.5 43.5t63 16q50 -1 76.5 -37t19.5 -83q-5 -33 -25 -60t-49 -43.5t-62 -15.5q-51 0 -77 36t-19 84zM101 580q-7 -43 17 -76t69 -33q30 -1 57 14t45.5 40t23.5 55q7 44 -17 76.5t-69 33.5q-31 0 -58 -15t-45.5 -40t-22.5 -55z" />
    <glyph glyph-name="guillemotright" unicode="&#xbb;" horiz-adv-x="470" 
d="M284 255l-161 228l8 7l163 -236l-243 -233l-6 7zM439 255l-160 228l7 7l163 -236l-243 -233l-6 7z" />
    <glyph glyph-name="onequarter" unicode="&#xbc;" horiz-adv-x="731" 
d="M744 699h12l-676 -699h-12zM107 667l1 7l110 23l-74 -422h-6l72 414zM377 84l1 1h-2l280 333l1 2v-1l-1 -1l-56 -328h65l-1 -6h-65l-14 -84h-6l15 84h-217zM648 399l-261 -309h207z" />
    <glyph glyph-name="onehalf" unicode="&#xbd;" horiz-adv-x="794" 
d="M744 699h12l-676 -699h-12zM107 667l1 7l110 23l-74 -422h-6l72 414zM455 3l220 199q24 23 46.5 49t28.5 62q4 25 -3 50t-27 42t-55 18q-38 0 -67 -20.5t-47.5 -53.5t-26.5 -70h-6q8 39 27.5 73.5t49.5 55.5t70 21q36 -1 57.5 -19t30 -44.5t4.5 -52.5q-6 -36 -29 -63.5
t-48 -50.5l-209 -190l249 -1l-1 -6z" />
    <glyph glyph-name="threequarters" unicode="&#xbe;" horiz-adv-x="795" 
d="M178 275q-58 0 -83 34t-21 82h6q-4 -46 19 -78t79 -32q50 -1 88.5 29t46.5 75q5 36 -12.5 59.5t-46 36t-56.5 15.5v2v0l1 5q29 2 58.5 13t52 32t28.5 52q6 37 -16.5 68t-67.5 32q-49 0 -80.5 -30.5t-42.5 -72.5h-6q12 45 45 77t85 32q48 -1 72 -34t16 -72
q-8 -46 -47.5 -70.5t-83.5 -30.5q29 -5 55.5 -18.5t41.5 -37.5t10 -58q-8 -48 -48 -79.5t-93 -30.5zM809 699h12l-676 -699h-12zM442 84l1 1h-2l280 333l1 2v-1l-1 -1l-56 -328h65l-1 -6h-65l-14 -84h-6l15 84h-217zM713 399l-261 -309h208z" />
    <glyph glyph-name="questiondown" unicode="&#xbf;" 
d="M412 699q-1 -4 -5 -7.5t-8 -3.5q-10 0 -9 11q0 4 4 7.5t9 3.5q9 0 9 -11zM92 180q-9 -48 6.5 -89t53 -65.5t91.5 -24.5q67 -1 116 31.5t89 79.5l8 -6q-41 -48 -92 -82t-121 -33q-59 0 -97.5 26t-55 68.5t-8.5 94.5q10 53 47 93t91 63t114 27l29 167h7l-24 -175v1
q-79 -6 -133 -33t-84 -65.5t-37 -77.5z" />
    <glyph glyph-name="Agrave" unicode="&#xc0;" horiz-adv-x="582" 
d="M292 932l9 8l139 -160l-5 -4zM530 0l-57 272h-322l-151 -272h-12l157 281v1v0l243 433l154 -715h-12zM384 688l-228 -406h315z" />
    <glyph glyph-name="Aacute" unicode="&#xc1;" horiz-adv-x="582" 
d="M557 931l-197 -155l-3 5l193 158zM530 0l-57 272h-322l-151 -272h-12l157 281v1v0l243 433l154 -715h-12zM384 688l-228 -406h315z" />
    <glyph glyph-name="Acircumflex" unicode="&#xc2;" horiz-adv-x="582" 
d="M421 910l-172 -134l-6 7l179 139l132 -140l-7 -7zM530 0l-57 272h-322l-151 -272h-12l157 281v1v0l243 433l154 -715h-12zM384 688l-228 -406h315z" />
    <glyph glyph-name="Atilde" unicode="&#xc3;" horiz-adv-x="582" 
d="M278 797q7 21 23 39t47 18q26 0 42.5 -12t31.5 -23.5t39 -10.5q21 0 35.5 13.5t27.5 33.5l10 -3q-14 -23 -32 -37.5t-42 -14.5q-26 0 -42.5 11.5t-31.5 23t-36 11.5q-28 -1 -41.5 -16.5t-20.5 -33.5zM530 0l-57 272h-322l-151 -272h-12l157 281v1v0l243 433l154 -715h-12
zM384 688l-228 -406h315z" />
    <glyph glyph-name="Adieresis" unicode="&#xc4;" horiz-adv-x="582" 
d="M489 806q0 4 4 7.5t9 3.5q9 0 9 -11q-1 -4 -5 -7.5t-8 -3.5q-10 0 -9 11zM295 806q0 4 4 7.5t8 3.5q10 0 10 -11q-1 -4 -5 -7.5t-8 -3.5q-10 0 -9 11zM530 0l-57 272h-322l-151 -272h-12l157 281v1v0l243 433l154 -715h-12zM384 688l-228 -406h315z" />
    <glyph glyph-name="Aring" unicode="&#xc5;" horiz-adv-x="582" 
d="M304 809q4 27 21.5 49.5t42.5 36t52 13.5q40 -1 64.5 -30.5t18.5 -69.5q-5 -28 -22 -50t-41.5 -35.5t-50.5 -13.5l153 -709h-12l-57 272h-322l-151 -272h-12l157 281v1v0l239 427q-39 1 -62.5 30.5t-17.5 69.5zM314 808q-6 -36 15.5 -62.5t57.5 -26.5q24 -1 47 11t39 33
t20 45q5 36 -16.5 62.5t-57.5 27.5q-24 0 -47 -12t-39 -32.5t-19 -45.5zM384 688l-228 -406h315z" />
    <glyph glyph-name="AE" unicode="&#xc6;" horiz-adv-x="869" 
d="M767 10l-2 -10h-317l48 280h-271l-235 -280h-13l586 700h322l-2 -10h-305l-51 -296h286l-2 -10h-286l-65 -374h307zM233 290h265l68 397z" />
    <glyph glyph-name="Ccedilla" unicode="&#xc7;" horiz-adv-x="664" 
d="M93 350q-10 -66 1 -127.5t42.5 -110.5t83 -78t122.5 -29q71 -1 127.5 21t106.5 61l-3 -15q-50 -37 -105.5 -58.5t-124.5 -20.5l-63 -69q18 9 34 16.5t38 6.5q27 -2 44.5 -22.5t14.5 -51.5q-4 -29 -22.5 -50t-44.5 -32.5t-53 -10.5q-26 0 -44.5 9.5t-36.5 27.5l8 6
q17 -16 34 -24.5t40 -8.5t47 10t41 28.5t21 44.5q3 28 -12 45t-38 19q-23 1 -44.5 -7t-39.5 -18l64 81q-71 2 -122.5 32.5t-83.5 80.5t-43 113t-1 131q11 73 44 138t83.5 114t115 77.5t138.5 28.5q66 0 115 -20t91 -59l-3 -15q-39 42 -90 62t-114 20q-72 0 -134 -27.5
t-110.5 -75t-80.5 -110t-43 -133.5z" />
    <glyph glyph-name="Egrave" unicode="&#xc8;" horiz-adv-x="494" 
d="M232 925l8 8l139 -160l-4 -4zM180 700h1h1h328l-2 -10h-319l-51 -296h300l-1 -10h-300l-65 -374h320l-1 -10h-331z" />
    <glyph glyph-name="Eacute" unicode="&#xc9;" horiz-adv-x="494" 
d="M535 924l-196 -155l-4 5l194 158zM180 700h1h1h328l-2 -10h-319l-51 -296h300l-1 -10h-300l-65 -374h320l-1 -10h-331z" />
    <glyph glyph-name="Ecircumflex" unicode="&#xca;" horiz-adv-x="494" 
d="M380 903l-172 -134l-6 7l179 139l132 -140l-7 -7zM180 700h1h1h328l-2 -10h-319l-51 -296h300l-1 -10h-300l-65 -374h320l-1 -10h-331z" />
    <glyph glyph-name="Edieresis" unicode="&#xcb;" horiz-adv-x="494" 
d="M448 799q0 4 4 7.5t9 3.5q9 0 9 -11q-1 -4 -5 -7.5t-8 -3.5q-10 0 -9 11zM254 799q0 4 4 7.5t8 3.5q10 0 10 -11q-1 -4 -5 -7.5t-8 -3.5q-10 0 -9 11zM180 700h1h1h328l-2 -10h-319l-51 -296h300l-1 -10h-300l-65 -374h320l-1 -10h-331z" />
    <glyph glyph-name="Igrave" unicode="&#xcc;" horiz-adv-x="174" 
d="M68 925l8 8l139 -160l-4 -4zM177 700h10l-121 -700h-10z" />
    <glyph glyph-name="Iacute" unicode="&#xcd;" horiz-adv-x="174" 
d="M371 924l-196 -155l-4 5l194 158zM177 700h10l-121 -700h-10z" />
    <glyph glyph-name="Icircumflex" unicode="&#xce;" horiz-adv-x="174" 
d="M216 903l-172 -134l-6 7l179 139l132 -140l-7 -7zM177 700h10l-121 -700h-10z" />
    <glyph glyph-name="Idieresis" unicode="&#xcf;" horiz-adv-x="174" 
d="M255 799q0 4 4 7.5t8 3.5q10 0 10 -11q-1 -4 -5 -7.5t-8 -3.5q-10 0 -9 11zM119 799q0 4 4 7.5t9 3.5q9 0 9 -11q-1 -4 -5 -7.5t-8 -3.5q-10 0 -9 11zM177 700h10l-121 -700h-10z" />
    <glyph glyph-name="Eth" unicode="&#xd0;" horiz-adv-x="659" 
d="M217 0h-156l59 345h-82l1 10h83l59 345h4h1h150q100 -2 164 -50t90 -127t12 -173q-16 -99 -68.5 -177.5t-133.5 -124.5t-183 -48zM329 345h-198l-58 -334h145q99 2 177.5 46.5t129 120.5t66.5 172q14 91 -11 167.5t-86.5 123t-158.5 48.5h-145l-57 -334h198z" />
    <glyph glyph-name="Ntilde" unicode="&#xd1;" horiz-adv-x="645" 
d="M301 757q7 21 23 39t47 18q24 0 40 -12t32.5 -23.5t39.5 -10.5q22 0 36.5 13.5t26.5 33.5l9 -3q-14 -23 -31.5 -37.5t-41.5 -14.5t-40.5 11t-32.5 22.5t-37 12.5q-27 0 -41.5 -16t-20.5 -34zM661 700h11l-123 -715l-399 693l-117 -678h-11l123 715l398 -698z" />
    <glyph glyph-name="Ograve" unicode="&#xd2;" horiz-adv-x="751" 
d="M375 925l9 8l139 -160l-7 -4zM81 350q11 73 45 138t86 114.5t117 77.5t140 28q73 0 127.5 -29.5t89 -80t47.5 -114.5t3 -134q-12 -73 -46 -138t-85.5 -114.5t-117 -77.5t-139.5 -28q-73 0 -128 29.5t-89 80t-47 114.5t-3 134zM92 350q-10 -67 2 -129t44.5 -111t85.5 -78
t125 -29t135.5 27.5t113.5 75.5t82.5 110.5t44.5 133.5q9 67 -2.5 129t-44 111t-85.5 78t-125 29q-73 0 -136.5 -27.5t-113 -75.5t-82.5 -110.5t-44 -133.5z" />
    <glyph glyph-name="Oacute" unicode="&#xd3;" horiz-adv-x="751" 
d="M638 924l-194 -155l-6 5l193 158zM81 350q11 73 45 138t86 114.5t117 77.5t140 28q73 0 127.5 -29.5t89 -80t47.5 -114.5t3 -134q-12 -73 -46 -138t-85.5 -114.5t-117 -77.5t-139.5 -28q-73 0 -128 29.5t-89 80t-47 114.5t-3 134zM92 350q-10 -67 2 -129t44.5 -111
t85.5 -78t125 -29t135.5 27.5t113.5 75.5t82.5 110.5t44.5 133.5q9 67 -2.5 129t-44 111t-85.5 78t-125 29q-73 0 -136.5 -27.5t-113 -75.5t-82.5 -110.5t-44 -133.5z" />
    <glyph glyph-name="Ocircumflex" unicode="&#xd4;" horiz-adv-x="751" 
d="M503 903l-172 -134l-6 7l180 139l132 -140l-8 -7zM81 350q11 73 45 138t86 114.5t117 77.5t140 28q73 0 127.5 -29.5t89 -80t47.5 -114.5t3 -134q-12 -73 -46 -138t-85.5 -114.5t-117 -77.5t-139.5 -28q-73 0 -128 29.5t-89 80t-47 114.5t-3 134zM92 350q-10 -67 2 -129
t44.5 -111t85.5 -78t125 -29t135.5 27.5t113.5 75.5t82.5 110.5t44.5 133.5q9 67 -2.5 129t-44 111t-85.5 78t-125 29q-73 0 -136.5 -27.5t-113 -75.5t-82.5 -110.5t-44 -133.5z" />
    <glyph glyph-name="Otilde" unicode="&#xd5;" horiz-adv-x="751" 
d="M361 790q7 20 23 38.5t48 18.5q23 0 39.5 -12t32.5 -23.5t40 -10.5q21 0 35.5 13.5t27.5 33.5l8 -3q-14 -23 -31.5 -37.5t-41.5 -14.5t-40.5 11t-32 22.5t-36.5 12.5q-28 0 -42.5 -16t-21.5 -34zM81 350q11 73 45 138t86 114.5t117 77.5t140 28q73 0 127.5 -29.5t89 -80
t47.5 -114.5t3 -134q-12 -73 -46 -138t-85.5 -114.5t-117 -77.5t-139.5 -28q-73 0 -128 29.5t-89 80t-47 114.5t-3 134zM92 350q-10 -67 2 -129t44.5 -111t85.5 -78t125 -29t135.5 27.5t113.5 75.5t82.5 110.5t44.5 133.5q9 67 -2.5 129t-44 111t-85.5 78t-125 29
q-73 0 -136.5 -27.5t-113 -75.5t-82.5 -110.5t-44 -133.5z" />
    <glyph glyph-name="Odieresis" unicode="&#xd6;" horiz-adv-x="751" 
d="M583 809q0 4 4 7.5t8 3.5q10 0 9 -11q0 -4 -4 -7.5t-8 -3.5q-10 0 -9 11zM369 809q0 4 4 7.5t9 3.5q9 0 9 -11q-1 -4 -5 -7.5t-8 -3.5q-10 0 -9 11zM81 350q11 73 45 138t86 114.5t117 77.5t140 28q73 0 127.5 -29.5t89 -80t47.5 -114.5t3 -134q-12 -73 -46 -138
t-85.5 -114.5t-117 -77.5t-139.5 -28q-73 0 -128 29.5t-89 80t-47 114.5t-3 134zM92 350q-10 -67 2 -129t44.5 -111t85.5 -78t125 -29t135.5 27.5t113.5 75.5t82.5 110.5t44.5 133.5q9 67 -2.5 129t-44 111t-85.5 78t-125 29q-73 0 -136.5 -27.5t-113 -75.5t-82.5 -110.5
t-44 -133.5z" />
    <glyph glyph-name="multiply" unicode="&#xd7;" horiz-adv-x="560" 
d="M66 47l-6 7l232 200l-164 202l8 7l161 -202l232 201l6 -7l-233 -201l163 -201l-8 -7l-161 202z" />
    <glyph glyph-name="Oslash" unicode="&#xd8;" horiz-adv-x="766" 
d="M81 350q11 73 45 138t86 114.5t117 77.5t139 28q67 0 118.5 -25t85.5 -67l117 117l10 -7l-119 -119q37 -50 51.5 -117t4.5 -140q-12 -73 -46 -138t-85.5 -114.5t-117 -77.5t-139.5 -28q-64 0 -114 23t-85 63l-110 -110l-9 6l112 112q-40 51 -56 120t-5 144zM92 350
q-11 -73 4 -140t54 -116l515 514q-33 41 -82.5 65t-114.5 24q-73 0 -136.5 -27.5t-113 -75.5t-82.5 -110.5t-44 -133.5zM725 350q10 70 -3.5 135t-49.5 114l-515 -514q33 -37 81 -59.5t111 -22.5q72 0 135.5 27.5t113.5 75.5t82.5 110.5t44.5 133.5z" />
    <glyph glyph-name="Ugrave" unicode="&#xd9;" horiz-adv-x="558" 
d="M278 925l9 8l139 -160l-5 -4zM176 700h10l-82 -480q-8 -58 4 -107.5t47.5 -80t96.5 -30.5q62 -1 108.5 28.5t76 79t39.5 110.5l83 480h11l-82 -480q-11 -64 -41 -116t-79 -83t-116 -30q-68 0 -105 32t-49.5 84t-4.5 113z" />
    <glyph glyph-name="Uacute" unicode="&#xda;" horiz-adv-x="558" 
d="M543 924l-196 -155l-4 5l193 158zM176 700h10l-82 -480q-8 -58 4 -107.5t47.5 -80t96.5 -30.5q62 -1 108.5 28.5t76 79t39.5 110.5l83 480h11l-82 -480q-11 -64 -41 -116t-79 -83t-116 -30q-68 0 -105 32t-49.5 84t-4.5 113z" />
    <glyph glyph-name="Ucircumflex" unicode="&#xdb;" horiz-adv-x="558" 
d="M407 903l-172 -134l-6 7l180 139l132 -140l-8 -7zM176 700h10l-82 -480q-8 -58 4 -107.5t47.5 -80t96.5 -30.5q62 -1 108.5 28.5t76 79t39.5 110.5l83 480h11l-82 -480q-11 -64 -41 -116t-79 -83t-116 -30q-68 0 -105 32t-49.5 84t-4.5 113z" />
    <glyph glyph-name="Udieresis" unicode="&#xdc;" horiz-adv-x="558" 
d="M462 779q0 4 4 7.5t9 3.5q9 0 9 -11q-1 -4 -5 -7.5t-8 -3.5q-10 0 -9 11zM287 779q0 4 4 7.5t9 3.5q10 0 9 -11q0 -4 -4 -7.5t-8 -3.5q-11 0 -10 11zM176 700h10l-82 -480q-8 -58 4 -107.5t47.5 -80t96.5 -30.5q62 -1 108.5 28.5t76 79t39.5 110.5l83 480h11l-82 -480
q-11 -64 -41 -116t-79 -83t-116 -30q-68 0 -105 32t-49.5 84t-4.5 113z" />
    <glyph glyph-name="Yacute" unicode="&#xdd;" horiz-adv-x="492" 
d="M529 924l-196 -155l-4 5l193 158zM558 699h13l-306 -432l-46 -267h-11l47 267l-148 433h13l141 -418z" />
    <glyph glyph-name="Thorn" unicode="&#xde;" horiz-adv-x="504" 
d="M171 700h10l-25 -140h145q64 -1 111.5 -28t71 -73.5t13.5 -108.5q-10 -63 -48.5 -110t-95.5 -73t-123 -27h-146l-24 -140h-10zM300 550h-145l-70 -400h146q61 2 115.5 27.5t92 70t47.5 102.5q10 60 -12.5 104t-68 69.5t-105.5 26.5z" />
    <glyph glyph-name="germandbls" unicode="&#xdf;" horiz-adv-x="514" 
d="M217 0q65 4 119 33t90 78t47 114q10 70 -16.5 117t-76 72.5t-106.5 28.5l1 7v-1v4q54 2 101 17t80 48t43 88q8 47 -4 86.5t-46.5 63.5t-92.5 24q-50 0 -90.5 -24.5t-67 -64t-34.5 -85.5l-104 -606h-10l104 606q9 51 36.5 92.5t70 66t96.5 25.5q61 0 97.5 -24.5
t49.5 -66.5t4 -93q-13 -75 -65.5 -113t-140.5 -46q62 -8 106.5 -37.5t64.5 -77t10 -107.5q-11 -68 -49 -119.5t-94 -81.5t-124 -33z" />
    <glyph glyph-name="agrave" unicode="&#xe0;" 
d="M249 697l9 8l138 -160l-4 -4zM56 230q9 66 44 120.5t87.5 87t115.5 32.5q53 -1 87 -29.5t50.5 -72t17.5 -91.5l32 183h10l-80 -460h-10l30 172q-18 -48 -49 -89t-74 -66.5t-95 -25.5q-63 -1 -103 33t-56 89t-7 117zM66 230q-9 -59 6.5 -112t54 -85.5t99.5 -32.5
q55 1 101 33t77.5 81.5t43.5 102.5l3 18q4 38 -2.5 77.5t-24.5 72.5t-47.5 53.5t-71.5 21.5q-61 1 -111.5 -30.5t-84.5 -84t-43 -115.5z" />
    <glyph glyph-name="aacute" unicode="&#xe1;" 
d="M436 696l-196 -155l-4 5l193 158zM56 230q9 66 44 120.5t87.5 87t115.5 32.5q53 -1 87 -29.5t50.5 -72t17.5 -91.5l32 183h10l-80 -460h-10l30 172q-18 -48 -49 -89t-74 -66.5t-95 -25.5q-63 -1 -103 33t-56 89t-7 117zM66 230q-9 -59 6.5 -112t54 -85.5t99.5 -32.5
q55 1 101 33t77.5 81.5t43.5 102.5l3 18q4 38 -2.5 77.5t-24.5 72.5t-47.5 53.5t-71.5 21.5q-61 1 -111.5 -30.5t-84.5 -84t-43 -115.5z" />
    <glyph glyph-name="acircumflex" unicode="&#xe2;" 
d="M341 685l-172 -134l-6 7l179 139l132 -140l-7 -7zM56 230q9 66 44 120.5t87.5 87t115.5 32.5q53 -1 87 -29.5t50.5 -72t17.5 -91.5l32 183h10l-80 -460h-10l30 172q-18 -48 -49 -89t-74 -66.5t-95 -25.5q-63 -1 -103 33t-56 89t-7 117zM66 230q-9 -59 6.5 -112t54 -85.5
t99.5 -32.5q55 1 101 33t77.5 81.5t43.5 102.5l3 18q4 38 -2.5 77.5t-24.5 72.5t-47.5 53.5t-71.5 21.5q-61 1 -111.5 -30.5t-84.5 -84t-43 -115.5z" />
    <glyph glyph-name="atilde" unicode="&#xe3;" 
d="M195 552q-4 13 7.5 26t29 22t33.5 9q23 0 39.5 -12t33 -23.5t39.5 -10.5q22 0 36 13.5t27 33.5l10 -3q-14 -23 -32 -37.5t-41 -14.5q-24 0 -41 11.5t-33 23t-37 11.5q-27 -1 -41 -16.5t-20 -33.5zM56 230q9 66 44 120.5t87.5 87t115.5 32.5q53 -1 87 -29.5t50.5 -72
t17.5 -91.5l32 183h10l-80 -460h-10l30 172q-18 -48 -49 -89t-74 -66.5t-95 -25.5q-63 -1 -103 33t-56 89t-7 117zM66 230q-9 -59 6.5 -112t54 -85.5t99.5 -32.5q55 1 101 33t77.5 81.5t43.5 102.5l3 18q4 38 -2.5 77.5t-24.5 72.5t-47.5 53.5t-71.5 21.5
q-61 1 -111.5 -30.5t-84.5 -84t-43 -115.5z" />
    <glyph glyph-name="adieresis" unicode="&#xe4;" 
d="M420 591q0 4 4 7.5t9 3.5q9 0 9 -11q-1 -4 -5 -7.5t-8 -3.5q-10 0 -9 11zM226 591q0 4 4 7.5t9 3.5q9 0 9 -11q-1 -4 -5 -7.5t-8 -3.5q-10 0 -9 11zM56 230q9 66 44 120.5t87.5 87t115.5 32.5q53 -1 87 -29.5t50.5 -72t17.5 -91.5l32 183h10l-80 -460h-10l30 172
q-18 -48 -49 -89t-74 -66.5t-95 -25.5q-63 -1 -103 33t-56 89t-7 117zM66 230q-9 -59 6.5 -112t54 -85.5t99.5 -32.5q55 1 101 33t77.5 81.5t43.5 102.5l3 18q4 38 -2.5 77.5t-24.5 72.5t-47.5 53.5t-71.5 21.5q-61 1 -111.5 -30.5t-84.5 -84t-43 -115.5z" />
    <glyph glyph-name="aring" unicode="&#xe5;" 
d="M232 631q4 27 21.5 49.5t42.5 36t52 13.5q39 -1 63.5 -30.5t18.5 -69.5q-4 -28 -21.5 -50.5t-42.5 -36t-52 -12.5q-40 0 -64 29.5t-18 70.5zM241 630q-5 -36 16.5 -62.5t57.5 -26.5q24 -1 47 11t39 33t20 45q5 36 -16.5 62.5t-57.5 27.5q-24 0 -47 -12t-39 -32.5
t-20 -45.5zM56 230q9 66 44 120.5t87.5 87t115.5 32.5q53 -1 87 -29.5t50.5 -72t17.5 -91.5l32 183h10l-80 -460h-10l30 172q-18 -48 -49 -89t-74 -66.5t-95 -25.5q-63 -1 -103 33t-56 89t-7 117zM66 230q-9 -59 6.5 -112t54 -85.5t99.5 -32.5q55 1 101 33t77.5 81.5
t43.5 102.5l3 18q4 38 -2.5 77.5t-24.5 72.5t-47.5 53.5t-71.5 21.5q-61 1 -111.5 -30.5t-84.5 -84t-43 -115.5z" />
    <glyph glyph-name="ae" unicode="&#xe6;" horiz-adv-x="800" 
d="M122 396l-6 8q31 23 72 45t96 21q41 -2 63.5 -22.5t30.5 -51.5t3 -66l-6 -39q19 50 53.5 91t82.5 64.5t108 23.5q48 -1 87.5 -30t60.5 -78t13 -109q-2 -6 -3.5 -12.5t-2.5 -12.5h-407q-5 -57 9 -108.5t49 -85t94 -33.5q52 -1 92 14.5t71.5 41t58.5 55.5l7 -6
q-43 -49 -96 -83t-134 -33q-49 1 -84 25t-55 63.5t-25 85.5v-2v0q-8 -43 -35 -82.5t-68 -64t-91 -24.5q-46 0 -76.5 19t-43 51.5t-6.5 71.5q8 46 37.5 79t73.5 51t94 18q43 0 72.5 -14t46.5 -29q1 5 3 10l12 72q5 34 -1 65.5t-27.5 52.5t-64.5 22q-51 1 -89.5 -20.5
t-68.5 -43.5zM768 250q9 57 -9 104.5t-56 76.5t-89 29q-65 0 -116 -31.5t-84 -82.5t-46 -108h398zM44 132q-7 -35 4.5 -65t40 -48t72.5 -18q46 0 86 24t66.5 62t33.5 79v0l7 43q1 10 2 19q-18 17 -48 30t-70 13q-47 0 -89 -17t-70 -48t-35 -74z" />
    <glyph glyph-name="ccedilla" unicode="&#xe7;" horiz-adv-x="473" 
d="M61 230q-9 -60 9.5 -112t61.5 -84.5t106 -32.5q50 0 92 19t69 40l-2 -12q-27 -22 -68.5 -39.5t-89.5 -17.5l-63 -69q18 9 34 16.5t38 6.5q27 -2 44.5 -22.5t14.5 -51.5q-4 -29 -22.5 -50t-44.5 -32.5t-53 -10.5q-26 0 -44.5 9.5t-36.5 27.5l8 6q17 -16 34 -24.5t40 -8.5
t47 10t41 28.5t21 44.5q3 28 -12 45t-38 19q-23 1 -44.5 -7t-39.5 -18l64 81q-63 2 -105.5 36.5t-61.5 88t-9 114.5q10 66 48 120.5t94.5 87t124.5 32.5q46 0 83 -17.5t58 -40.5l-2 -12q-20 23 -56.5 41.5t-83.5 18.5q-64 0 -118.5 -31.5t-91 -83.5t-46.5 -115z" />
    <glyph glyph-name="egrave" unicode="&#xe8;" horiz-adv-x="487" 
d="M175 686l8 8l142 -160l-6 -4zM436 106q-23 -27 -51.5 -54t-67.5 -44.5t-92 -16.5q-61 0 -99.5 35.5t-54.5 90.5t-9 115q6 41 22 76q18 44 50.5 81t75 59t92.5 22q55 -1 94 -32t58 -80t12 -104q-2 -6 -3.5 -13t-2.5 -13h-388q-5 -56 9.5 -108t50 -85.5t93.5 -33.5
q50 -1 87.5 16t65.5 43t51 53zM302 459q-57 0 -105.5 -29.5t-81.5 -80t-43 -111.5h380q11 53 -3.5 103.5t-52 84t-94.5 33.5z" />
    <glyph glyph-name="eacute" unicode="&#xe9;" horiz-adv-x="487" 
d="M487 685l-192 -155l-5 5l190 158zM436 106q-23 -27 -51.5 -54t-67.5 -44.5t-92 -16.5q-61 0 -99.5 35.5t-54.5 90.5t-9 115q6 41 22 76q18 44 50.5 81t75 59t92.5 22q55 -1 94 -32t58 -80t12 -104q-2 -6 -3.5 -13t-2.5 -13h-388q-5 -56 9.5 -108t50 -85.5t93.5 -33.5
q50 -1 87.5 16t65.5 43t51 53zM302 459q-57 0 -105.5 -29.5t-81.5 -80t-43 -111.5h380q11 53 -3.5 103.5t-52 84t-94.5 33.5z" />
    <glyph glyph-name="ecircumflex" unicode="&#xea;" horiz-adv-x="487" 
d="M330 664l-172 -133l-6 7l179 138l132 -139l-7 -7zM436 106q-23 -27 -51.5 -54t-67.5 -44.5t-92 -16.5q-61 0 -99.5 35.5t-54.5 90.5t-9 115q6 41 22 76q18 44 50.5 81t75 59t92.5 22q55 -1 94 -32t58 -80t12 -104q-2 -6 -3.5 -13t-2.5 -13h-388q-5 -56 9.5 -108t50 -85.5
t93.5 -33.5q50 -1 87.5 16t65.5 43t51 53zM302 459q-57 0 -105.5 -29.5t-81.5 -80t-43 -111.5h380q11 53 -3.5 103.5t-52 84t-94.5 33.5z" />
    <glyph glyph-name="edieresis" unicode="&#xeb;" horiz-adv-x="487" 
d="M394 541q1 11 12 11t10 -11q-1 -5 -5 -8t-8 -3q-10 0 -9 11zM200 541q1 11 12 11t10 -11q-1 -5 -5 -8t-8 -3q-10 0 -9 11zM436 106q-23 -27 -51.5 -54t-67.5 -44.5t-92 -16.5q-61 0 -99.5 35.5t-54.5 90.5t-9 115q6 41 22 76q18 44 50.5 81t75 59t92.5 22q55 -1 94 -32
t58 -80t12 -104q-2 -6 -3.5 -13t-2.5 -13h-388q-5 -56 9.5 -108t50 -85.5t93.5 -33.5q50 -1 87.5 16t65.5 43t51 53zM302 459q-57 0 -105.5 -29.5t-81.5 -80t-43 -111.5h380q11 53 -3.5 103.5t-52 84t-94.5 33.5z" />
    <glyph glyph-name="igrave" unicode="&#xec;" horiz-adv-x="184" 
d="M32 687l9 8l138 -160l-6 -4zM140 460h9l-79 -460h-10z" />
    <glyph glyph-name="iacute" unicode="&#xed;" horiz-adv-x="184" 
d="M334 686l-195 -155l-5 5l193 158zM140 460h9l-79 -460h-10z" />
    <glyph glyph-name="icircumflex" unicode="&#xee;" horiz-adv-x="184" 
d="M179 665l-172 -134l-6 7l180 139l132 -140l-8 -7zM140 460h9l-79 -460h-10z" />
    <glyph glyph-name="idieresis" unicode="&#xef;" horiz-adv-x="184" 
d="M225 541q1 11 12 11q10 0 9 -11q0 -4 -4 -7.5t-8 -3.5q-10 0 -9 11zM69 541q0 4 4 7.5t9 3.5q9 0 9 -11q-1 -4 -5 -7.5t-8 -3.5q-10 0 -9 11zM140 460h9l-79 -460h-10z" />
    <glyph glyph-name="eth" unicode="&#xf0;" horiz-adv-x="520" 
d="M212 575l2 10h125l-58 115h11l58 -115h126l-2 -10h-119l100 -196q16 -33 25 -75.5t3 -83.5q-10 -63 -44 -115.5t-87 -83.5t-120 -30q-66 0 -108 32.5t-58.5 84.5t-6.5 113q9 57 43 106t85 79.5t110 30.5q51 0 91 -22t68 -60v0l-112 220h-132zM473 220q8 53 -10 100
t-60.5 77t-106.5 30q-54 -1 -103 -29.5t-82 -75.5t-42 -102q-9 -56 7 -106.5t55.5 -81.5t101.5 -31q63 -1 114 30t83.5 81t42.5 108z" />
    <glyph glyph-name="ntilde" unicode="&#xf1;" horiz-adv-x="460" 
d="M176 552q7 21 23 39t47 18q24 0 40 -12t32.5 -23.5t40.5 -10.5q21 0 35.5 13.5t27.5 33.5l9 -3q-14 -23 -32 -37.5t-42 -14.5q-23 0 -40 11t-32.5 22.5t-36.5 12.5q-28 0 -42.5 -16t-20.5 -34zM146 460l-23 -130q23 58 70 99t110 41q46 -1 70.5 -22t32 -54.5t2.5 -73.5
l-56 -320h-10l56 320q4 36 -2 68t-28 51.5t-65 20.5q-46 0 -83.5 -23.5t-63.5 -61t-39 -79.5l-51 -296h-10l80 460h10z" />
    <glyph glyph-name="ograve" unicode="&#xf2;" horiz-adv-x="539" 
d="M228 687l9 8l138 -160l-4 -4zM56 230q10 66 47.5 120.5t94.5 87t124 32.5q66 -1 111 -34.5t65 -88t11 -117.5q-11 -65 -49 -120t-94.5 -87.5t-123.5 -31.5q-67 0 -111.5 33.5t-64.5 88.5t-10 117zM66 230q-9 -60 9.5 -112.5t61 -84.5t105.5 -32q64 -1 118.5 30.5
t91.5 83.5t47 115q9 60 -10 112.5t-61.5 84.5t-105.5 33q-64 0 -118.5 -31.5t-91 -83.5t-46.5 -115z" />
    <glyph glyph-name="oacute" unicode="&#xf3;" horiz-adv-x="539" 
d="M493 686l-197 -155l-3 5l193 158zM56 230q10 66 47.5 120.5t94.5 87t124 32.5q66 -1 111 -34.5t65 -88t11 -117.5q-11 -65 -49 -120t-94.5 -87.5t-123.5 -31.5q-67 0 -111.5 33.5t-64.5 88.5t-10 117zM66 230q-9 -60 9.5 -112.5t61 -84.5t105.5 -32q64 -1 118.5 30.5
t91.5 83.5t47 115q9 60 -10 112.5t-61.5 84.5t-105.5 33q-64 0 -118.5 -31.5t-91 -83.5t-46.5 -115z" />
    <glyph glyph-name="ocircumflex" unicode="&#xf4;" horiz-adv-x="539" 
d="M360 685l-172 -134l-6 7l180 139l132 -140l-8 -7zM56 230q10 66 47.5 120.5t94.5 87t124 32.5q66 -1 111 -34.5t65 -88t11 -117.5q-11 -65 -49 -120t-94.5 -87.5t-123.5 -31.5q-67 0 -111.5 33.5t-64.5 88.5t-10 117zM66 230q-9 -60 9.5 -112.5t61 -84.5t105.5 -32
q64 -1 118.5 30.5t91.5 83.5t47 115q9 60 -10 112.5t-61.5 84.5t-105.5 33q-64 0 -118.5 -31.5t-91 -83.5t-46.5 -115z" />
    <glyph glyph-name="otilde" unicode="&#xf5;" horiz-adv-x="539" 
d="M214 552q-4 13 7.5 26t29.5 22t33 9q24 0 40 -12t32.5 -23.5t40.5 -10.5q21 0 35.5 13.5t27.5 33.5l9 -3q-14 -23 -31.5 -37.5t-41.5 -14.5q-23 0 -40 11.5t-33 23t-37 11.5q-28 -1 -42 -16.5t-20 -33.5zM56 230q10 66 47.5 120.5t94.5 87t124 32.5q66 -1 111 -34.5
t65 -88t11 -117.5q-11 -65 -49 -120t-94.5 -87.5t-123.5 -31.5q-67 0 -111.5 33.5t-64.5 88.5t-10 117zM66 230q-9 -60 9.5 -112.5t61 -84.5t105.5 -32q64 -1 118.5 30.5t91.5 83.5t47 115q9 60 -10 112.5t-61.5 84.5t-105.5 33q-64 0 -118.5 -31.5t-91 -83.5t-46.5 -115z
" />
    <glyph glyph-name="odieresis" unicode="&#xf6;" horiz-adv-x="539" 
d="M425 561q0 4 4 7.5t8 3.5q10 0 9 -11t-12 -11q-10 0 -9 11zM231 561q0 4 4 7.5t8 3.5q10 0 9 -11q0 -4 -4 -7.5t-8 -3.5q-10 0 -9 11zM56 230q10 66 47.5 120.5t94.5 87t124 32.5q66 -1 111 -34.5t65 -88t11 -117.5q-11 -65 -49 -120t-94.5 -87.5t-123.5 -31.5
q-67 0 -111.5 33.5t-64.5 88.5t-10 117zM66 230q-9 -60 9.5 -112.5t61 -84.5t105.5 -32q64 -1 118.5 30.5t91.5 83.5t47 115q9 60 -10 112.5t-61.5 84.5t-105.5 33q-64 0 -118.5 -31.5t-91 -83.5t-46.5 -115z" />
    <glyph glyph-name="divide" unicode="&#xf7;" horiz-adv-x="604" 
d="M340 451q0 4 4 7.5t9 3.5q9 0 9 -11q-1 -4 -5 -7.5t-8 -3.5q-10 0 -9 11zM71 235l2 10h485l-1 -10h-486zM268 31q0 4 4 7.5t9 3.5q10 0 9 -11q0 -4 -4 -7.5t-8 -3.5q-11 0 -10 11z" />
    <glyph glyph-name="oslash" unicode="&#xf8;" horiz-adv-x="529" 
d="M56 230q10 66 47.5 120.5t94.5 87t124 31.5q37 0 67.5 -11t53.5 -31l59 66l8 -7l-59 -66q35 -33 50.5 -83.5t7.5 -106.5q-11 -65 -49 -120t-94.5 -87.5t-123.5 -31.5q-41 0 -74 13.5t-57 36.5l-70 -77l-8 6l71 79q-31 34 -43.5 81.5t-4.5 99.5zM66 230q-8 -50 4 -95.5
t41 -77.5l325 363q-22 18 -50.5 28.5t-63.5 11.5q-64 0 -118.5 -31.5t-91 -83.5t-46.5 -115zM498 230q9 54 -5.5 102t-48.5 81l-326 -364q23 -22 54 -35t70 -13q64 -1 118.5 30.5t91.5 83.5t46 115z" />
    <glyph glyph-name="ugrave" unicode="&#xf9;" horiz-adv-x="460" 
d="M171 697l9 8l139 -160l-6 -4zM91 150q-5 -39 0 -73t27 -55t66 -22q46 0 83.5 24t64 62.5t38.5 80.5l51 293h10l-80 -460h-10l22 130q-23 -58 -70 -99t-110 -40q-47 0 -71 22t-30.5 58.5t-0.5 78.5l54 310h10z" />
    <glyph glyph-name="uacute" unicode="&#xfa;" horiz-adv-x="460" 
d="M474 696l-195 -155l-5 5l193 158zM91 150q-5 -39 0 -73t27 -55t66 -22q46 0 83.5 24t64 62.5t38.5 80.5l51 293h10l-80 -460h-10l22 130q-23 -58 -70 -99t-110 -40q-47 0 -71 22t-30.5 58.5t-0.5 78.5l54 310h10z" />
    <glyph glyph-name="ucircumflex" unicode="&#xfb;" horiz-adv-x="460" 
d="M320 675l-173 -134l-5 7l179 139l132 -140l-9 -7zM91 150q-5 -39 0 -73t27 -55t66 -22q46 0 83.5 24t64 62.5t38.5 80.5l51 293h10l-80 -460h-10l22 130q-23 -58 -70 -99t-110 -40q-47 0 -71 22t-30.5 58.5t-0.5 78.5l54 310h10z" />
    <glyph glyph-name="udieresis" unicode="&#xfc;" horiz-adv-x="460" 
d="M366 562q0 4 4.5 7t8.5 3q9 -1 8 -11q-1 -11 -11 -11q-11 0 -10 12zM210 562q0 4 4.5 7t9.5 3q9 -1 8 -11q-1 -11 -11 -11q-5 0 -8 3.5t-3 8.5zM91 150q-5 -39 0 -73t27 -55t66 -22q46 0 83.5 24t64 62.5t38.5 80.5l51 293h10l-80 -460h-10l22 130q-23 -58 -70 -99
t-110 -40q-47 0 -71 22t-30.5 58.5t-0.5 78.5l54 310h10z" />
    <glyph glyph-name="yacute" unicode="&#xfd;" horiz-adv-x="412" 
d="M448 686l-195 -155l-5 5l193 158zM455 460l-408 -679h-11l144 239v1v1l-119 438h12l114 -427l257 427h11z" />
    <glyph glyph-name="thorn" unicode="&#xfe;" 
d="M23 -219h-9l171 999h10l-85 -494q17 48 48.5 90t74.5 67.5t95 26.5q63 0 103 -34t56.5 -89t7.5 -117q-10 -66 -44.5 -120.5t-87 -87t-115.5 -31.5q-54 0 -88 28.5t-50.5 72.5t-16.5 92zM485 230q8 60 -7.5 112.5t-53.5 85t-99 32.5q-43 -1 -81 -21t-68 -53t-49.5 -74
t-25.5 -82q-6 -38 0 -78t23.5 -74t47.5 -55.5t73 -21.5q61 -2 112 29.5t85 84t43 115.5z" />
    <glyph glyph-name="ydieresis" unicode="&#xff;" horiz-adv-x="412" 
d="M342 561q1 11 12 11q10 0 10 -11q-1 -5 -5 -8t-8 -3q-10 1 -9 11zM187 561q1 11 12 11q10 0 10 -11q-1 -5 -5.5 -8t-8.5 -3q-9 1 -8 11zM455 460l-408 -679h-11l144 239v1v1l-119 438h12l114 -427l257 427h11z" />
    <glyph glyph-name="Amacron" unicode="&#x100;" horiz-adv-x="582" 
d="M231 795l2 10h340l-2 -10h-340zM530 0l-57 272h-322l-151 -272h-12l157 281v1v0l243 433l154 -715h-12zM384 688l-228 -406h315z" />
    <glyph glyph-name="amacron" unicode="&#x101;" 
d="M147 550l2 10h340l-2 -10h-340zM56 230q9 66 44 120.5t87.5 87t115.5 32.5q53 -1 87 -29.5t50.5 -72t17.5 -91.5l32 183h10l-80 -460h-10l30 172q-18 -48 -49 -89t-74 -66.5t-95 -25.5q-63 -1 -103 33t-56 89t-7 117zM66 230q-9 -59 6.5 -112t54 -85.5t99.5 -32.5
q55 1 101 33t77.5 81.5t43.5 102.5l3 18q4 38 -2.5 77.5t-24.5 72.5t-47.5 53.5t-71.5 21.5q-61 1 -111.5 -30.5t-84.5 -84t-43 -115.5z" />
    <glyph glyph-name="Abreve" unicode="&#x102;" horiz-adv-x="582" 
d="M270 925h10q-5 -51 25.5 -90t94.5 -39q44 -1 78 17.5t56.5 48t32.5 62.5h10q-10 -36 -33 -67.5t-59.5 -51.5t-84.5 -19q-48 0 -78 19.5t-43 51.5t-9 68zM530 0l-57 272h-322l-151 -272h-12l157 281v1v0l243 433l154 -715h-12zM384 688l-228 -406h315z" />
    <glyph glyph-name="abreve" unicode="&#x103;" 
d="M188 690h10q-5 -51 25.5 -90t94.5 -39q44 -1 78 17.5t57 48t33 62.5h10q-10 -36 -33.5 -67.5t-60 -51.5t-84.5 -19q-48 0 -78 19.5t-42.5 51.5t-9.5 68zM56 230q9 66 44 120.5t87.5 87t115.5 32.5q53 -1 87 -29.5t50.5 -72t17.5 -91.5l32 183h10l-80 -460h-10l30 172
q-18 -48 -49 -89t-74 -66.5t-95 -25.5q-63 -1 -103 33t-56 89t-7 117zM66 230q-9 -59 6.5 -112t54 -85.5t99.5 -32.5q55 1 101 33t77.5 81.5t43.5 102.5l3 18q4 38 -2.5 77.5t-24.5 72.5t-47.5 53.5t-71.5 21.5q-61 1 -111.5 -30.5t-84.5 -84t-43 -115.5z" />
    <glyph glyph-name="Aogonek" unicode="&#x104;" horiz-adv-x="582" 
d="M545 -173l6 -8q-18 -15 -44.5 -27t-57.5 -11q-42 0 -67 21t-20 59q5 35 32 62t64 47t70 36l-55 266h-322l-151 -272h-12l400 715l153 -714l1 -1q-32 -15 -70 -35t-66.5 -46t-33.5 -59q-4 -34 20 -51.5t58 -17.5q29 -1 53.5 10.5t41.5 25.5zM384 688l-228 -406h315z" />
    <glyph glyph-name="aogonek" unicode="&#x105;" 
d="M56 230q9 66 44 120.5t87.5 87t115.5 32.5q53 -1 87 -29.5t50.5 -72t17.5 -91.5l32 183h10l-80 -458l1 -2q-32 -15 -70 -35t-66.5 -46t-33.5 -59q-5 -34 19.5 -51.5t58.5 -17.5q28 -1 53 10.5t42 25.5l6 -8q-18 -15 -45 -27t-57 -11q-42 0 -67.5 21t-19.5 59q5 37 34 64
t66.5 47t69.5 35l29 165q-18 -48 -49 -89t-74 -66.5t-95 -25.5q-63 -1 -103 33t-56 89t-7 117zM66 230q-9 -59 6.5 -112t54 -85.5t99.5 -32.5q55 1 101 33t77.5 81.5t43.5 102.5l3 18q4 38 -2.5 77.5t-24.5 72.5t-47.5 53.5t-71.5 21.5q-61 1 -111.5 -30.5t-84.5 -84
t-43 -115.5z" />
    <glyph glyph-name="Cacute" unicode="&#x106;" horiz-adv-x="664" 
d="M632 924l-196 -155l-4 5l194 158zM93 350q-10 -66 1 -127.5t42.5 -110.5t83 -78t122.5 -29q71 -1 127.5 21t106.5 61l-3 -15q-50 -37 -105.5 -58.5t-126.5 -20.5q-73 0 -127 29.5t-87 80t-44.5 114.5t-1.5 133q11 73 44 138t83.5 114t115 77.5t138.5 28.5q66 0 115 -20
t91 -59l-3 -15q-39 42 -90 62t-114 20q-72 0 -134 -27.5t-110.5 -75t-80.5 -110t-43 -133.5z" />
    <glyph glyph-name="cacute" unicode="&#x107;" horiz-adv-x="473" 
d="M498 696l-194 -155l-6 5l194 158zM61 230q-9 -60 9.5 -112t61.5 -84.5t106 -32.5q50 0 92 19t69 40l-2 -12q-27 -22 -69 -39.5t-91 -17.5q-67 0 -111.5 33.5t-64.5 88.5t-10 117q10 66 48 120.5t94.5 87t124.5 32.5q46 0 83 -17.5t58 -40.5l-2 -12q-20 23 -56.5 41.5
t-83.5 18.5q-64 0 -118.5 -31.5t-91 -83.5t-46.5 -115z" />
    <glyph glyph-name="Ccircumflex" unicode="&#x108;" horiz-adv-x="664" 
d="M497 903l-173 -134l-6 7l180 139l132 -140l-8 -7zM93 350q-10 -66 1 -127.5t42.5 -110.5t83 -78t122.5 -29q71 -1 127.5 21t106.5 61l-3 -15q-50 -37 -105.5 -58.5t-126.5 -20.5q-73 0 -127 29.5t-87 80t-44.5 114.5t-1.5 133q11 73 44 138t83.5 114t115 77.5t138.5 28.5
q66 0 115 -20t91 -59l-3 -15q-39 42 -90 62t-114 20q-72 0 -134 -27.5t-110.5 -75t-80.5 -110t-43 -133.5z" />
    <glyph glyph-name="ccircumflex" unicode="&#x109;" horiz-adv-x="473" 
d="M352 665l-172 -134l-6 7l179 139l132 -140l-7 -7zM61 230q-9 -60 9.5 -112t61.5 -84.5t106 -32.5q50 0 92 19t69 40l-2 -12q-27 -22 -69 -39.5t-91 -17.5q-67 0 -111.5 33.5t-64.5 88.5t-10 117q10 66 48 120.5t94.5 87t124.5 32.5q46 0 83 -17.5t58 -40.5l-2 -12
q-20 23 -56.5 41.5t-83.5 18.5q-64 0 -118.5 -31.5t-91 -83.5t-46.5 -115z" />
    <glyph glyph-name="Cdotaccent" unicode="&#x10a;" horiz-adv-x="664" 
d="M466 789q0 4 4 7.5t8 3.5q10 0 9 -11q0 -4 -4 -7.5t-8 -3.5q-10 0 -9 11zM93 350q-10 -66 1 -127.5t42.5 -110.5t83 -78t122.5 -29q71 -1 127.5 21t106.5 61l-3 -15q-50 -37 -105.5 -58.5t-126.5 -20.5q-73 0 -127 29.5t-87 80t-44.5 114.5t-1.5 133q11 73 44 138
t83.5 114t115 77.5t138.5 28.5q66 0 115 -20t91 -59l-3 -15q-39 42 -90 62t-114 20q-72 0 -134 -27.5t-110.5 -75t-80.5 -110t-43 -133.5z" />
    <glyph glyph-name="cdotaccent" unicode="&#x10b;" horiz-adv-x="473" 
d="M321 551q0 4 4 7.5t9 3.5q9 0 9 -11q-1 -4 -5 -7.5t-8 -3.5q-10 0 -9 11zM61 230q-9 -60 9.5 -112t61.5 -84.5t106 -32.5q50 0 92 19t69 40l-2 -12q-27 -22 -69 -39.5t-91 -17.5q-67 0 -111.5 33.5t-64.5 88.5t-10 117q10 66 48 120.5t94.5 87t124.5 32.5q46 0 83 -17.5
t58 -40.5l-2 -12q-20 23 -56.5 41.5t-83.5 18.5q-64 0 -118.5 -31.5t-91 -83.5t-46.5 -115z" />
    <glyph glyph-name="Ccaron" unicode="&#x10c;" horiz-adv-x="664" 
d="M476 791l172 134l6 -8l-179 -138l-132 139l9 8zM93 350q-10 -66 1 -127.5t42.5 -110.5t83 -78t122.5 -29q71 -1 127.5 21t106.5 61l-3 -15q-50 -37 -105.5 -58.5t-126.5 -20.5q-73 0 -127 29.5t-87 80t-44.5 114.5t-1.5 133q11 73 44 138t83.5 114t115 77.5t138.5 28.5
q66 0 115 -20t91 -59l-3 -15q-39 42 -90 62t-114 20q-72 0 -134 -27.5t-110.5 -75t-80.5 -110t-43 -133.5z" />
    <glyph glyph-name="ccaron" unicode="&#x10d;" horiz-adv-x="473" 
d="M333 563l172 134l7 -8l-180 -138l-132 139l9 8zM61 230q-9 -60 9.5 -112t61.5 -84.5t106 -32.5q50 0 92 19t69 40l-2 -12q-27 -22 -69 -39.5t-91 -17.5q-67 0 -111.5 33.5t-64.5 88.5t-10 117q10 66 48 120.5t94.5 87t124.5 32.5q46 0 83 -17.5t58 -40.5l-2 -12
q-20 23 -56.5 41.5t-83.5 18.5q-64 0 -118.5 -31.5t-91 -83.5t-46.5 -115z" />
    <glyph glyph-name="Dcaron" unicode="&#x10e;" horiz-adv-x="616" 
d="M419 811l172 134l7 -8l-180 -138l-132 139l9 8zM216 0h-156l120 700h4h1h150q100 -2 164 -50t90 -127t12 -173q-16 -99 -68.5 -177.5t-133.5 -124.5t-183 -48zM334 689h-145l-117 -678h145q100 2 178 46t128.5 120.5t66.5 172.5q14 92 -10.5 168t-86 122.5t-159.5 48.5z
" />
    <glyph glyph-name="dcaron" unicode="&#x10f;" horiz-adv-x="553" 
d="M56 230q9 66 44 120.5t87.5 87t115.5 32.5q53 -1 87 -29t50.5 -71.5t17.5 -90.5l86 501h10l-134 -780h-10l29 171q-17 -47 -48.5 -88.5t-74 -66.5t-94.5 -25q-63 -1 -103 33t-56 89t-7 117zM740 763l10 -5l-151 -248l-6 2zM66 230q-9 -59 6.5 -112t54 -85.5t99.5 -31.5
q54 0 99.5 31t77 79.5t43.5 100.5l5 28q4 38 -3 76t-25 70.5t-47.5 52.5t-70.5 21q-61 1 -111.5 -30.5t-84.5 -84t-43 -115.5z" />
    <glyph glyph-name="Dcroat" unicode="&#x110;" horiz-adv-x="659" 
d="M217 0h-156l59 345h-82l1 10h83l59 345h4h1h150q100 -2 164 -50t90 -127t12 -173q-16 -99 -68.5 -177.5t-133.5 -124.5t-183 -48zM329 345h-198l-58 -334h145q99 2 177.5 46.5t129 120.5t66.5 172q14 91 -11 167.5t-86.5 123t-158.5 48.5h-145l-57 -334h198z" />
    <glyph glyph-name="dcroat" unicode="&#x111;" 
d="M56 230q9 67 44 121.5t87.5 86.5t115.5 32q52 -1 85.5 -28.5t51 -71t18.5 -92.5l65 377h-152l2 10h151l20 115h10l-20 -115h130l-2 -10h-129l-113 -655h-10l29 169q-18 -48 -50 -88.5t-74.5 -65t-92.5 -24.5q-63 -1 -103 33t-56 88.5t-7 117.5zM66 230q-9 -59 6.5 -112
t54 -85.5t99.5 -31.5q55 0 101 32.5t77 81.5t43 100l4 26q4 36 -2.5 73.5t-24.5 70.5t-47.5 53.5t-71.5 21.5q-60 1 -111 -30.5t-85 -84t-43 -115.5z" />
    <glyph glyph-name="Emacron" unicode="&#x112;" horiz-adv-x="494" 
d="M217 835l2 10h340l-2 -10h-340zM180 700h1h1h328l-2 -10h-319l-51 -296h300l-1 -10h-300l-65 -374h320l-1 -10h-331z" />
    <glyph glyph-name="emacron" unicode="&#x113;" horiz-adv-x="487" 
d="M137 530l2 10h339l-1 -10h-340zM436 106q-23 -27 -51.5 -54t-67.5 -44.5t-92 -16.5q-61 0 -99.5 35.5t-54.5 90.5t-9 115q6 41 22 76q18 44 50.5 81t75 59t92.5 22q55 -1 94 -32t58 -80t12 -104q-2 -6 -3.5 -13t-2.5 -13h-388q-5 -56 9.5 -108t50 -85.5t93.5 -33.5
q50 -1 87.5 16t65.5 43t51 53zM302 459q-57 0 -105.5 -29.5t-81.5 -80t-43 -111.5h380q11 53 -3.5 103.5t-52 84t-94.5 33.5z" />
    <glyph glyph-name="Ebreve" unicode="&#x114;" horiz-adv-x="494" 
d="M237 908h10q-5 -51 25.5 -90t94.5 -39q44 -1 78 17.5t56.5 48t32.5 62.5h10q-10 -36 -33 -67.5t-59.5 -51.5t-84.5 -19q-48 0 -78 19.5t-43 51.5t-9 68zM180 700h1h1h328l-2 -10h-319l-51 -296h300l-1 -10h-300l-65 -374h320l-1 -10h-331z" />
    <glyph glyph-name="ebreve" unicode="&#x115;" horiz-adv-x="487" 
d="M165 669h10q-4 -51 27.5 -90t95.5 -39q44 -1 77.5 17.5t56 48t31.5 63.5l10 -1q-10 -36 -32.5 -67.5t-58.5 -51t-85 -19.5q-47 0 -77.5 19.5t-43.5 51.5t-11 68zM436 106q-23 -27 -51.5 -54t-67.5 -44.5t-92 -16.5q-61 0 -99.5 35.5t-54.5 90.5t-9 115q6 41 22 76
q18 44 50.5 81t75 59t92.5 22q55 -1 94 -32t58 -80t12 -104q-2 -6 -3.5 -13t-2.5 -13h-388q-5 -56 9.5 -108t50 -85.5t93.5 -33.5q50 -1 87.5 16t65.5 43t51 53zM302 459q-57 0 -105.5 -29.5t-81.5 -80t-43 -111.5h380q11 53 -3.5 103.5t-52 84t-94.5 33.5z" />
    <glyph glyph-name="Edotaccent" unicode="&#x116;" horiz-adv-x="494" 
d="M348 779q0 4 4 7.5t8 3.5q10 0 9 -11q0 -4 -4 -7.5t-8 -3.5q-10 0 -9 11zM180 700h1h1h328l-2 -10h-319l-51 -296h300l-1 -10h-300l-65 -374h320l-1 -10h-331z" />
    <glyph glyph-name="edotaccent" unicode="&#x117;" horiz-adv-x="487" 
d="M297 541q1 4 5 7.5t8 3.5q10 0 9 -11t-12 -11t-10 11zM436 106q-23 -27 -51.5 -54t-67.5 -44.5t-92 -16.5q-61 0 -99.5 35.5t-54.5 90.5t-9 115q6 41 22 76q18 44 50.5 81t75 59t92.5 22q55 -1 94 -32t58 -80t12 -104q-2 -6 -3.5 -13t-2.5 -13h-388q-5 -56 9.5 -108
t50 -85.5t93.5 -33.5q50 -1 87.5 16t65.5 43t51 53zM302 459q-57 0 -105.5 -29.5t-81.5 -80t-43 -111.5h380q11 53 -3.5 103.5t-52 84t-94.5 33.5z" />
    <glyph glyph-name="Eogonek" unicode="&#x118;" horiz-adv-x="494" 
d="M394 -173l6 -8q-18 -15 -45 -27t-57 -11q-42 0 -67.5 21t-19.5 58q4 34 29 59.5t58.5 45t66.5 35.5h-305l120 700h1h1h328l-2 -10h-319l-51 -296h300l-1 -10h-300l-65 -374h320l-1 -10q-33 -15 -70.5 -35t-66 -46t-33.5 -59q-5 -34 19.5 -51.5t58.5 -17.5q28 -1 53 10.5
t42 25.5z" />
    <glyph glyph-name="eogonek" unicode="&#x119;" horiz-adv-x="487" 
d="M238 -177l5 -7q-18 -15 -44 -27t-57 -12q-42 0 -67 21.5t-21 58.5q4 34 28.5 58.5t58 42.5t66.5 34q-55 5 -89.5 41t-48.5 89t-7 110q6 41 22 76q18 44 50.5 81t75 59t92.5 22q55 -1 94 -32t58 -80t12 -104q-2 -6 -3.5 -13t-2.5 -13h-388q-5 -56 9.5 -108t50 -85.5
t93.5 -33.5q50 -1 87.5 16t65.5 43t51 53l7 -7q-22 -27 -50 -53t-66 -44t-90 -18q-32 -16 -69 -34t-65 -42.5t-32 -57.5q-4 -34 20.5 -52t58.5 -18q28 0 53 11.5t42 24.5zM302 459q-57 0 -105.5 -29.5t-81.5 -80t-43 -111.5h380q11 53 -3.5 103.5t-52 84t-94.5 33.5z" />
    <glyph glyph-name="Ecaron" unicode="&#x11a;" horiz-adv-x="494" 
d="M358 781l171 134l7 -8l-179 -138l-132 139l9 8zM180 700h1h1h328l-2 -10h-319l-51 -296h300l-1 -10h-300l-65 -374h320l-1 -10h-331z" />
    <glyph glyph-name="ecaron" unicode="&#x11b;" horiz-adv-x="487" 
d="M297 542l171 134l7 -8l-179 -138l-133 139l9 8zM436 106q-23 -27 -51.5 -54t-67.5 -44.5t-92 -16.5q-61 0 -99.5 35.5t-54.5 90.5t-9 115q6 41 22 76q18 44 50.5 81t75 59t92.5 22q55 -1 94 -32t58 -80t12 -104q-2 -6 -3.5 -13t-2.5 -13h-388q-5 -56 9.5 -108t50 -85.5
t93.5 -33.5q50 -1 87.5 16t65.5 43t51 53zM302 459q-57 0 -105.5 -29.5t-81.5 -80t-43 -111.5h380q11 53 -3.5 103.5t-52 84t-94.5 33.5z" />
    <glyph glyph-name="Gcircumflex" unicode="&#x11c;" horiz-adv-x="742" 
d="M506 903l-172 -134l-6 7l179 139l133 -140l-8 -7zM437 330l2 10h281q-13 -67 -44.5 -129t-79.5 -111.5t-110 -78t-135 -28.5q-74 0 -129 29t-90 79.5t-48 114.5t-3 134q11 74 45.5 138.5t86.5 114t118 77.5t141 28q87 0 147.5 -42t97.5 -110l-11 -6q-30 66 -91 106.5
t-144 40.5q-73 0 -137 -27t-114 -75t-83.5 -111t-44.5 -134q-10 -67 2 -129t45.5 -111t86.5 -77.5t126 -28.5q70 0 129 26.5t105 73t77 105t45 121.5h-271z" />
    <glyph glyph-name="gcircumflex" unicode="&#x11d;" 
d="M339 665l-173 -134l-6 7l180 139l132 -140l-8 -7zM28 -30h10q-6 -51 7 -94t47 -69t89 -26q59 -1 108 28.5t81.5 82t42.5 118.5l28 163q-17 -48 -48.5 -89.5t-74.5 -67t-95 -25.5q-63 -1 -103 33t-56 89t-7 117q9 66 44 120.5t87.5 87t115.5 32.5q53 -1 87 -29.5
t50.5 -72.5t17.5 -91l32 183h10l-77 -450q-11 -69 -45 -123t-85 -85.5t-114 -30.5q-58 0 -94 27.5t-50 73t-8 98.5zM67 230q-9 -60 6.5 -112.5t54 -85t99.5 -31.5q43 0 81 20t68 54t49.5 75.5t26.5 84.5q5 36 -1.5 75t-24.5 72.5t-48 55t-72 22.5q-61 1 -111.5 -30.5
t-84.5 -84t-43 -115.5z" />
    <glyph glyph-name="Gbreve" unicode="&#x11e;" horiz-adv-x="742" 
d="M353 908h10q-4 -51 26 -90t95 -39q44 -1 78 17.5t56.5 48t32.5 62.5h10q-10 -36 -33.5 -67.5t-59.5 -51.5t-85 -19q-48 0 -78 19.5t-42.5 51.5t-9.5 68zM437 330l2 10h281q-13 -67 -44.5 -129t-79.5 -111.5t-110 -78t-135 -28.5q-74 0 -129 29t-90 79.5t-48 114.5t-3 134
q11 74 45.5 138.5t86.5 114t118 77.5t141 28q87 0 147.5 -42t97.5 -110l-11 -6q-30 66 -91 106.5t-144 40.5q-73 0 -137 -27t-114 -75t-83.5 -111t-44.5 -134q-10 -67 2 -129t45.5 -111t86.5 -77.5t126 -28.5q70 0 129 26.5t105 73t77 105t45 121.5h-271z" />
    <glyph glyph-name="gbreve" unicode="&#x11f;" 
d="M186 670h9q-4 -51 26 -90t95 -39q44 -1 78 17.5t56.5 48t32.5 62.5h10q-10 -36 -33.5 -67.5t-59.5 -51.5t-85 -19q-48 0 -77.5 19.5t-42.5 51.5t-9 68zM28 -30h10q-6 -51 7 -94t47 -69t89 -26q59 -1 108 28.5t81.5 82t42.5 118.5l28 163q-17 -48 -48.5 -89.5t-74.5 -67
t-95 -25.5q-63 -1 -103 33t-56 89t-7 117q9 66 44 120.5t87.5 87t115.5 32.5q53 -1 87 -29.5t50.5 -72.5t17.5 -91l32 183h10l-77 -450q-11 -69 -45 -123t-85 -85.5t-114 -30.5q-58 0 -94 27.5t-50 73t-8 98.5zM67 230q-9 -60 6.5 -112.5t54 -85t99.5 -31.5q43 0 81 20
t68 54t49.5 75.5t26.5 84.5q5 36 -1.5 75t-24.5 72.5t-48 55t-72 22.5q-61 1 -111.5 -30.5t-84.5 -84t-43 -115.5z" />
    <glyph glyph-name="Gdotaccent" unicode="&#x120;" horiz-adv-x="742" 
d="M474 779q0 4 4 7.5t8 3.5q10 0 9 -11q0 -4 -4 -7.5t-8 -3.5q-10 0 -9 11zM437 330l2 10h281q-13 -67 -44.5 -129t-79.5 -111.5t-110 -78t-135 -28.5q-74 0 -129 29t-90 79.5t-48 114.5t-3 134q11 74 45.5 138.5t86.5 114t118 77.5t141 28q87 0 147.5 -42t97.5 -110
l-11 -6q-30 66 -91 106.5t-144 40.5q-73 0 -137 -27t-114 -75t-83.5 -111t-44.5 -134q-10 -67 2 -129t45.5 -111t86.5 -77.5t126 -28.5q70 0 129 26.5t105 73t77 105t45 121.5h-271z" />
    <glyph glyph-name="gdotaccent" unicode="&#x121;" 
d="M306 541q0 4 4 7.5t9 3.5q9 0 9 -11q-1 -4 -5 -7.5t-8 -3.5q-10 0 -9 11zM28 -30h10q-6 -51 7 -94t47 -69t89 -26q59 -1 108 28.5t81.5 82t42.5 118.5l28 163q-17 -48 -48.5 -89.5t-74.5 -67t-95 -25.5q-63 -1 -103 33t-56 89t-7 117q9 66 44 120.5t87.5 87t115.5 32.5
q53 -1 87 -29.5t50.5 -72.5t17.5 -91l32 183h10l-77 -450q-11 -69 -45 -123t-85 -85.5t-114 -30.5q-58 0 -94 27.5t-50 73t-8 98.5zM67 230q-9 -60 6.5 -112.5t54 -85t99.5 -31.5q43 0 81 20t68 54t49.5 75.5t26.5 84.5q5 36 -1.5 75t-24.5 72.5t-48 55t-72 22.5
q-61 1 -111.5 -30.5t-84.5 -84t-43 -115.5z" />
    <glyph glyph-name="uni0122" unicode="&#x122;" horiz-adv-x="742" 
d="M437 330l2 10h281q-13 -67 -44.5 -129t-79.5 -111.5t-110 -78t-135 -28.5q-74 0 -129 29t-90 79.5t-48 114.5t-3 134q11 74 45.5 138.5t86.5 114t118 77.5t141 28q87 0 147.5 -42t97.5 -110l-11 -6q-30 66 -91 106.5t-144 40.5q-73 0 -137 -27t-114 -75t-83.5 -111
t-44.5 -134q-10 -67 2 -129t45.5 -111t86.5 -77.5t126 -28.5q70 0 129 26.5t105 73t77 105t45 121.5h-271zM386 -69l11 -5l-152 -248l-6 2z" />
    <glyph glyph-name="uni0123" unicode="&#x123;" horiz-adv-x="553" 
d="M491 802l9 -7l-183 -228l-6 3zM28 -30h10q-6 -51 7 -94t47 -69t89 -26q59 -1 108 28.5t81.5 82t42.5 118.5l28 163q-17 -48 -48.5 -89.5t-74.5 -67t-95 -25.5q-63 -1 -103 33t-56 89t-7 117q9 66 44 120.5t87.5 87t115.5 32.5q53 -1 87 -29.5t50.5 -72.5t17.5 -91l32 183
h10l-77 -450q-11 -69 -45 -123t-85 -85.5t-114 -30.5q-58 0 -94 27.5t-50 73t-8 98.5zM67 230q-9 -60 6.5 -112.5t54 -85t99.5 -31.5q43 0 81 20t68 54t49.5 75.5t26.5 84.5q5 36 -1.5 75t-24.5 72.5t-48 55t-72 22.5q-61 1 -111.5 -30.5t-84.5 -84t-43 -115.5z" />
    <glyph glyph-name="Hcircumflex" unicode="&#x124;" horiz-adv-x="627" 
d="M442 903l-173 -134l-5 7l179 139l133 -140l-9 -7zM180 700h11l-54 -313h432l54 313h11l-121 -700h-11l65 377h-432l-64 -377h-11z" />
    <glyph glyph-name="hcircumflex" unicode="&#x125;" horiz-adv-x="460" 
d="M236 975l-173 -134l-5 7l179 139l133 -140l-9 -7zM398 320q4 36 -2 68t-28 51.5t-65 20.5q-47 0 -84.5 -24.5t-64 -62.5t-38.5 -81l-50 -292h-10l134 780h10l-78 -452q23 59 70 100.5t111 41.5q46 -1 70.5 -22t32 -54.5t2.5 -73.5l-56 -320h-10z" />
    <glyph glyph-name="Hbar" unicode="&#x126;" horiz-adv-x="627" 
d="M81 605l2 10h82l15 85h11l-15 -85h432l15 85h11l-15 -85h82l-1 -10h-83l-104 -605h-11l65 377h-432l-64 -377h-11l104 605h-83zM137 387h432l37 218h-431z" />
    <glyph glyph-name="hbar" unicode="&#x127;" horiz-adv-x="509" 
d="M398 320q4 36 -2 68t-28 51.5t-65 20.5q-47 0 -84.5 -24.5t-64 -62.5t-38.5 -81l-50 -292h-10l119 690h-78l1 10h78l14 80h10l-14 -80h215l-1 -10h-215l-63 -362q23 59 70 100.5t111 41.5q46 -1 70.5 -22t32 -54.5t2.5 -73.5l-56 -320h-10z" />
    <glyph glyph-name="Itilde" unicode="&#x128;" horiz-adv-x="174" 
d="M91 832q7 21 23 39t47 18q24 0 40 -12t32.5 -23.5t40.5 -10.5q21 0 35.5 13.5t27.5 33.5l9 -3q-14 -23 -32 -37.5t-42 -14.5q-23 0 -40 11t-32.5 22.5t-36.5 12.5q-28 0 -42.5 -16t-20.5 -34zM177 700h10l-121 -700h-10z" />
    <glyph glyph-name="itilde" unicode="&#x129;" horiz-adv-x="184" 
d="M56 592q7 21 23 39t47 18q24 0 40 -12t32.5 -23.5t39.5 -10.5q22 0 36.5 13.5t27.5 33.5l8 -3q-14 -23 -31.5 -37.5t-41.5 -14.5q-23 0 -40 11t-32.5 22.5t-36.5 12.5q-28 0 -42.5 -16t-20.5 -34zM140 460h9l-79 -460h-10z" />
    <glyph glyph-name="Imacron" unicode="&#x12a;" horiz-adv-x="174" 
d="M66 835l2 10h340l-2 -10h-340zM177 700h10l-121 -700h-10z" />
    <glyph glyph-name="imacron" unicode="&#x12b;" horiz-adv-x="184" 
d="M32 595l2 10h339l-1 -10h-340zM141 460h9l-79 -460h-10z" />
    <glyph glyph-name="Ibreve" unicode="&#x12c;" horiz-adv-x="174" 
d="M62 910h9q-4 -51 26 -90t95 -39q44 -1 78 17.5t56.5 48t32.5 62.5h10q-10 -36 -33.5 -67.5t-59.5 -51.5t-85 -19q-48 0 -77.5 19.5t-42.5 51.5t-9 68zM177 700h10l-121 -700h-10z" />
    <glyph glyph-name="ibreve" unicode="&#x12d;" horiz-adv-x="184" 
d="M27 670h10q-4 -51 26 -90t95 -39q44 -1 78 17.5t56.5 48t32.5 62.5h10q-10 -36 -33.5 -67.5t-59.5 -51.5t-85 -19q-48 0 -78 19.5t-42.5 51.5t-9.5 68zM141 460h9l-79 -460h-10z" />
    <glyph glyph-name="Iogonek" unicode="&#x12e;" horiz-adv-x="174" 
d="M69 -173l6 -8q-18 -15 -45 -27t-57 -11q-42 0 -67.5 21t-19.5 59q5 37 33.5 64t66.5 47t70 35l120 693h10l-121 -699l1 -1q-33 -15 -71 -35t-66.5 -46t-33.5 -59q-4 -34 20.5 -51.5t58.5 -17.5q28 -1 53 10.5t42 25.5z" />
    <glyph glyph-name="iogonek" unicode="&#x12f;" horiz-adv-x="184" 
d="M174 695q1 10 11 10q9 0 9 -10q-1 -10 -12 -10q-9 0 -8 10zM74 -173l6 -8q-18 -15 -45 -27t-57 -11q-42 0 -67.5 21t-19.5 59q5 37 33.5 64t66.5 47t70 36l79 452h9l-79 -459l1 -1q-33 -15 -71 -35t-66.5 -46t-33.5 -59q-4 -34 20.5 -51.5t58.5 -17.5q28 -1 53 10.5
t42 25.5z" />
    <glyph glyph-name="Idotaccent" unicode="&#x130;" horiz-adv-x="174" 
d="M185 786q0 4 4 7.5t8 3.5q10 0 9 -11q0 -4 -4 -7.5t-8 -3.5q-10 0 -9 11zM177 700h10l-121 -700h-10z" />
    <glyph glyph-name="dotlessi" unicode="&#x131;" horiz-adv-x="184" 
d="M140 460h9l-79 -460h-10z" />
    <glyph glyph-name="IJ" unicode="&#x132;" horiz-adv-x="475" 
d="M66 -158q17 -20 42 -35t56 -15q68 -2 97.5 42.5t39.5 115.5l129 750h11l-130 -760q-11 -70 -44 -115.5t-103 -43.5q-36 0 -63.5 17.5t-42.5 36.5zM177 700h10l-121 -700h-10z" />
    <glyph glyph-name="ij" unicode="&#x133;" horiz-adv-x="494" 
d="M417 695q1 10 11 10q9 0 8 -10t-11 -10q-9 0 -8 10zM174 695q1 10 11 10q9 0 9 -10q-1 -10 -12 -10q-9 0 -8 10zM103 -165q9 -5 19 -15.5t22 -19.5t28 -9q37 -3 61 18t37.5 51.5t18.5 57.5l93 542h10l-93 -542q-6 -32 -21 -64.5t-41 -53.5t-66 -19q-29 0 -46.5 15
t-28.5 32zM140 460h9l-79 -460h-10z" />
    <glyph glyph-name="Jcircumflex" unicode="&#x134;" horiz-adv-x="191" 
d="M228 903l-174 -134l-4 7l179 139l132 -140l-9 -7zM-177 -158q18 -20 42.5 -35t55.5 -15q68 -2 97.5 42.5t40.5 115.5l128 750h11l-130 -760q-10 -70 -43 -115.5t-103 -43.5q-36 0 -64 17.5t-42 36.5z" />
    <glyph glyph-name="jcircumflex" unicode="&#x135;" horiz-adv-x="174" 
d="M170 665l-173 -134l-6 7l180 139l132 -140l-8 -7zM-149 -165q11 -16 27 -30t41 -14q38 -1 61.5 19t37 50t19.5 58l93 542h10l-93 -542q-6 -32 -21 -64.5t-41.5 -53.5t-66.5 -19q-28 0 -45.5 15t-29.5 32z" />
    <glyph glyph-name="uni0136" unicode="&#x136;" horiz-adv-x="440" 
d="M177 700h10l-56 -325l359 324h16l-363 -327l257 -372h-16l-254 370l-63 -370h-11zM264 -61l11 -5l-151 -248l-6 2z" />
    <glyph glyph-name="uni0137" unicode="&#x137;" horiz-adv-x="361" 
d="M370 459h16l-268 -189l207 -270h-14l-205 268l-46 -268h-10l134 780h10l-88 -508zM224 -61l10 -5l-151 -248l-6 2z" />
    <glyph glyph-name="kgreenlandic" unicode="&#x138;" horiz-adv-x="361" 
d="M130 460h10l-33 -187l263 186h16l-268 -189l207 -270h-14l-205 268l-46 -268h-10z" />
    <glyph glyph-name="Lacute" unicode="&#x139;" horiz-adv-x="417" 
d="M545 924l-197 -155l-3 5l193 158zM180 700h10l-118 -690h301l-2 -10h-311z" />
    <glyph glyph-name="lacute" unicode="&#x13a;" horiz-adv-x="174" 
d="M403 996l-197 -155l-3 5l193 158zM190 780h10l-134 -780h-10z" />
    <glyph glyph-name="uni013B" unicode="&#x13b;" horiz-adv-x="417" 
d="M180 700h10l-118 -690h301l-2 -10h-311zM213 -61l10 -5l-151 -248l-6 2z" />
    <glyph glyph-name="uni013C" unicode="&#x13c;" horiz-adv-x="174" 
d="M189 780h10l-134 -780h-10zM77 -61l10 -5l-151 -248l-6 2z" />
    <glyph glyph-name="Lcaron" unicode="&#x13d;" horiz-adv-x="417" 
d="M429 707l11 -5l-151 -248l-6 2zM180 700h10l-118 -690h301l-2 -10h-311z" />
    <glyph glyph-name="lcaron" unicode="&#x13e;" horiz-adv-x="223" 
d="M190 780h10l-134 -780h-10zM416 763l10 -5l-151 -248l-6 2z" />
    <glyph glyph-name="Ldot" unicode="&#x13f;" horiz-adv-x="417" 
d="M180 700h10l-118 -690h301l-2 -10h-311zM305 414q0 4 4 7.5t8 3.5q10 0 9 -11q0 -4 -4 -7.5t-8 -3.5q-10 0 -9 11z" />
    <glyph glyph-name="ldot" unicode="&#x140;" horiz-adv-x="359" 
d="M190 780h10l-134 -780h-10zM265 396q0 4 4 7.5t8 3.5q10 0 9 -11q0 -4 -4 -7.5t-8 -3.5q-10 0 -9 11z" />
    <glyph glyph-name="Lslash" unicode="&#x141;" horiz-adv-x="363" 
d="M30 388l-4 8l102 60l43 244h11l-41 -237l176 102l5 -9l-183 -106l-76 -440h266l-2 -10h-277l76 443z" />
    <glyph glyph-name="lslash" unicode="&#x142;" horiz-adv-x="155" 
d="M31 388l-6 8l101 75l54 309h9l-52 -301l89 65l6 -8l-97 -72l-80 -464h-10l79 456z" />
    <glyph glyph-name="Nacute" unicode="&#x143;" horiz-adv-x="645" 
d="M592 911l-196 -155l-4 5l194 158zM661 700h11l-123 -715l-399 693l-117 -678h-11l123 715l398 -698z" />
    <glyph glyph-name="nacute" unicode="&#x144;" horiz-adv-x="460" 
d="M465 696l-195 -155l-5 5l194 158zM146 460l-23 -130q23 58 70 99t110 41q46 -1 70.5 -22t32 -54.5t2.5 -73.5l-56 -320h-10l56 320q4 36 -2 68t-28 51.5t-65 20.5q-46 0 -83.5 -23.5t-63.5 -61t-39 -79.5l-51 -296h-10l80 460h10z" />
    <glyph glyph-name="uni0145" unicode="&#x145;" horiz-adv-x="645" 
d="M661 700h11l-123 -715l-399 693l-117 -678h-11l123 715l398 -698zM299 -46l10 -5l-151 -248l-6 2z" />
    <glyph glyph-name="uni0146" unicode="&#x146;" horiz-adv-x="460" 
d="M146 460l-23 -130q23 58 70 99t110 41q46 -1 70.5 -22t32 -54.5t2.5 -73.5l-56 -320h-10l56 320q4 36 -2 68t-28 51.5t-65 20.5q-46 0 -83.5 -23.5t-63.5 -61t-39 -79.5l-51 -296h-10l80 460h10zM214 -41l12 -5l-151 -248l-6 2z" />
    <glyph glyph-name="Ncaron" unicode="&#x147;" horiz-adv-x="645" 
d="M436 778l172 134l6 -8l-179 -138l-132 139l9 8zM661 700h11l-123 -715l-399 693l-117 -678h-11l123 715l398 -698z" />
    <glyph glyph-name="ncaron" unicode="&#x148;" horiz-adv-x="460" 
d="M297 543l172 134l6 -8l-179 -138l-132 139l9 8zM146 460l-23 -130q23 58 70 99t110 41q46 -1 70.5 -22t32 -54.5t2.5 -73.5l-56 -320h-10l56 320q4 36 -2 68t-28 51.5t-65 20.5q-46 0 -83.5 -23.5t-63.5 -61t-39 -79.5l-51 -296h-10l80 460h10z" />
    <glyph glyph-name="napostrophe" unicode="&#x149;" horiz-adv-x="596" 
d="M261 699h12l-133 -228h-10zM232 460l-23 -131q23 58 70 99.5t111 41.5q46 -1 70 -22t31.5 -54.5t2.5 -73.5l-56 -320h-10l56 320q5 36 -1.5 68t-28.5 51.5t-65 20.5q-46 0 -83.5 -24t-64 -62t-38.5 -80l-51 -294h-10l80 460h10z" />
    <glyph glyph-name="Omacron" unicode="&#x14c;" horiz-adv-x="751" 
d="M313 788l2 10h340l-2 -10h-340zM81 350q11 73 45 138t86 114.5t117 77.5t140 28q73 0 127.5 -29.5t89 -80t47.5 -114.5t3 -134q-12 -73 -46 -138t-85.5 -114.5t-117 -77.5t-139.5 -28q-73 0 -128 29.5t-89 80t-47 114.5t-3 134zM92 350q-10 -67 2 -129t44.5 -111
t85.5 -78t125 -29t135.5 27.5t113.5 75.5t82.5 110.5t44.5 133.5q9 67 -2.5 129t-44 111t-85.5 78t-125 29q-73 0 -136.5 -27.5t-113 -75.5t-82.5 -110.5t-44 -133.5z" />
    <glyph glyph-name="omacron" unicode="&#x14d;" horiz-adv-x="539" 
d="M167 550l2 10h339l-1 -10h-340zM56 230q10 66 47.5 120.5t94.5 87t124 32.5q66 -1 111 -34.5t65 -88t11 -117.5q-11 -65 -49 -120t-94.5 -87.5t-123.5 -31.5q-67 0 -111.5 33.5t-64.5 88.5t-10 117zM66 230q-9 -60 9.5 -112.5t61 -84.5t105.5 -32q64 -1 118.5 30.5
t91.5 83.5t47 115q9 60 -10 112.5t-61.5 84.5t-105.5 33q-64 0 -118.5 -31.5t-91 -83.5t-46.5 -115z" />
    <glyph glyph-name="Obreve" unicode="&#x14e;" horiz-adv-x="751" 
d="M350 908h10q-4 -51 26 -90t95 -39q44 -1 78 17.5t56.5 48t32.5 62.5h10q-10 -36 -33.5 -67.5t-59.5 -51.5t-85 -19q-48 0 -78 19.5t-42.5 51.5t-9.5 68zM81 350q11 73 45 138t86 114.5t117 77.5t140 28q73 0 127.5 -29.5t89 -80t47.5 -114.5t3 -134q-12 -73 -46 -138
t-85.5 -114.5t-117 -77.5t-139.5 -28q-73 0 -128 29.5t-89 80t-47 114.5t-3 134zM92 350q-10 -67 2 -129t44.5 -111t85.5 -78t125 -29t135.5 27.5t113.5 75.5t82.5 110.5t44.5 133.5q9 67 -2.5 129t-44 111t-85.5 78t-125 29q-73 0 -136.5 -27.5t-113 -75.5t-82.5 -110.5
t-44 -133.5z" />
    <glyph glyph-name="obreve" unicode="&#x14f;" horiz-adv-x="539" 
d="M204 670h10q-5 -51 25.5 -90t94.5 -39q44 -1 78 17.5t57 48t33 62.5h10q-10 -36 -33.5 -67.5t-60 -51.5t-84.5 -19q-48 0 -78 19.5t-42.5 51.5t-9.5 68zM56 230q10 66 47.5 120.5t94.5 87t124 32.5q66 -1 111 -34.5t65 -88t11 -117.5q-11 -65 -49 -120t-94.5 -87.5
t-123.5 -31.5q-67 0 -111.5 33.5t-64.5 88.5t-10 117zM66 230q-9 -60 9.5 -112.5t61 -84.5t105.5 -32q64 -1 118.5 30.5t91.5 83.5t47 115q9 60 -10 112.5t-61.5 84.5t-105.5 33q-64 0 -118.5 -31.5t-91 -83.5t-46.5 -115z" />
    <glyph glyph-name="OE" unicode="&#x152;" horiz-adv-x="922" 
d="M821 10l-1 -10h-467q-100 2 -168 49.5t-97.5 126t-15.5 174.5q16 100 72 178.5t140.5 124.5t186.5 47h467l-2 -10h-333l-51 -295h314l-1 -10h-315l-65 -375h336zM354 10h121l117 680h-121q-74 -1 -139 -27.5t-117 -72.5t-86.5 -107.5t-46.5 -132.5q-10 -68 4 -129
t50 -108t91 -74.5t127 -28.5z" />
    <glyph glyph-name="oe" unicode="&#x153;" horiz-adv-x="898" 
d="M56 230q9 66 43.5 120.5t86 87t112.5 32.5q51 -1 87 -28t55 -72.5t20 -99.5q1 5 3 9q17 52 51.5 95.5t82.5 69.5t104 26q56 -1 97.5 -31.5t61.5 -80t11 -105.5q-1 -6 -2.5 -12t-2.5 -9l-1 -4h-408q-7 -59 8.5 -110.5t54 -84t101.5 -32.5q69 -1 121 32t90 79l7 -7
q-42 -48 -95 -81.5t-124 -32.5q-58 0 -96 27.5t-57 72t-20 96.5q-16 -56 -50.5 -100.5t-81 -70t-97.5 -25.5q-62 0 -101 33.5t-54.5 88.5t-6.5 117zM66 230q-9 -59 5.5 -111.5t51.5 -85t98 -32.5q55 0 104 32t82.5 84t42.5 113q8 57 -7 109t-51 86t-91 35q-61 0 -110.5 -31
t-82.5 -83.5t-42 -115.5zM860 250q8 50 -8.5 98t-54.5 79.5t-96 31.5q-64 0 -113.5 -32t-82.5 -82t-47 -105v-2h399z" />
    <glyph glyph-name="Racute" unicode="&#x154;" horiz-adv-x="454" 
d="M484 924l-196 -155l-4 5l193 158zM180 700h1h1h109q62 -1 110 -23.5t72.5 -65t14.5 -104.5q-11 -62 -47 -104t-90.5 -64.5t-117.5 -24.5l160 -314h-13l-158 314h-97l-54 -314h-11zM290 689h-101l-63 -365h101q62 1 115.5 21.5t89 61t45.5 100.5q10 59 -13 99t-68.5 61
t-105.5 22z" />
    <glyph glyph-name="racute" unicode="&#x155;" horiz-adv-x="281" 
d="M399 686l-197 -155l-3 5l193 158zM146 460l-19 -107q18 49 50 83.5t83 33.5q16 -1 30.5 -7.5t27.5 -14.5l-7 -8q-12 8 -25 13.5t-27 5.5q-38 2 -65.5 -20.5t-46 -57.5t-28.5 -72l-53 -309h-10l80 460h10z" />
    <glyph glyph-name="uni0156" unicode="&#x156;" horiz-adv-x="454" 
d="M180 700h1h1h109q62 -1 110 -23.5t72.5 -65t14.5 -104.5q-11 -62 -47 -104t-90.5 -64.5t-117.5 -24.5l160 -314h-13l-158 314h-97l-54 -314h-11zM290 689h-101l-63 -365h101q62 1 115.5 21.5t89 61t45.5 100.5q10 59 -13 99t-68.5 61t-105.5 22zM214 -61l11 -5l-151 -248
l-6 2z" />
    <glyph glyph-name="uni0157" unicode="&#x157;" horiz-adv-x="281" 
d="M146 460l-19 -107q18 49 50 83.5t83 33.5q16 -1 30.5 -7.5t27.5 -14.5l-7 -8q-12 8 -25 13.5t-27 5.5q-38 2 -65.5 -20.5t-46 -57.5t-28.5 -72l-53 -309h-10l80 460h10zM59 -61l10 -5l-151 -248l-6 2z" />
    <glyph glyph-name="Rcaron" unicode="&#x158;" horiz-adv-x="454" 
d="M327 781l171 134l7 -8l-179 -138l-132 139l8 8zM180 700h1h1h109q62 -1 110 -23.5t72.5 -65t14.5 -104.5q-11 -62 -47 -104t-90.5 -64.5t-117.5 -24.5l160 -314h-13l-158 314h-97l-54 -314h-11zM290 689h-101l-63 -365h101q62 1 115.5 21.5t89 61t45.5 100.5
q10 59 -13 99t-68.5 61t-105.5 22z" />
    <glyph glyph-name="rcaron" unicode="&#x159;" horiz-adv-x="281" 
d="M241 543l171 134l7 -8l-179 -138l-133 139l9 8zM146 460l-19 -107q18 49 50 83.5t83 33.5q16 -1 30.5 -7.5t27.5 -14.5l-7 -8q-12 8 -25 13.5t-27 5.5q-38 2 -65.5 -20.5t-46 -57.5t-28.5 -72l-53 -309h-10l80 460h10z" />
    <glyph glyph-name="Sacute" unicode="&#x15a;" horiz-adv-x="473" 
d="M528 924l-195 -155l-5 5l193 158zM55 197q5 -33 15.5 -67t29 -62.5t48 -46t72.5 -17.5q88 -1 139 48.5t63 122.5q7 47 -10.5 82t-49 60t-68.5 42q-39 17 -76.5 42.5t-59.5 61.5t-14 87q7 46 36 81.5t70.5 56t88.5 20.5q51 -1 83.5 -24.5t49 -59.5t21.5 -74l-10 -2
q-5 36 -20.5 70t-46 56t-78.5 23q-44 0 -83 -19.5t-66 -52.5t-34 -75q-8 -48 12.5 -82t57 -58.5t75.5 -41.5q40 -17 73 -43.5t50 -63t10 -86.5q-8 -50 -35 -92t-71.5 -66.5t-106.5 -23.5q-60 0 -95.5 30.5t-54 76.5t-25.5 93z" />
    <glyph glyph-name="sacute" unicode="&#x15b;" horiz-adv-x="391" 
d="M434 686l-195 -155l-5 5l193 158zM48 147q2 -34 12 -68t35 -56.5t71 -22.5q52 0 92.5 33t48.5 84q5 32 -8.5 53.5t-38.5 36t-55 24.5q-33 12 -59 26.5t-39 38.5t-7 63q9 51 50.5 80t94.5 29q53 -1 78.5 -30.5t34.5 -69.5l-10 -3q-9 37 -32 64.5t-72 28.5q-47 0 -87 -26.5
t-47 -72.5q-7 -37 6 -59.5t38.5 -35.5t57.5 -24q30 -10 55.5 -25.5t40 -39t9.5 -58.5q-8 -56 -51.5 -91.5t-100.5 -34.5q-49 0 -76 22.5t-38.5 58t-12.5 72.5z" />
    <glyph glyph-name="Scircumflex" unicode="&#x15c;" horiz-adv-x="473" 
d="M373 903l-172 -134l-6 7l180 139l132 -140l-8 -7zM55 197q5 -33 15.5 -67t29 -62.5t48 -46t72.5 -17.5q88 -1 139 48.5t63 122.5q7 47 -10.5 82t-49 60t-68.5 42q-39 17 -76.5 42.5t-59.5 61.5t-14 87q7 46 36 81.5t70.5 56t88.5 20.5q51 -1 83.5 -24.5t49 -59.5
t21.5 -74l-10 -2q-5 36 -20.5 70t-46 56t-78.5 23q-44 0 -83 -19.5t-66 -52.5t-34 -75q-8 -48 12.5 -82t57 -58.5t75.5 -41.5q40 -17 73 -43.5t50 -63t10 -86.5q-8 -50 -35 -92t-71.5 -66.5t-106.5 -23.5q-60 0 -95.5 30.5t-54 76.5t-25.5 93z" />
    <glyph glyph-name="scircumflex" unicode="&#x15d;" horiz-adv-x="391" 
d="M279 665l-172 -134l-6 7l180 139l132 -140l-8 -7zM48 147q2 -34 12 -68t35 -56.5t71 -22.5q52 0 92.5 33t48.5 84q5 32 -8.5 53.5t-38.5 36t-55 24.5q-33 12 -59 26.5t-39 38.5t-7 63q9 51 50.5 80t94.5 29q53 -1 78.5 -30.5t34.5 -69.5l-10 -3q-9 37 -32 64.5t-72 28.5
q-47 0 -87 -26.5t-47 -72.5q-7 -37 6 -59.5t38.5 -35.5t57.5 -24q30 -10 55.5 -25.5t40 -39t9.5 -58.5q-8 -56 -51.5 -91.5t-100.5 -34.5q-49 0 -76 22.5t-38.5 58t-12.5 72.5z" />
    <glyph glyph-name="Scedilla" unicode="&#x15e;" horiz-adv-x="473" 
d="M55 197q5 -33 15.5 -67t29 -62.5t48 -46t72.5 -17.5q88 -1 139 48.5t63 122.5q7 47 -10.5 82t-49 60t-68.5 42q-39 17 -76.5 42.5t-59.5 61.5t-14 87q7 46 36 81.5t70.5 56t88.5 20.5q51 -1 83.5 -24.5t49 -59.5t21.5 -74l-10 -2q-5 36 -20.5 70t-46 56t-78.5 23
q-44 0 -83 -19.5t-66 -52.5t-34 -75q-8 -48 12.5 -82t57 -58.5t75.5 -41.5q40 -17 73 -43.5t50 -63t10 -86.5q-8 -50 -34.5 -91.5t-71 -66.5t-106.5 -25l-63 -68q18 9 34.5 16.5t38.5 6.5q27 -2 44.5 -22.5t14.5 -51.5q-4 -29 -22.5 -50t-44.5 -32.5t-53 -10.5
q-26 0 -44.5 9.5t-36.5 27.5l7 6q18 -16 34.5 -24.5t39.5 -8.5q24 0 48 10t41 28.5t21 44.5q3 28 -12 45t-38 19q-23 1 -44.5 -7t-39.5 -18l64 81q-56 3 -89.5 33.5t-51 75.5t-24.5 91z" />
    <glyph glyph-name="scedilla" unicode="&#x15f;" horiz-adv-x="391" 
d="M47 147q2 -34 12 -68t35 -56.5t71 -22.5q52 0 92.5 33t48.5 84q5 32 -8.5 53.5t-38.5 36t-55 24.5q-33 12 -59 26.5t-39 38.5t-7 63q9 51 50.5 80t94.5 29q53 -1 78.5 -30.5t34.5 -69.5l-10 -3q-9 37 -32 64.5t-72 28.5q-47 0 -87 -26.5t-47 -72.5q-7 -37 6 -59.5
t38.5 -35.5t57.5 -24q30 -10 55.5 -25.5t40 -39t9.5 -58.5q-6 -37 -27.5 -65.5t-53.5 -45t-69 -15.5l-63 -69q18 9 34 16.5t38 6.5q27 -2 44.5 -22.5t14.5 -51.5q-4 -29 -22.5 -50t-44.5 -32.5t-53 -10.5q-26 0 -44.5 9.5t-36.5 27.5l8 6q17 -16 34 -24.5t40 -8.5t47 10
t41.5 28.5t20.5 44.5q3 28 -12 45t-38 19q-22 1 -44 -7t-40 -18l65 81q-46 3 -71 26t-35.5 57t-11.5 70z" />
    <glyph glyph-name="Scaron" unicode="&#x160;" horiz-adv-x="473" 
d="M353 791l171 134l7 -8l-179 -138l-132 139l8 8zM55 197q5 -33 15.5 -67t29 -62.5t48 -46t72.5 -17.5q88 -1 139 48.5t63 122.5q7 47 -10.5 82t-49 60t-68.5 42q-39 17 -76.5 42.5t-59.5 61.5t-14 87q7 46 36 81.5t70.5 56t88.5 20.5q51 -1 83.5 -24.5t49 -59.5t21.5 -74
l-10 -2q-5 36 -20.5 70t-46 56t-78.5 23q-44 0 -83 -19.5t-66 -52.5t-34 -75q-8 -48 12.5 -82t57 -58.5t75.5 -41.5q40 -17 73 -43.5t50 -63t10 -86.5q-8 -50 -35 -92t-71.5 -66.5t-106.5 -23.5q-60 0 -95.5 30.5t-54 76.5t-25.5 93z" />
    <glyph glyph-name="scaron" unicode="&#x161;" horiz-adv-x="391" 
d="M257 543l172 134l7 -8l-180 -138l-132 139l9 8zM48 147q2 -34 12 -68t35 -56.5t71 -22.5q52 0 92.5 33t48.5 84q5 32 -8.5 53.5t-38.5 36t-55 24.5q-33 12 -59 26.5t-39 38.5t-7 63q9 51 50.5 80t94.5 29q53 -1 78.5 -30.5t34.5 -69.5l-10 -3q-9 37 -32 64.5t-72 28.5
q-47 0 -87 -26.5t-47 -72.5q-7 -37 6 -59.5t38.5 -35.5t57.5 -24q30 -10 55.5 -25.5t40 -39t9.5 -58.5q-8 -56 -51.5 -91.5t-100.5 -34.5q-49 0 -76 22.5t-38.5 58t-12.5 72.5z" />
    <glyph glyph-name="Tcaron" unicode="&#x164;" horiz-adv-x="418" 
d="M315 781l171 134l7 -8l-180 -138l-132 139l9 8zM110 689l2 11h380l-2 -11h-185l-118 -689h-11l118 689h-184z" />
    <glyph glyph-name="tcaron" unicode="&#x165;" horiz-adv-x="271" 
d="M372 774l10 -5l-151 -248l-6 2zM66 460h73l28 160h10l-28 -160h73l-2 -10h-73l-77 -450h-10l77 450h-73z" />
    <glyph glyph-name="Utilde" unicode="&#x168;" horiz-adv-x="558" 
d="M263 769q6 21 22 39t47 18q23 0 39.5 -11.5l33 -23t40.5 -11.5q22 0 36 14t26 33l9 -3q-14 -22 -31.5 -37t-40.5 -15q-24 0 -40.5 11.5t-32.5 23t-37 11.5q-28 0 -42 -16t-20 -34zM176 700h10l-82 -480q-8 -58 4 -107.5t47.5 -80t96.5 -30.5q62 -1 108.5 28.5t76 79
t39.5 110.5l83 480h11l-82 -480q-11 -64 -41 -116t-79 -83t-116 -30q-68 0 -105 32t-49.5 84t-4.5 113z" />
    <glyph glyph-name="utilde" unicode="&#x169;" horiz-adv-x="460" 
d="M172 532q7 21 23 39t47 18q24 0 40 -12t32.5 -23.5t39.5 -10.5q22 0 36.5 13.5t27.5 33.5l8 -3q-14 -23 -31.5 -37.5t-41.5 -14.5q-23 0 -40 11t-32.5 22.5t-36.5 12.5q-28 0 -42.5 -16t-20.5 -34zM91 150q-5 -39 0 -73t27 -55t66 -22q46 0 83.5 24t64 62.5t38.5 80.5
l51 293h10l-80 -460h-10l22 130q-23 -58 -70 -99t-110 -40q-47 0 -71 22t-30.5 58.5t-0.5 78.5l54 310h10z" />
    <glyph glyph-name="Umacron" unicode="&#x16a;" horiz-adv-x="558" 
d="M214 768l1 10h340l-1 -10h-340zM176 700h10l-82 -480q-8 -58 4 -107.5t47.5 -80t96.5 -30.5q62 -1 108.5 28.5t76 79t39.5 110.5l83 480h11l-82 -480q-11 -64 -41 -116t-79 -83t-116 -30q-68 0 -105 32t-49.5 84t-4.5 113z" />
    <glyph glyph-name="umacron" unicode="&#x16b;" horiz-adv-x="460" 
d="M124 530l2 10h339l-1 -10h-340zM91 150q-5 -39 0 -73t27 -55t66 -22q46 0 83.5 24t64 62.5t38.5 80.5l51 293h10l-80 -460h-10l22 130q-23 -58 -70 -99t-110 -40q-47 0 -71 22t-30.5 58.5t-0.5 78.5l54 310h10z" />
    <glyph glyph-name="Ubreve" unicode="&#x16c;" horiz-adv-x="558" 
d="M254 908h10q-4 -51 26 -90t95 -39q44 -1 78 17.5t56.5 48t32.5 62.5h10q-10 -36 -33.5 -67.5t-59.5 -51.5t-85 -19q-48 0 -78 19.5t-42.5 51.5t-9.5 68zM176 700h10l-82 -480q-8 -58 4 -107.5t47.5 -80t96.5 -30.5q62 -1 108.5 28.5t76 79t39.5 110.5l83 480h11l-82 -480
q-11 -64 -41 -116t-79 -83t-116 -30q-68 0 -105 32t-49.5 84t-4.5 113z" />
    <glyph glyph-name="ubreve" unicode="&#x16d;" horiz-adv-x="460" 
d="M165 670h9q-4 -51 26.5 -90t94.5 -39q44 -1 78 17.5t56.5 48t32.5 62.5h10q-10 -36 -33.5 -67.5t-59.5 -51.5t-85 -19q-47 0 -77 19.5t-43 51.5t-9 68zM91 150q-5 -39 0 -73t27 -55t66 -22q46 0 83.5 24t64 62.5t38.5 80.5l51 293h10l-80 -460h-10l22 130
q-23 -58 -70 -99t-110 -40q-47 0 -71 22t-30.5 58.5t-0.5 78.5l54 310h10z" />
    <glyph glyph-name="Uring" unicode="&#x16e;" horiz-adv-x="558" 
d="M301 869q4 27 21.5 49.5t43 36t52.5 13.5q39 -1 63.5 -30.5t18.5 -69.5q-4 -28 -22 -50.5t-43 -36t-51 -12.5q-40 0 -64.5 29.5t-18.5 70.5zM311 868q-5 -36 16.5 -62.5t57.5 -26.5q24 -1 46.5 11t38.5 33t20 45q5 36 -16 62.5t-57 27.5q-25 0 -47.5 -12t-38.5 -32.5
t-20 -45.5zM176 700h10l-82 -480q-8 -58 4 -107.5t47.5 -80t96.5 -30.5q62 -1 108.5 28.5t76 79t39.5 110.5l83 480h11l-82 -480q-11 -64 -41 -116t-79 -83t-116 -30q-68 0 -105 32t-49.5 84t-4.5 113z" />
    <glyph glyph-name="uring" unicode="&#x16f;" horiz-adv-x="460" 
d="M211 631q5 27 22.5 49.5t42.5 36t52 13.5q40 -1 64 -30.5t18 -69.5q-4 -28 -21.5 -50.5t-42.5 -36t-52 -12.5q-40 0 -64.5 29.5t-18.5 70.5zM221 630q-5 -36 16.5 -62.5t57.5 -26.5q24 -1 47 11t39 33t19 45q6 36 -15.5 62.5t-57.5 27.5q-24 0 -47 -12t-39 -32.5
t-20 -45.5zM91 150q-5 -39 0 -73t27 -55t66 -22q46 0 83.5 24t64 62.5t38.5 80.5l51 293h10l-80 -460h-10l22 130q-23 -58 -70 -99t-110 -40q-47 0 -71 22t-30.5 58.5t-0.5 78.5l54 310h10z" />
    <glyph glyph-name="Wcircumflex" unicode="&#x174;" horiz-adv-x="921" 
d="M589 910l-172 -133l-6 7l179 138l132 -139l-7 -7zM661 27l322 673h11l-339 -715l-106 692l-321 -692l-118 715h11l113 -673l321 689z" />
    <glyph glyph-name="wcircumflex" unicode="&#x175;" horiz-adv-x="601" 
d="M386 670l-172 -133l-6 7l179 138l132 -139l-7 -7zM68 460h9l57 -441l218 457l69 -457l210 441h10l-226 -475l-69 456l-218 -456z" />
    <glyph glyph-name="Ycircumflex" unicode="&#x176;" horiz-adv-x="492" 
d="M369 903l-172 -134l-6 7l179 139l132 -140l-7 -7zM558 699h13l-306 -432l-46 -267h-11l47 267l-148 433h13l141 -418z" />
    <glyph glyph-name="ycircumflex" unicode="&#x177;" horiz-adv-x="412" 
d="M283 664l-172 -133l-6 7l179 138l132 -139l-7 -7zM455 460l-264 -440v0v0l-144 -239h-11l144 239v1v1l-119 438h11l115 -426l257 426h11z" />
    <glyph glyph-name="Ydieresis" unicode="&#x178;" horiz-adv-x="492" 
d="M253 780q0 4 4.5 7t9.5 3q10 0 9 -11q0 -4 -4 -7.5t-8 -3.5q-5 0 -8 3.5t-3 8.5zM428 780q0 4 4.5 7t9.5 3q9 0 9 -11q-1 -4 -5 -7.5t-8 -3.5q-11 0 -10 12zM558 699h13l-306 -432l-46 -267h-11l47 267l-148 433h13l141 -418z" />
    <glyph glyph-name="Zacute" unicode="&#x179;" horiz-adv-x="519" 
d="M545 924l-197 -155l-3 5l193 158zM129 689l2 11h467l-582 -688l454 -1l-2 -11h-476l582 689h-445z" />
    <glyph glyph-name="zacute" unicode="&#x17a;" horiz-adv-x="417" 
d="M446 686l-196 -155l-4 5l193 158zM417 450h-328l1 10h350l-425 -449l358 -1l-2 -10h-379z" />
    <glyph glyph-name="Zdotaccent" unicode="&#x17b;" horiz-adv-x="519" 
d="M367 779q1 11 12 11q10 0 10 -11q-1 -4 -5 -7.5t-8 -3.5q-10 0 -9 11zM129 689l2 11h467l-582 -688l454 -1l-2 -11h-476l582 689h-445z" />
    <glyph glyph-name="zdotaccent" unicode="&#x17c;" horiz-adv-x="417" 
d="M273 571q0 4 4 7.5t9 3.5q9 0 9 -11q-1 -4 -5 -7.5t-8 -3.5q-10 0 -9 11zM417 450h-328l1 10h350l-425 -449l358 -1l-2 -10h-379z" />
    <glyph glyph-name="Zcaron" unicode="&#x17d;" horiz-adv-x="519" 
d="M377 781l172 134l7 -8l-180 -138l-132 139l9 8zM129 689l2 11h467l-582 -688l454 -1l-2 -11h-476l582 689h-445z" />
    <glyph glyph-name="zcaron" unicode="&#x17e;" horiz-adv-x="417" 
d="M279 543l171 134l7 -8l-180 -138l-132 139l9 8zM418 450h-329l1 10h350l-426 -449l359 -1l-2 -10h-379z" />
    <glyph glyph-name="uni0212" unicode="&#x212;" horiz-adv-x="454" 
d="M200 769q10 36 33.5 67.5t60 51.5t85.5 20q48 -1 77.5 -20.5t42 -51.5t8.5 -68h-9q4 51 -26.5 90.5t-95.5 39.5q-44 0 -78 -18.5t-56.5 -48t-31.5 -62.5h-10zM180 700h1h1h109q62 -1 110 -23.5t72.5 -65t14.5 -104.5q-11 -62 -47 -104t-90.5 -64.5t-117.5 -24.5l160 -314
h-13l-158 314h-97l-54 -314h-11zM290 689h-101l-63 -365h101q62 1 115.5 21.5t89 61t45.5 100.5q10 59 -13 99t-68.5 61t-105.5 22z" />
    <glyph glyph-name="uni0213" unicode="&#x213;" horiz-adv-x="281" 
d="M88 551q10 36 33.5 67.5t60 51.5t85.5 20q48 -1 77.5 -20.5t42 -51.5t8.5 -68h-9q4 51 -26.5 90.5t-95.5 39.5q-44 0 -78 -18.5t-56.5 -48t-31.5 -62.5h-10zM146 460l-19 -107q18 49 50 83.5t83 33.5q16 -1 30.5 -7.5t27.5 -14.5l-7 -8q-12 8 -25 13.5t-27 5.5
q-38 2 -65.5 -20.5t-46 -57.5t-28.5 -72l-53 -309h-10l80 460h10z" />
    <glyph glyph-name="uni0218" unicode="&#x218;" horiz-adv-x="473" 
d="M55 197q5 -33 15.5 -67t29 -62.5t48 -46t72.5 -17.5q88 -1 139 48.5t63 122.5q7 47 -10.5 82t-49 60t-68.5 42q-39 17 -76.5 42.5t-59.5 61.5t-14 87q7 46 36 81.5t70.5 56t88.5 20.5q51 -1 83.5 -24.5t49 -59.5t21.5 -74l-10 -2q-5 36 -20.5 70t-46 56t-78.5 23
q-44 0 -83 -19.5t-66 -52.5t-34 -75q-8 -48 12.5 -82t57 -58.5t75.5 -41.5q40 -17 73 -43.5t50 -63t10 -86.5q-8 -50 -35 -92t-71.5 -66.5t-106.5 -23.5q-60 0 -95.5 30.5t-54 76.5t-25.5 93zM255 -69l11 -5l-152 -248l-6 2z" />
    <glyph glyph-name="uni0219" unicode="&#x219;" horiz-adv-x="391" 
d="M48 147q2 -34 12 -68t35 -56.5t71 -22.5q52 0 92.5 33t48.5 84q5 32 -8.5 53.5t-38.5 36t-55 24.5q-33 12 -59 26.5t-39 38.5t-7 63q9 51 50.5 80t94.5 29q53 -1 78.5 -30.5t34.5 -69.5l-10 -3q-9 37 -32 64.5t-72 28.5q-47 0 -87 -26.5t-47 -72.5q-7 -37 6 -59.5
t38.5 -35.5t57.5 -24q30 -10 55.5 -25.5t40 -39t9.5 -58.5q-8 -56 -51.5 -91.5t-100.5 -34.5q-49 0 -76 22.5t-38.5 58t-12.5 72.5zM201 -71l10 -5l-151 -248l-6 2z" />
    <glyph glyph-name="uni021A" unicode="&#x21a;" horiz-adv-x="418" 
d="M110 689l2 11h380l-2 -11h-185l-118 -689h-11l118 689h-184zM217 -60l10 -5l-151 -248l-6 2z" />
    <glyph glyph-name="uni021B" unicode="&#x21b;" horiz-adv-x="184" 
d="M68 460h71l28 160h10l-28 -160h75l-2 -10h-75l-77 -450h-10l77 450h-71zM100 -60l10 -5l-151 -248l-6 2z" />
    <glyph glyph-name="uni0237" unicode="&#x237;" horiz-adv-x="174" 
d="M-149 -165q11 -16 27 -30t41 -14q38 -1 61.5 19t37 50t19.5 58l93 542h10l-93 -542q-6 -32 -21 -64.5t-41.5 -53.5t-66.5 -19q-28 0 -45.5 15t-29.5 32z" />
    <glyph glyph-name="circumflex" unicode="&#x2c6;" horiz-adv-x="465" 
d="M330 718l-172 -134l-6 7l179 139l132 -140l-7 -7z" />
    <glyph glyph-name="caron" unicode="&#x2c7;" horiz-adv-x="465" 
d="M305 583l171 134l7 -8l-179 -138l-133 139l9 8z" />
    <glyph glyph-name="breve" unicode="&#x2d8;" horiz-adv-x="529" 
d="M226 850h9q-3 -51 28 -90t95 -39q44 -1 77.5 17.5t56 48t31.5 63.5l10 -1q-9 -36 -32 -67.5t-59 -51t-84 -19.5t-78.5 19.5t-43.5 51.5t-10 68z" />
    <glyph glyph-name="dotaccent" unicode="&#x2d9;" horiz-adv-x="234" 
d="M208 751q0 4 4 7.5t8 3.5q10 0 9 -11t-12 -11q-10 0 -9 11z" />
    <glyph glyph-name="ring" unicode="&#x2da;" horiz-adv-x="269" 
d="M144 786q4 27 21.5 49.5t42.5 36t52 13.5q39 -1 63.5 -30.5t18.5 -69.5q-4 -28 -21.5 -50.5t-42.5 -36t-52 -12.5q-40 0 -64 29.5t-18 70.5zM153 785q-5 -36 16.5 -62.5t57.5 -26.5q24 -1 47 11t39 33t20 45q5 36 -16.5 62.5t-57.5 27.5q-24 0 -47 -12t-39 -32.5
t-20 -45.5z" />
    <glyph glyph-name="ogonek" unicode="&#x2db;" horiz-adv-x="242" 
d="M160 -173l6 -7q-18 -15 -44 -27.5t-57 -11.5q-42 0 -67.5 21t-20.5 59q4 37 32.5 64t67 47.5t72.5 37.5l5 -10q-32 -15 -69.5 -35t-65.5 -46t-33 -59q-4 -34 21 -51.5t59 -17.5q28 -1 52.5 10.5t41.5 25.5z" />
    <glyph glyph-name="tilde" unicode="&#x2dc;" horiz-adv-x="514" 
d="M220 650q7 21 22.5 39t46.5 18q24 0 40.5 -12t33 -23.5t40.5 -10.5q21 0 35 13.5t27 33.5l9 -3q-14 -23 -31.5 -37.5t-41.5 -14.5q-23 0 -40 11t-33 22.5t-37 12.5q-28 0 -42 -16t-20 -34z" />
    <glyph glyph-name="pi" unicode="&#x3c0;" horiz-adv-x="456" 
d="M81 460h388l-2 -10h-388zM138 450h10l-78 -450h-10zM380 450h10l-57 -329q-4 -36 -6.5 -60t5 -38.5t32.5 -21.5l-1 -9q-30 6 -39 21t-7 41.5t7 66.5z" />
    <glyph glyph-name="uni0400" unicode="&#x400;" horiz-adv-x="533" 
d="M256 952l9 8l139 -160l-5 -4zM180 700h1h1h328l-2 -10h-319l-51 -296h300l-1 -10h-300l-65 -374h320l-1 -10h-331z" />
    <glyph glyph-name="uni0401" unicode="&#x401;" horiz-adv-x="533" 
d="M454 854q0 4 4 7.5t8 3.5q10 0 9 -11q0 -4 -4 -7.5t-8 -3.5q-10 0 -9 11zM259 854q0 4 4 7.5t9 3.5q10 0 9 -11q0 -4 -4 -7.5t-8 -3.5q-11 0 -10 11zM180 700h1h1h328l-2 -10h-319l-51 -296h300l-1 -10h-300l-65 -374h320l-1 -10h-331z" />
    <glyph glyph-name="uni0403" unicode="&#x403;" horiz-adv-x="422" 
d="M510 951l-196 -155l-4 5l193 158zM170 700h335l-2 -10h-324l-119 -690h-10z" />
    <glyph glyph-name="uni040C" unicode="&#x40c;" horiz-adv-x="548" 
d="M569 951l-195 -155l-5 5l194 158zM177 700h10l-56 -325l359 324h16l-363 -327l257 -372h-16l-254 370l-63 -370h-11z" />
    <glyph glyph-name="uni040D" unicode="&#x40d;" horiz-adv-x="703" 
d="M315 927l9 8l139 -160l-6 -4zM190 700l-121 -703l647 738l-127 -735h-10l121 702l-646 -736l126 734h10z" />
    <glyph glyph-name="uni040E" unicode="&#x40e;" horiz-adv-x="465" 
d="M209 908h10q-5 -51 25.5 -90t94.5 -39q44 -1 78 17.5t56.5 48t32.5 62.5h10q-10 -36 -33 -67.5t-59.5 -51.5t-84.5 -19q-48 0 -78 19.5t-43 51.5t-9 68zM560 700l-440 -700h-10l141 226l-157 474h9l154 -466l293 466h10z" />
    <glyph glyph-name="uni0410" unicode="&#x410;" horiz-adv-x="640" 
d="M530 0l-57 272h-322l-151 -272h-12l400 715l154 -715h-12zM384 688l-228 -406h315z" />
    <glyph glyph-name="uni0411" unicode="&#x411;" horiz-adv-x="492" 
d="M170 700h325l-1 -10h-315l-47 -270h134q63 0 111.5 -27t72.5 -74t14 -109q-11 -63 -49 -110.5t-95 -73.5t-122 -26h-148zM267 410h-137l-69 -400h136q63 0 117.5 25t92 70t47.5 105q9 58 -13 103.5t-68 71t-106 25.5z" />
    <glyph glyph-name="uni0412" unicode="&#x412;" horiz-adv-x="541" 
d="M430 200q-15 -98 -84.5 -149t-168.5 -51h-117l120 700h106q55 0 95 -19.5t59.5 -55t11.5 -85.5q-11 -68 -58 -104.5t-111 -46.5q42 -7 78 -32t56 -65.5t13 -91.5zM285 689h-97l-51 -295h97q49 1 93 16.5t74.5 47.5t39.5 83q12 70 -33 109t-123 39zM72 11h106
q93 0 159.5 48t81.5 141q8 55 -16 96t-67 64.5t-93 23.5h-107z" />
    <glyph glyph-name="uni0413" unicode="&#x413;" horiz-adv-x="422" 
d="M170 700h335l-2 -10h-324l-119 -690h-10z" />
    <glyph glyph-name="uni0414" unicode="&#x414;" horiz-adv-x="771" 
d="M691 0h-669l-20 -109h-10l22 119h67l401 725l152 -725h69l-21 -119h-11zM478 705l-385 -695h529z" />
    <glyph glyph-name="uni0415" unicode="&#x415;" horiz-adv-x="533" 
d="M180 700h1h1h328l-2 -10h-319l-51 -296h300l-1 -10h-300l-65 -374h320l-1 -10h-331z" />
    <glyph glyph-name="uni0416" unicode="&#x416;" horiz-adv-x="621" 
d="M126 700l221 -327l57 327h10l-57 -326l323 325h16l-330 -329l223 -370h-14l-219 367l-63 -367h-10l63 366l-354 -366h-16l362 371l-225 329h13z" />
    <glyph glyph-name="uni0417" unicode="&#x417;" horiz-adv-x="588" 
d="M277 -9q-108 0 -165.5 53.5t-47.5 140.5h10q-10 -84 45.5 -134t157.5 -50q67 0 123 22t93.5 63.5t47.5 98.5q8 51 -9 84t-52 52t-79.5 27t-90.5 9l1 7v0v3q63 2 120.5 19t97 51t50.5 87q9 50 -12.5 89.5t-64.5 62.5t-100 24q-94 0 -158 -48.5t-84 -124.5h-10
q14 54 48.5 95t86.5 64.5t117 23.5q61 -1 106.5 -26t67.5 -67t13 -93q-10 -51 -44.5 -84.5t-85.5 -52.5t-111 -25q60 -4 109.5 -21.5t76.5 -54.5t16 -101q-10 -61 -48.5 -104.5t-96.5 -66.5t-128 -23z" />
    <glyph glyph-name="uni0418" unicode="&#x418;" horiz-adv-x="703" 
d="M190 700l-121 -703l647 738l-127 -735h-10l121 702l-646 -736l126 734h10z" />
    <glyph glyph-name="uni0419" unicode="&#x419;" horiz-adv-x="703" 
 />
    <glyph glyph-name="uni041A" unicode="&#x41a;" horiz-adv-x="548" 
d="M177 700h10l-56 -325l359 324h16l-363 -328l256 -371h-15l-254 370l-63 -370h-11z" />
    <glyph glyph-name="uni041B" unicode="&#x41b;" horiz-adv-x="594" 
d="M610 700l-120 -700h-10l119 690h-398l-77 -450q-8 -56 -25.5 -108t-46 -88t-70.5 -43l2 10q39 8 65 44.5t41.5 86t23.5 98.5l79 460h417z" />
    <glyph glyph-name="uni041C" unicode="&#x41c;" horiz-adv-x="786" 
d="M228 675l-186 -675h-10l196 715l171 -583l373 584l-51 -716h-11l48 674l-363 -569z" />
    <glyph glyph-name="uni041D" unicode="&#x41d;" horiz-adv-x="693" 
d="M180 700h11l-54 -313h432l54 313h11l-121 -700h-11l65 377h-432l-64 -377h-11z" />
    <glyph glyph-name="uni041E" unicode="&#x41e;" horiz-adv-x="766" 
d="M81 350q11 73 45 138t86 114.5t117 77.5t140 28q73 0 127.5 -29.5t89 -80t47.5 -114.5t3 -134q-12 -73 -46 -138t-85.5 -114.5t-117 -77.5t-139.5 -28q-73 0 -128 29.5t-89 80t-47 114.5t-3 134zM92 350q-10 -67 2 -129t44.5 -111t85.5 -78t125 -29t135.5 27.5
t113.5 75.5t82.5 110.5t44.5 133.5q9 67 -2.5 129t-44 111t-85.5 78t-125 29q-73 0 -136.5 -27.5t-113 -75.5t-82.5 -110.5t-44 -133.5z" />
    <glyph glyph-name="uni041F" unicode="&#x41f;" horiz-adv-x="621" 
d="M625 690h-446l-119 -690h-10l120 700h466l-120 -700h-10z" />
    <glyph glyph-name="uni0420" unicode="&#x420;" horiz-adv-x="531" 
d="M180 700h6h1h114q60 0 102.5 -26t62 -71.5t10.5 -105.5q-10 -61 -44 -107t-85.5 -71t-112.5 -25h-113l-50 -294h-11zM300 690h-111l-66 -386h110q59 0 108 24t81.5 67.5t42.5 101.5q9 57 -9 100.5t-58.5 68t-97.5 24.5z" />
    <glyph glyph-name="uni0421" unicode="&#x421;" horiz-adv-x="664" 
d="M93 350q-10 -66 1 -127.5t42.5 -110.5t83 -78t122.5 -29q71 -1 127.5 21t106.5 61l-3 -15q-50 -37 -105.5 -58.5t-126.5 -20.5q-73 0 -127 29.5t-87 80t-44.5 114.5t-1.5 133q11 73 44 138t83.5 114t115 77.5t138.5 28.5q66 0 115 -20t91 -59l-3 -15q-39 42 -90 62
t-114 20q-72 0 -134 -27.5t-110.5 -75t-80.5 -110t-43 -133.5z" />
    <glyph glyph-name="uni0422" unicode="&#x422;" horiz-adv-x="451" 
d="M110 689l2 11h380l-2 -11h-185l-118 -689h-11l118 689h-184z" />
    <glyph glyph-name="uni0423" unicode="&#x423;" horiz-adv-x="465" 
d="M560 700l-440 -700h-10l142 225l-158 475h9l154 -465l293 465h10z" />
    <glyph glyph-name="uni0424" unicode="&#x424;" horiz-adv-x="708" 
d="M703 350q-14 -83 -65.5 -143.5t-127.5 -93t-164 -33.5h-1l-13 -80h-10l13 80q-84 2 -148.5 35t-96.5 93t-19 142q14 84 65 144t127 92.5t165 33.5v0l14 80h10l-14 -80q85 -2 149.5 -35t96.5 -93t19 -142zM693 350q13 79 -18 136.5t-93.5 89.5t-144.5 33h-1l-89 -520
q85 1 158.5 32.5t123.5 90t64 138.5zM81 350q-13 -79 18 -137t93.5 -90.5t144.5 -33.5l89 520q-85 -1 -158.5 -32t-123 -89t-63.5 -138z" />
    <glyph glyph-name="uni0425" unicode="&#x425;" horiz-adv-x="538" 
d="M531 699h14l-258 -332l152 -367h-14l-146 356l-273 -356h-14l283 368l-139 332h14l132 -322z" />
    <glyph glyph-name="uni0426" unicode="&#x426;" horiz-adv-x="664" 
d="M62 10h446l119 690h10l-119 -690h83l-21 -119h-10l20 109h-540l121 700h10z" />
    <glyph glyph-name="uni0427" unicode="&#x427;" horiz-adv-x="524" 
d="M182 700l-32 -182q-10 -61 3.5 -112.5t51.5 -83.5t100 -32h155l71 410h10l-121 -700h-10l48 280h-155q-65 0 -104.5 33.5t-54 88t-4.5 116.5l32 182h10z" />
    <glyph glyph-name="uni0428" unicode="&#x428;" horiz-adv-x="882" 
d="M770 10l119 690h10l-120 -700h-729l121 700h10l-119 -690h349l119 690h10l-119 -690h349z" />
    <glyph glyph-name="uni0429" unicode="&#x429;" horiz-adv-x="926" 
d="M770 10l119 690h10l-119 -690h83l-21 -119h-10l20 109h-802l121 700h10l-119 -690h349l119 690h10l-119 -690h349z" />
    <glyph glyph-name="uni042A" unicode="&#x42a;" horiz-adv-x="597" 
d="M277 690h-175l1 10h185l-48 -280h133q64 0 111.5 -27t71 -74.5t13.5 -109.5q-10 -63 -48.5 -110t-95.5 -73t-122 -26h-145zM373 410h-135l-69 -400h134q63 0 117.5 25t91.5 70t47 105q10 58 -12.5 103.5t-68 71t-105.5 25.5z" />
    <glyph glyph-name="uni042B" unicode="&#x42b;" horiz-adv-x="664" 
d="M666 700h10l-121 -700h-10zM166 700h10l-49 -280h134q63 0 111 -27t71.5 -74.5t13.5 -109.5q-11 -63 -49.5 -110t-95 -73t-122.5 -26h-145zM260 410h-134l-69 -400h134q63 0 117.5 25t91.5 70t47 105q9 58 -13 103.5t-68 71t-106 25.5z" />
    <glyph glyph-name="uni042C" unicode="&#x42c;" horiz-adv-x="486" 
d="M166 700h10l-49 -280h134q63 0 111 -27t71.5 -74.5t13.5 -109.5q-11 -63 -49.5 -110t-95 -73t-122.5 -26h-145zM260 410h-134l-69 -400h134q63 0 117.5 25t91.5 70t47 105q9 58 -13 103.5t-68 71t-106 25.5z" />
    <glyph glyph-name="uni042D" unicode="&#x42d;" horiz-adv-x="664" 
d="M190 345l2 10h447q9 66 -3 127t-43.5 109t-82.5 76t-121 29q-68 0 -126.5 -22t-106.5 -60l3 15q49 36 104.5 57.5t126.5 21.5q74 -1 127.5 -30.5t86.5 -80t44.5 -114.5t1.5 -133q-11 -73 -44 -138t-83.5 -114t-115 -77.5t-138.5 -28.5q-66 0 -115 20t-90 60l2 16
q77 -85 204 -84q71 0 132.5 27t110 74t80.5 109t44 131h-447z" />
    <glyph glyph-name="uni042E" unicode="&#x42e;" horiz-adv-x="993" 
d="M324 352q2 12 4 23h-204l-64 -375h-10l121 700h10l-55 -315h204q16 68 51 127t85.5 103.5t112.5 69.5t133 25q73 0 127.5 -29.5t89 -80t47.5 -114.5t3 -134q-12 -73 -46 -138.5t-86 -115.5t-117.5 -78.5t-139.5 -28.5t-128.5 30t-88.5 81t-46.5 116t-2.5 134zM335 352
q-10 -67 1.5 -129.5t44.5 -112t85.5 -78.5t124.5 -29q73 0 136.5 27.5t113.5 76t82.5 111.5t44.5 134q9 67 -2.5 129t-44 111t-85.5 78t-125 29q-73 0 -136.5 -27.5t-113 -75.5t-82.5 -110.5t-44 -133.5z" />
    <glyph glyph-name="uni042F" unicode="&#x42f;" horiz-adv-x="454" 
d="M460 700l-121 -700h-10l54 314h-96l-267 -314h-14l269 314q-60 1 -106.5 24t-69.5 65.5t-13 103.5q10 63 47.5 105.5t93 64.5t120.5 23h113zM283 324h101l63 365h-101q-62 -1 -115.5 -21.5t-89 -60.5t-45.5 -100q-10 -59 12.5 -100t68.5 -62t106 -21z" />
    <glyph glyph-name="uni0430" unicode="&#x430;" 
d="M56 230q9 66 44 120.5t87.5 87t115.5 32.5q53 -1 87 -29.5t50.5 -72t17.5 -91.5l32 183h10l-80 -460h-10l30 172q-18 -48 -49 -89t-74 -66.5t-95 -25.5q-63 -1 -103 33t-56 89t-7 117zM66 230q-9 -59 6.5 -112t54 -85.5t99.5 -32.5q55 1 101 33t77.5 81.5t43.5 102.5
l3 18q4 38 -2.5 77.5t-24.5 72.5t-47.5 53.5t-71.5 21.5q-61 1 -111.5 -30.5t-84.5 -84t-43 -115.5z" />
    <glyph glyph-name="uni0431" unicode="&#x431;" horiz-adv-x="529" 
d="M53 235q0 66 19.5 131.5t55 123t84.5 101t108 65.5q60 22 97.5 52t58.5 72h10q-21 -46 -60.5 -78t-102.5 -56q-58 -22 -104.5 -63t-80.5 -94.5t-53 -113.5t-22 -119q15 58 55 106.5t93.5 78t108.5 29.5q66 0 113 -32.5t69 -87t13 -120.5q-10 -66 -48 -120.5t-95 -86.5
t-125 -32q-71 0 -113.5 34t-61.5 90t-19 120zM68 205q0 -48 18 -95t57.5 -78t104.5 -31q62 0 117 30.5t92.5 82.5t47.5 116q9 64 -12 116t-66.5 83t-107.5 31q-45 0 -89 -21t-81 -56.5t-59 -81.5t-22 -96z" />
    <glyph glyph-name="uni0432" unicode="&#x432;" horiz-adv-x="398" 
d="M125 460h123q40 0 72.5 -14t50 -41.5t10.5 -69.5q-9 -52 -51 -76t-94 -29q38 -1 69.5 -10.5t48.5 -32t11 -62.5q-9 -56 -53 -90t-112 -34l-145 -1v0h-10zM247 450h-114l-37 -215h114q29 1 64 9.5t63 30t34 60.5q7 38 -9.5 63.5t-47 38.5t-67.5 13zM219 225h-125l-37 -215
h143q64 0 105 32t50 83q4 33 -7.5 53t-33 30t-47 13.5t-48.5 3.5z" />
    <glyph glyph-name="uni0433" unicode="&#x433;" horiz-adv-x="291" 
d="M129 460h209l-2 -10h-198l-78 -450h-10z" />
    <glyph glyph-name="uni0434" unicode="&#x434;" horiz-adv-x="635" 
d="M556 0h-534l-16 -89h-10l18 99h59l300 485l134 -485h60l-18 -99h-10zM370 470l-286 -460h413z" />
    <glyph glyph-name="uni0435" unicode="&#x435;" horiz-adv-x="493" 
d="M436 106q-23 -27 -51.5 -54t-67.5 -44.5t-92 -16.5q-61 0 -99.5 35.5t-54.5 90.5t-9 115q6 41 22 76q18 44 50.5 81t75 59t92.5 22q55 -1 94 -32t58 -80t12 -104q-2 -6 -3.5 -13t-2.5 -13h-388q-5 -56 9.5 -108t50 -85.5t93.5 -33.5q50 -1 87.5 16t65.5 43t51 53z
M302 459q-57 0 -105.5 -29.5t-81.5 -80t-43 -111.5h380q11 53 -3.5 103.5t-52 84t-94.5 33.5z" />
    <glyph glyph-name="uni0436" unicode="&#x436;" horiz-adv-x="440" 
d="M93 460l142 -188l33 188h10l-33 -186l206 185h13l-210 -190l150 -269h-12l-148 267l-46 -267h-10l46 266l-239 -266h-13l242 270l-144 190h13z" />
    <glyph glyph-name="uni0437" unicode="&#x437;" horiz-adv-x="461" 
d="M213 -9q-75 0 -115.5 44t-41.5 110h10q2 -61 39 -102.5t108 -41.5q40 0 82 16t73 46t37 72q5 32 -9 52.5t-39 32t-54 16.5t-53 6v3v0l2 6q31 0 67.5 5.5t64.5 23t35 54.5q7 32 -8 61t-46 47t-73 18q-41 0 -75 -18.5t-58 -48.5t-34 -66h-10q10 38 35.5 70.5t62 52.5
t80.5 20q43 0 76.5 -19t50 -50t9.5 -67q-9 -49 -50.5 -67t-96.5 -21q38 -4 70.5 -16t50 -35t12.5 -60q-7 -45 -38 -77.5t-75 -50t-89 -16.5z" />
    <glyph glyph-name="uni0438" unicode="&#x438;" horiz-adv-x="460" 
d="M140 460l-80 -457l382 492l-86 -495h-10l79 457l-381 -491l86 494h10z" />
    <glyph glyph-name="uni0439" unicode="&#x439;" horiz-adv-x="460" 
d="M157 694h10q-4 -51 27.5 -90t95.5 -39q44 -1 77.5 17.5t55.5 48t32 63.5l10 -1q-10 -36 -32.5 -67.5t-58.5 -51t-85 -19.5q-48 0 -78 19.5t-43.5 51.5t-10.5 68zM140 460l-80 -457l382 492l-86 -495h-10l79 457l-381 -491l86 494h10z" />
    <glyph glyph-name="uni043A" unicode="&#x43a;" horiz-adv-x="426" 
d="M130 460h10l-33 -187l263 186h16l-268 -189l207 -270h-14l-205 268l-46 -268h-10z" />
    <glyph glyph-name="uni043B" unicode="&#x43b;" horiz-adv-x="473" 
d="M448 460l-79 -460h-10l77 450h-295l-50 -290q-10 -67 -37 -108.5t-72 -50.5l2 10q40 9 64 49t33 100l51 300h316z" />
    <glyph glyph-name="uni043C" unicode="&#x43c;" horiz-adv-x="589" 
d="M-23 0l202 493v2v-1l1 1l-1 -2l87 -484l260 484v2l31 -495h-12l-28 453l-257 -481v-3v1v0v1l-85 483l-184 -453z" />
    <glyph glyph-name="uni043D" unicode="&#x43d;" horiz-adv-x="480" 
d="M125 460h10l-37 -210h316l36 210h10l-80 -460h-10l42 240h-315l-42 -240h-10z" />
    <glyph glyph-name="uni043E" unicode="&#x43e;" horiz-adv-x="529" 
d="M56 230q10 66 47.5 120.5t94.5 87t124 32.5q66 -1 111 -34.5t65 -88t11 -117.5q-11 -65 -49 -120t-94.5 -87.5t-123.5 -31.5q-67 0 -111.5 33.5t-64.5 88.5t-10 117zM66 230q-9 -60 9.5 -112.5t61 -84.5t105.5 -32q64 -1 118.5 30.5t91.5 83.5t47 115q9 60 -10 112.5
t-61.5 84.5t-105.5 33q-64 0 -118.5 -31.5t-91 -83.5t-46.5 -115z" />
    <glyph glyph-name="uni043F" unicode="&#x43f;" horiz-adv-x="441" 
d="M421 460l-80 -460h-10l78 450h-276l-78 -450h-10l80 460h296z" />
    <glyph glyph-name="uni0440" unicode="&#x440;" horiz-adv-x="553" 
d="M22 -219h-10l118 679h10l-30 -171q17 47 48.5 88t74 66.5t94.5 26.5q63 0 103 -34t56.5 -89t7.5 -117q-10 -66 -44.5 -120.5t-87 -87t-115.5 -32.5q-54 1 -88 29.5t-50.5 72t-16.5 90.5zM484 230q8 60 -7.5 112.5t-53.5 85t-99 32.5q-55 -1 -101 -32.5t-77.5 -80.5
t-43.5 -102l-3 -22q-5 -38 1.5 -76.5t24.5 -71.5t47.5 -53.5t71.5 -20.5q61 -2 112 29.5t85 84t43 115.5z" />
    <glyph glyph-name="uni0441" unicode="&#x441;" horiz-adv-x="463" 
d="M61 230q-9 -60 9.5 -112t61.5 -84.5t106 -32.5q50 0 92 19t69 40l-2 -12q-27 -22 -69 -39.5t-91 -17.5q-67 0 -111.5 33.5t-64.5 88.5t-10 117q10 66 48 120.5t94.5 87t124.5 32.5q46 0 83 -17.5t58 -40.5l-2 -12q-20 23 -56.5 41.5t-83.5 18.5q-64 0 -118.5 -31.5
t-91 -83.5t-46.5 -115z" />
    <glyph glyph-name="uni0442" unicode="&#x442;" horiz-adv-x="271" 
d="M57 460h263l-2 -10h-126l-78 -450h-10l78 450h-126z" />
    <glyph glyph-name="uni0443" unicode="&#x443;" horiz-adv-x="426" 
d="M456 460l-408 -679h-12l145 240l-119 439h12l114 -428l257 428h11z" />
    <glyph glyph-name="uni0444" unicode="&#x444;" horiz-adv-x="568" 
d="M46 230q11 68 51 122t101 85.5t135 31.5l16 91h10l-16 -91q71 -1 120.5 -33.5t71.5 -86.5t12 -119q-11 -68 -51 -122t-101 -85.5t-135 -31.5l-15 -90h-10l15 90q-71 1 -120.5 33.5t-71.5 86.5t-12 119zM56 230q-11 -61 10 -112.5t68.5 -83.5t117.5 -33l79 458
q-72 -1 -130 -32t-96.5 -82.5t-48.5 -114.5zM537 230q10 61 -10.5 112.5t-68 83.5t-117.5 33l-79 -458q72 1 130 32t96 82.5t49 114.5z" />
    <glyph glyph-name="uni0445" unicode="&#x445;" horiz-adv-x="407" 
d="M387 459h14l-197 -222l128 -237h-14l-121 229l-200 -229h-15l210 237l-121 223h14l114 -214z" />
    <glyph glyph-name="uni0446" unicode="&#x446;" horiz-adv-x="480" 
d="M343 10h79l-18 -99h-10l16 89h-365l80 460h10l-78 -450h276l78 450h10z" />
    <glyph glyph-name="uni0447" unicode="&#x447;" horiz-adv-x="402" 
d="M111 460l-24 -132q-14 -90 14.5 -134t118.5 -44h98l54 310h10l-80 -460h-9l24 140h-97q-97 0 -127 48.5t-15 139.5l23 132h10z" />
    <glyph glyph-name="uni0448" unicode="&#x448;" horiz-adv-x="689" 
d="M324 10h257l78 450h10l-80 -460h-544l80 460h10l-78 -450h257l78 450h10z" />
    <glyph glyph-name="uni0449" unicode="&#x449;" horiz-adv-x="727" 
d="M324 10h257l78 450h10l-78 -450h78l-18 -99h-10l17 89h-613l80 460h10l-78 -450h257l78 450h10z" />
    <glyph glyph-name="uni044A" unicode="&#x44a;" horiz-adv-x="497" 
d="M216 450h-160l1 10h171l-31 -174h112q44 0 78.5 -16.5t51 -48.5t9.5 -78q-7 -47 -34 -79t-67 -48t-86 -16h-123zM308 276h-112l-46 -266h112q66 0 116.5 33.5t59.5 101.5q9 65 -30 98t-100 33z" />
    <glyph glyph-name="uni044B" unicode="&#x44b;" horiz-adv-x="533" 
d="M503 460h10l-79 -460h-10zM125 460h10l-31 -174h107q44 0 78.5 -16.5t51 -48.5t9.5 -78q-7 -47 -35 -79t-68.5 -48t-86.5 -16h-115zM210 276h-107l-46 -266h106q41 0 78.5 14.5t64.5 44t34 74.5q7 43 -9 72.5t-48 45t-73 15.5z" />
    <glyph glyph-name="uni044C" unicode="&#x44c;" horiz-adv-x="400" 
d="M125 460h10l-31 -174h107q44 0 78.5 -16.5t51.5 -49t10 -78.5q-8 -47 -36 -78.5t-68.5 -47.5t-83.5 -16h-118zM210 276h-107l-46 -266h106q65 2 115.5 34t61.5 99q7 43 -9 72.5t-48 45t-73 15.5z" />
    <glyph glyph-name="uni044D" unicode="&#x44d;" horiz-adv-x="473" 
d="M146 235h292q8 59 -11 110t-61.5 82.5t-104.5 32.5q-51 0 -93 -19.5t-69 -40.5l2 13q27 20 68.5 38.5t91.5 18.5q66 0 111 -34t64.5 -88.5t10.5 -117.5q-10 -66 -48 -120.5t-94.5 -86.5t-123.5 -32q-47 0 -84 16.5t-58 40.5l2 13q20 -24 56.5 -42.5t83.5 -18.5
q63 0 117 30.5t90.5 81.5t48.5 113h-293z" />
    <glyph glyph-name="uni044E" unicode="&#x44e;" horiz-adv-x="733" 
d="M250 230v5h-154l-41 -235h-10l80 460h10l-38 -215h155q13 62 51.5 113t93.5 81.5t120 30.5q66 -1 110.5 -34.5t64.5 -88t11 -117.5q-11 -65 -49 -120t-94.5 -87.5t-123.5 -31.5q-67 0 -111.5 33.5t-64.5 88.5t-10 117zM260 230q-9 -60 9.5 -112.5t61 -84.5t105.5 -32
q64 -1 118.5 30.5t91.5 83.5t47 115q9 60 -10 112.5t-61.5 84.5t-105.5 33q-64 0 -118.5 -31.5t-91 -83.5t-46.5 -115z" />
    <glyph glyph-name="uni044F" unicode="&#x44f;" horiz-adv-x="400" 
d="M37 0h-13l173 189q-50 10 -78 43t-19 91q7 47 34 77t67 44.5t86 15.5h118l-80 -460h-10l32 184h-106q-18 0 -33 3zM242 194h106l45 256h-107q-43 -1 -80.5 -14.5t-63 -41.5t-32.5 -72t9.5 -72t49 -41.5t73.5 -14.5z" />
    <glyph glyph-name="uni0450" unicode="&#x450;" horiz-adv-x="493" 
d="M194 699l9 7l141 -159l-5 -5zM436 106q-23 -27 -51.5 -54t-67.5 -44.5t-92 -16.5q-61 0 -99.5 35.5t-54.5 90.5t-9 115q6 41 22 76q18 44 50.5 81t75 59t92.5 22q55 -1 94 -32t58 -80t12 -104q-2 -6 -3.5 -13t-2.5 -13h-388q-5 -56 9.5 -108t50 -85.5t93.5 -33.5
q50 -1 87.5 16t65.5 43t51 53zM302 459q-57 0 -105.5 -29.5t-81.5 -80t-43 -111.5h380q11 53 -3.5 103.5t-52 84t-94.5 33.5z" />
    <glyph glyph-name="uni0451" unicode="&#x451;" horiz-adv-x="493" 
d="M392 577q1 11 12 11t10 -11q-1 -4 -5 -7.5t-8 -3.5q-10 0 -9 11zM198 577q1 11 12 11t10 -11q-1 -4 -5 -7.5t-8 -3.5q-10 0 -9 11zM436 106q-23 -27 -51.5 -54t-67.5 -44.5t-92 -16.5q-61 0 -99.5 35.5t-54.5 90.5t-9 115q6 41 22 76q18 44 50.5 81t75 59t92.5 22
q55 -1 94 -32t58 -80t12 -104q-2 -6 -3.5 -13t-2.5 -13h-388q-5 -56 9.5 -108t50 -85.5t93.5 -33.5q50 -1 87.5 16t65.5 43t51 53zM302 459q-57 0 -105.5 -29.5t-81.5 -80t-43 -111.5h380q11 53 -3.5 103.5t-52 84t-94.5 33.5z" />
    <glyph glyph-name="uni0453" unicode="&#x453;" horiz-adv-x="291" 
d="M385 686l-196 -155l-4 5l193 158zM129 460h209l-2 -10h-198l-78 -450h-10z" />
    <glyph glyph-name="uni045C" unicode="&#x45c;" horiz-adv-x="426" 
d="M462 711l-195 -155l-5 5l193 158zM130 460h10l-33 -187l263 186h16l-268 -189l207 -270h-14l-205 268l-46 -268h-10z" />
    <glyph glyph-name="uni045D" unicode="&#x45d;" horiz-adv-x="460" 
d="M171 712l9 8l139 -160l-6 -4zM140 460l-80 -458l378 488l4 5l-1 -1h1h-1l-85 -494h-10l79 458l-379 -489l-2 -3v0v0v1l86 493h10z" />
    <glyph glyph-name="uni045E" unicode="&#x45e;" horiz-adv-x="426" 
d="M148 670h10q-5 -51 25.5 -90t94.5 -39q44 -1 78 17.5t56.5 48t32.5 62.5h10q-10 -36 -33 -67.5t-59.5 -51.5t-84.5 -19q-48 0 -78 19.5t-43 51.5t-9 68zM455 460l-408 -679h-11l144 239v1v1l-119 438h12l114 -427l257 427h11z" />
    <glyph glyph-name="uni1E9E" unicode="&#x1e9e;" horiz-adv-x="646" 
d="M349 -9q-58 0 -96.5 27t-56 71.5t-11.5 95.5h9q-5 -49 11.5 -91t52.5 -67.5t91 -25.5q54 -1 99.5 24.5t76 67.5t39.5 92q9 58 -16 95.5t-72.5 56.5t-103.5 21v5v0l2 7q58 2 107 21t81.5 55t41.5 88q8 51 -14.5 88t-64 57t-90.5 21q-84 0 -147.5 -38t-103 -102.5
t-52.5 -143.5l-72 -416h-10l71 416q14 83 55 149.5t106.5 105.5t152.5 39q53 -1 96.5 -22t67 -60.5t15.5 -93.5q-14 -79 -74 -120.5t-144 -49.5q55 -5 98.5 -26t66 -59t13.5 -94q-9 -53 -41 -97t-80 -70.5t-104 -26.5z" />
    <glyph glyph-name="uni2010" unicode="&#x2010;" horiz-adv-x="203" 
d="M23 265l2 10h194l-2 -10h-194z" />
    <glyph glyph-name="figuredash" unicode="&#x2012;" horiz-adv-x="572" 
d="M86 265l2 10h437l-2 -10h-437z" />
    <glyph glyph-name="endash" unicode="&#x2013;" horiz-adv-x="718" 
d="M86 265l2 10h582l-1 -10h-583z" />
    <glyph glyph-name="emdash" unicode="&#x2014;" horiz-adv-x="863" 
d="M86 265l2 10h728l-2 -10h-728z" />
    <glyph glyph-name="quoteleft" unicode="&#x2018;" horiz-adv-x="218" 
d="M123 471h-13l134 228h10z" />
    <glyph glyph-name="quoteright" unicode="&#x2019;" horiz-adv-x="237" 
d="M261 699h12l-133 -228h-10z" />
    <glyph glyph-name="quotesinglbase" unicode="&#x201a;" horiz-adv-x="237" 
d="M137 79h12l-133 -228h-10z" />
    <glyph glyph-name="quotedblleft" unicode="&#x201c;" horiz-adv-x="373" 
d="M142 471h-12l133 228h10zM278 471h-12l133 228h10z" />
    <glyph glyph-name="quotedblright" unicode="&#x201d;" horiz-adv-x="373" 
d="M242 699h12l-133 -228h-11zM378 699h12l-134 -228h-10z" />
    <glyph glyph-name="dagger" unicode="&#x2020;" horiz-adv-x="485" 
d="M153 540h151l25 160h10l-25 -160h150l-1 -10h-151l-105 -680h-10l106 680h-151z" />
    <glyph glyph-name="daggerdbl" unicode="&#x2021;" horiz-adv-x="485" 
d="M89 120h150l64 410h-151l1 10h151l25 160h10l-25 -160h150l-1 -10h-151l-63 -410h151l-2 -10h-151l-40 -260h-10l40 260h-150z" />
    <glyph glyph-name="bullet" unicode="&#x2022;" horiz-adv-x="291" 
d="M154 376q0 11 11 11t11 -11t-11 -11t-11 11z" />
    <glyph glyph-name="ellipsis" unicode="&#x2026;" horiz-adv-x="788" 
d="M90 1q0 4 4 7.5t8 3.5q10 0 9 -11q0 -4 -4 -7.5t-8 -3.5q-10 0 -9 11zM357 1q1 11 12 11q10 0 9 -11q0 -4 -4 -7.5t-8 -3.5q-10 0 -9 11zM623 1q0 4 4 7.5t9 3.5q9 0 9 -11q-1 -11 -12 -11t-10 11z" />
    <glyph glyph-name="perthousand" unicode="&#x2030;" horiz-adv-x="1039" 
d="M103 561q7 40 30 74t59 54.5t80 20.5q44 -1 72.5 -22t40.5 -55t6 -73q-6 -41 -29.5 -75t-59.5 -54.5t-80 -19.5q-43 0 -72 21t-41 55.5t-6 73.5zM113 560q-6 -35 5 -67t37.5 -52.5t67.5 -20.5q41 -1 74.5 19t55.5 52t28 69q6 36 -5 67.5t-37.5 51.5t-66.5 21
q-41 0 -75 -19.5t-56 -51.5t-28 -69zM650 699h12l-564 -699h-12zM716 141q6 40 29.5 74t59.5 54.5t80 20.5q43 -1 71.5 -22t41 -55t6.5 -73q-7 -41 -30.5 -75t-59.5 -54.5t-79 -19.5q-44 0 -72.5 21t-40.5 55.5t-6 73.5zM357 141q6 40 29.5 74t59.5 54.5t80 20.5
q43 -1 71.5 -22t41 -55t6.5 -73q-7 -41 -30.5 -75t-59.5 -54.5t-79 -19.5q-44 0 -72.5 21t-40.5 55.5t-6 73.5zM726 140q-6 -35 4.5 -67t37 -52.5t67.5 -20.5q41 -1 74.5 19t55.5 52t29 69q5 36 -6 67.5t-37 51.5t-67 21q-41 0 -74.5 -19.5t-55.5 -51.5t-28 -69zM367 140
q-6 -35 4.5 -67t37 -52.5t67.5 -20.5q41 -1 74.5 19t55.5 52t29 69q5 36 -6 67.5t-37 51.5t-67 21q-41 0 -74.5 -19.5t-55.5 -51.5t-28 -69z" />
    <glyph glyph-name="uni2031" unicode="&#x2031;" horiz-adv-x="1398" 
d="M103 561q7 40 30 74t59 54.5t80 20.5q44 -1 72.5 -22t40.5 -55t6 -73q-6 -41 -29.5 -75t-59.5 -54.5t-80 -19.5q-43 0 -72 21t-41 55.5t-6 73.5zM113 560q-6 -35 5 -67t37.5 -52.5t67.5 -20.5q41 -1 74.5 19t55.5 52t28 69q6 36 -5 67.5t-37.5 51.5t-66.5 21
q-41 0 -75 -19.5t-56 -51.5t-28 -69zM650 699h12l-564 -699h-12zM716 141q6 40 29.5 74t59.5 54.5t80 20.5q43 -1 71.5 -22t41 -55t6.5 -73q-7 -41 -30.5 -75t-59.5 -54.5t-79 -19.5q-44 0 -72.5 21t-40.5 55.5t-6 73.5zM357 141q6 40 29.5 74t59.5 54.5t80 20.5
q43 -1 71.5 -22t41 -55t6.5 -73q-7 -41 -30.5 -75t-59.5 -54.5t-79 -19.5q-44 0 -72.5 21t-40.5 55.5t-6 73.5zM1075 141q6 40 29.5 74t59.5 54.5t80 20.5q44 -1 72 -22t40.5 -55t6.5 -73q-7 -41 -30.5 -75t-59.5 -54.5t-79 -19.5q-44 0 -72.5 21t-40.5 55.5t-6 73.5z
M1085 140q-6 -35 5 -67t37 -52.5t67 -20.5q41 -1 74.5 19t56 52t28.5 69q6 36 -5 67.5t-37.5 51.5t-67.5 21q-41 0 -74.5 -19.5t-55.5 -51.5t-28 -69zM726 140q-6 -35 4.5 -67t37 -52.5t67.5 -20.5q41 -1 74.5 19t55.5 52t29 69q5 36 -6 67.5t-37 51.5t-67 21
q-41 0 -74.5 -19.5t-55.5 -51.5t-28 -69zM367 140q-6 -35 4.5 -67t37 -52.5t67.5 -20.5q41 -1 74.5 19t55.5 52t29 69q5 36 -6 67.5t-37 51.5t-67 21q-41 0 -74.5 -19.5t-55.5 -51.5t-28 -69z" />
    <glyph glyph-name="guilsinglleft" unicode="&#x2039;" horiz-adv-x="315" 
d="M65 255l160 -228l-7 -7l-163 236l243 233l6 -7z" />
    <glyph glyph-name="guilsinglright" unicode="&#x203a;" horiz-adv-x="339" 
d="M308 255l-161 228l8 7l163 -236l-243 -233l-6 7z" />
    <glyph glyph-name="uni203D" unicode="&#x203d;" horiz-adv-x="540" 
d="M304 510h11l-30 -164q52 4 98 27t77.5 60.5t41.5 86.5q8 48 -7.5 89t-52 65.5t-92.5 25.5q-67 0 -116 -32.5t-88 -79.5l-8 6q40 48 91 82t122 34q58 -1 97 -27t55.5 -68.5t8.5 -94.5q-10 -52 -43.5 -91.5t-81.5 -63.5t-103 -27h-1l-30 -167h-6zM211 1q0 4 4 7.5t8 3.5
q10 0 10 -11q-1 -4 -5 -7.5t-8 -3.5q-10 0 -9 11z" />
    <glyph glyph-name="fraction" unicode="&#x2044;" horiz-adv-x="684" 
d="M708 699h12l-676 -699h-12z" />
    <glyph glyph-name="uni2070" unicode="&#x2070;" horiz-adv-x="314" 
d="M90 490q5 38 18.5 76t34.5 69.5t49 51t63 19.5q35 -1 55.5 -21.5t29.5 -53t10 -70t-3 -71.5q-5 -38 -18.5 -76t-34.5 -69.5t-49 -51t-63 -18.5q-35 0 -55.5 20.5t-29.5 53t-10 70t3 71.5zM97 490q-4 -32 -3.5 -68t8.5 -68t27 -52.5t53 -20.5q33 -1 60 18t47 50t33 68
t18 73q4 32 3.5 68t-8.5 68t-27 52.5t-53 21.5q-33 0 -60 -19t-47 -50t-33 -68t-18 -73z" />
    <glyph glyph-name="uni2074" unicode="&#x2074;" horiz-adv-x="360" 
d="M69 364l1 1h-2l282 335h1l-57 -330h64l-1 -6h-64l-15 -83h-7l15 83h-217zM341 679l-261 -309h207z" />
    <glyph glyph-name="uni2075" unicode="&#x2075;" horiz-adv-x="330" 
d="M201 692l-83 -198l-14 -19l93 223h192l-1 -6h-187zM331 416q-6 -42 -28.5 -74.5t-55.5 -51t-72 -17.5q-46 0 -70.5 24t-36.5 63l6 3q12 -38 34.5 -61t66.5 -23q56 -1 98.5 38t51.5 99q6 48 -17 85t-71 39q-40 1 -72.5 -18.5t-59.5 -46.5l13 19q18 21 50 36.5t69 15.5
q34 -1 56.5 -19.5t32 -48t5.5 -62.5z" />
    <glyph glyph-name="uni2076" unicode="&#x2076;" horiz-adv-x="322" 
d="M295 697h8l-179 -205v0q22 20 50.5 34.5t62.5 13.5q35 0 58.5 -19.5t34.5 -49t6 -61.5q-5 -38 -26 -69.5t-53 -50t-71 -17.5q-40 0 -65 19t-35 50.5t-4 67.5q4 26 18.5 51.5t30.5 43.5zM88 410q-6 -34 3.5 -64t33.5 -48.5t61 -18.5q37 -1 67.5 17t51 48.5t26.5 65.5
q4 31 -6 59t-32.5 46t-54.5 19q-39 0 -71 -17.5t-53 -46t-26 -60.5z" />
    <glyph glyph-name="uni2077" unicode="&#x2077;" horiz-adv-x="341" 
d="M126 694v6h275l-288 -419h-7l283 413h-263z" />
    <glyph glyph-name="uni2078" unicode="&#x2078;" horiz-adv-x="293" 
d="M73 392q5 28 23 52.5t44.5 40t55.5 17.5q-36 5 -58 35.5t-16 68.5q4 26 21 48.5t42.5 37t54.5 14.5q43 -1 66.5 -32.5t17.5 -68.5q-4 -26 -20.5 -48.5t-40 -37.5t-48.5 -17q41 -4 65.5 -36.5t18.5 -74.5q-7 -48 -43.5 -82.5t-88.5 -33.5q-53 0 -77 35.5t-17 81.5z
M127 606q-4 -26 6.5 -48.5t29.5 -37t42 -14.5q23 -1 48 13t43 36.5t22 49.5q6 36 -16 65t-62 30q-28 0 -52 -13t-40.5 -34.5t-20.5 -46.5zM79 391q-7 -44 15.5 -77t72.5 -33q49 -1 84 31.5t42 78.5q6 43 -19.5 75t-67.5 33q-29 0 -56 -14.5t-46.5 -39t-24.5 -54.5z" />
    <glyph glyph-name="uni2079" unicode="&#x2079;" horiz-adv-x="322" 
d="M141 283l-7 1l177 204l1 1q-23 -21 -51.5 -35.5t-61.5 -13.5q-34 1 -58.5 20t-35.5 48.5t-6 62.5q6 37 26.5 68.5t52.5 50t72 18.5q39 -1 64 -20t35.5 -50.5t4.5 -67.5q-4 -26 -19 -51.5t-30 -43.5zM348 570q5 34 -4.5 64t-33 48.5t-60.5 19.5q-37 0 -68 -18t-51 -48
t-26 -66q-4 -31 6 -59t32.5 -46t55.5 -18q39 -1 70.5 16.5t52 46t26.5 60.5z" />
    <glyph glyph-name="uni2080" unicode="&#x2080;" horiz-adv-x="324" 
d="M43 210q5 38 18 76t34 69.5t49 51t63 19.5q35 -1 55.5 -21.5t29.5 -53t10 -70t-3 -71.5q-5 -38 -18.5 -76t-34 -69.5t-48.5 -51t-63 -18.5q-36 0 -56.5 20.5t-29.5 53t-9.5 70t3.5 71.5zM50 210q-4 -32 -4 -68t8 -68t27 -52.5t53 -20.5q33 -1 60 18t47 50t33 68t18 73
q4 32 3.5 68t-8.5 68t-27 52.5t-52 21.5q-34 0 -61 -19t-47 -50t-32.5 -68t-17.5 -73z" />
    <glyph glyph-name="uni2081" unicode="&#x2081;" horiz-adv-x="279" 
d="M134 394l1 7l109 23l-73 -422h-6l71 414z" />
    <glyph glyph-name="uni2082" unicode="&#x2082;" horiz-adv-x="322" 
d="M2 3l221 200q24 23 46.5 49t28.5 62q4 25 -3 49.5t-27.5 41.5t-54.5 18q-39 0 -67.5 -20.5t-47 -53.5t-26.5 -70h-6q8 39 27.5 73.5t49.5 55.5t70 21q35 -1 57 -18.5t30 -44t4 -52.5q-6 -36 -28.5 -64t-47.5 -51l-209 -190l249 -1l-1 -6z" />
    <glyph glyph-name="uni2083" unicode="&#x2083;" horiz-adv-x="308" 
d="M126 -5q-58 0 -83.5 34t-21.5 82h6q-3 -46 20 -78t79 -32q50 -1 88.5 29t45.5 75q6 36 -11.5 59.5t-46 36t-56.5 15.5v2v0v5q29 2 58.5 13t52 32t28.5 52q7 37 -15.5 68t-67.5 32q-49 0 -80.5 -30.5t-42.5 -72.5h-6q11 45 44 77t85 32q48 -1 72 -34t17 -72
q-8 -46 -47.5 -70.5t-84.5 -30.5q30 -5 56.5 -18.5t41 -37.5t9.5 -58q-7 -48 -47.5 -79.5t-92.5 -30.5z" />
    <glyph glyph-name="uni2084" unicode="&#x2084;" horiz-adv-x="360" 
d="M22 84l1 1h-1l281 335h2l-58 -330h64l-1 -6h-64l-14 -84h-7l14 84h-217zM294 399l-261 -309h207z" />
    <glyph glyph-name="uni2085" unicode="&#x2085;" horiz-adv-x="330" 
d="M154 412l-83 -198l-13 -19l93 223h192l-1 -6h-188zM284 136q-6 -42 -28.5 -74.5t-55.5 -51t-72 -17.5q-46 0 -70 24t-36 63l5 3q12 -38 34.5 -61t66.5 -23q56 -1 98.5 38t51.5 99q7 48 -16.5 85t-71.5 39q-40 1 -72.5 -18.5t-59.5 -46.5l13 19q18 21 50 36.5t69 15.5
q34 -1 56.5 -19.5t32.5 -48t5 -62.5z" />
    <glyph glyph-name="uni2086" unicode="&#x2086;" horiz-adv-x="322" 
d="M247 417h8l-179 -205v0q22 20 51 34.5t63 13.5q34 0 58 -19.5t34.5 -49t6.5 -61.5q-6 -38 -27 -69.5t-53 -50t-71 -17.5q-40 0 -65 19t-35 50.5t-4 67.5q4 26 18.5 51.5t30.5 43.5zM40 130q-6 -34 3.5 -64t33.5 -48.5t61 -18.5q37 -1 67.5 17t51 48.5t26.5 65.5
q4 31 -6 59t-32.5 46t-54.5 19q-39 0 -71 -17.5t-53 -46t-26 -60.5z" />
    <glyph glyph-name="uni2087" unicode="&#x2087;" horiz-adv-x="341" 
d="M78 414l1 6h274l-288 -420h-7l283 414h-263z" />
    <glyph glyph-name="uni2088" unicode="&#x2088;" horiz-adv-x="293" 
d="M26 112q4 28 22.5 52.5t44.5 40t55 17.5q-36 5 -58 35.5t-16 68.5q4 26 21 48.5t42.5 37t54.5 14.5q43 -1 67 -32.5t18 -68.5q-4 -26 -20.5 -48.5t-40 -37.5t-48.5 -17q41 -4 65 -36.5t19 -74.5q-5 -32 -23.5 -58.5t-46.5 -42.5t-63 -15q-53 0 -77 35.5t-16 81.5zM80 326
q-4 -26 6 -48.5t29 -37t42 -14.5q23 -1 48 13t43.5 36.5t22.5 49.5q5 36 -16.5 65t-62.5 30q-27 0 -51.5 -13t-40.5 -34.5t-20 -46.5zM32 111q-8 -44 14.5 -77t72.5 -33q49 -1 84.5 31.5t42.5 78.5q6 43 -20 75t-68 33q-29 0 -56 -14.5t-46 -39t-24 -54.5z" />
    <glyph glyph-name="uni2089" unicode="&#x2089;" horiz-adv-x="322" 
d="M93 3l-7 1l178 204v1q-22 -21 -51 -35.5t-62 -13.5q-34 1 -58.5 20t-35.5 48.5t-6 62.5q6 37 26.5 68.5t53 50t71.5 18.5q40 -1 65 -20t35 -50.5t4 -67.5q-4 -26 -18.5 -51.5t-30.5 -43.5zM300 290q5 34 -4.5 64t-33 48.5t-60.5 19.5q-37 0 -68 -18t-51 -48t-26 -66
q-4 -31 6 -59t33 -46t55 -18q39 -1 70.5 16.5t52 46t26.5 60.5z" />
    <glyph glyph-name="Euro" unicode="&#x20ac;" horiz-adv-x="679" 
d="M101 325l2 10h73q1 7 2 15q7 49 23 95h-79l1 10h81q25 71 69 128.5t104 92t134 34.5q38 0 73 -11t67 -29l-3 -15q-61 45 -138 45q-72 0 -129.5 -32.5t-99.5 -88t-67 -124.5h396l-2 -10h-397q-16 -46 -23 -95q-1 -8 -2 -15h378l-2 -10h-377q-5 -60 3 -117.5t32 -104
t66 -74.5t104 -28q42 -1 81 11.5t73 33.5l-3 -15q-35 -18 -73 -29.5t-79 -10.5q-66 0 -110 28.5t-68.5 76.5t-32.5 107.5t-3 121.5h-74z" />
    <glyph glyph-name="trademark" unicode="&#x2122;" horiz-adv-x="645" 
d="M403 708l-1 -3l85 -289l187 290v2v-1v0v0l-26 -357h-5l23 337l-181 -285l-84 285l-92 -336h-6l98 353l1 4v-2zM130 694v6h191l-1 -6h-93l-60 -343h-5l60 343h-92z" />
    <glyph glyph-name="uni2150" unicode="&#x2150;" horiz-adv-x="817" 
d="M695 699h12l-676 -699h-12zM107 667l1 7l110 23l-74 -422h-6l72 414zM551 414l1 6h275l-288 -420h-8l284 414h-264z" />
    <glyph glyph-name="uni2151" unicode="&#x2151;" horiz-adv-x="760" 
d="M695 699h12l-676 -699h-12zM107 667l1 7l110 23l-74 -422h-6l72 414zM518 3l-7 1l178 204v1q-22 -21 -51 -35.5t-62 -13.5q-34 1 -58 20t-35 48.5t-6 62.5q5 37 26 68.5t53 50t71 18.5q40 -1 65 -20t35 -50.5t4 -67.5q-4 -26 -18.5 -51.5t-30.5 -43.5zM725 290
q5 34 -4.5 64t-33 48.5t-60.5 19.5q-37 0 -68 -18t-51 -48t-26 -66q-4 -31 6 -59t33 -46t55 -18q39 -1 70.5 16.5t52 46t26.5 60.5z" />
    <glyph glyph-name="uni2152" unicode="&#x2152;" horiz-adv-x="1048" 
d="M695 699h12l-676 -699h-12zM107 667l1 7l110 23l-74 -422h-6l72 414zM730 210q5 38 18 76t34 69.5t49 51t64 19.5q35 -1 55.5 -21.5t29.5 -53t9.5 -70t-2.5 -71.5q-6 -38 -19 -76t-34 -69.5t-49 -51t-63 -18.5q-36 0 -56.5 20.5t-29.5 53t-9.5 70t3.5 71.5zM461 394l1 7
l109 23l-73 -422h-6l71 414zM737 210q-4 -32 -3.5 -68t8.5 -68t27 -52.5t53 -20.5q33 -1 60 18t47 50t32.5 68t17.5 73q4 32 3.5 68t-8.5 68t-27 52.5t-52 21.5q-34 0 -61 -19t-47 -50t-32.5 -68t-17.5 -73z" />
    <glyph glyph-name="onethird" unicode="&#x2153;" horiz-adv-x="732" 
d="M695 699h12l-676 -699h-12zM107 667l1 7l110 23l-74 -422h-6l72 414zM551 -5q-58 0 -83.5 34t-21.5 82h6q-3 -46 20 -78t79 -32q50 -1 88.5 29t45.5 75q6 36 -11.5 59.5t-46 36t-56.5 15.5v2v0l1 5q28 2 58 13t52 32t28 52q7 37 -15.5 68t-67.5 32q-49 0 -80.5 -30.5
t-42.5 -72.5h-6q11 45 44 77t85 32q48 -1 72 -34t17 -72q-8 -46 -47.5 -70.5t-84.5 -30.5q30 -5 56.5 -18.5t41 -37.5t9.5 -58q-7 -48 -47.5 -79.5t-92.5 -30.5z" />
    <glyph glyph-name="twothirds" unicode="&#x2154;" horiz-adv-x="855" 
d="M53 283l220 200q24 23 46.5 49t28.5 62q5 25 -2.5 49.5t-27.5 41.5t-54 18q-39 0 -67.5 -20.5t-47.5 -53.5t-26 -70h-6q8 39 27 73.5t49.5 55.5t70.5 21q35 -1 56.5 -18.5t30 -44t3.5 -52.5q-6 -36 -28.5 -64t-47.5 -51l-209 -190l249 -1l-1 -6zM819 699h12l-677 -699
h-12zM674 -5q-58 0 -83 34t-21 82h6q-4 -46 19 -78t79 -32q50 -1 88.5 29t45.5 75q6 36 -11.5 59.5t-46 36t-56.5 15.5v2v0l1 5q28 2 58 13t52 32t28 52q7 37 -15.5 68t-67.5 32q-49 0 -80.5 -30.5t-42.5 -72.5h-6q12 45 44.5 77t84.5 32q49 -1 72.5 -34t16.5 -72
q-8 -46 -47.5 -70.5t-84.5 -30.5q30 -5 56.5 -18.5t41 -37.5t9.5 -58q-7 -48 -47 -79.5t-93 -30.5z" />
    <glyph glyph-name="uni2155" unicode="&#x2155;" horiz-adv-x="722" 
d="M695 699h12l-676 -699h-12zM107 667l1 7l110 23l-74 -422h-6l72 414zM530 412l-84 -198l-13 -19l93 223h192l-1 -6h-187zM660 136q-6 -42 -28.5 -74.5t-55.5 -51t-72 -17.5q-46 0 -70.5 24t-36.5 63l5 3q12 -38 35 -61t67 -23q56 -1 98.5 38t51.5 99q6 48 -17 85t-72 39
q-39 1 -72 -18.5t-59 -46.5l13 19q18 21 50 36.5t68 15.5q34 -1 57 -19.5t32.5 -48t5.5 -62.5z" />
    <glyph glyph-name="uni2156" unicode="&#x2156;" horiz-adv-x="845" 
d="M53 283l220 200q24 23 46.5 49t28.5 62q5 25 -2.5 49.5t-27.5 41.5t-54 18q-39 0 -67.5 -20.5t-47.5 -53.5t-26 -70h-6q8 39 27 73.5t49.5 55.5t70.5 21q35 -1 56.5 -18.5t30 -44t3.5 -52.5q-6 -36 -28.5 -64t-47.5 -51l-209 -190l249 -1l-1 -6zM819 699h12l-677 -699
h-12zM653 412l-83 -198l-14 -19l93 223h192l-1 -6h-187zM783 136q-6 -42 -28.5 -74.5t-55.5 -51t-72 -17.5q-46 0 -70.5 24t-36.5 63l6 3q12 -38 34.5 -61t66.5 -23q56 -1 98.5 38t51.5 99q6 48 -17 85t-71 39q-40 1 -72.5 -18.5t-59.5 -46.5l13 19q18 21 50 36.5t69 15.5
q34 -1 56.5 -19.5t32 -48t5.5 -62.5z" />
    <glyph glyph-name="uni2157" unicode="&#x2157;" horiz-adv-x="806" 
d="M178 275q-58 0 -83 34t-21 82h6q-4 -46 19 -78t79 -32q50 -1 88.5 29t46.5 75q5 36 -12.5 59.5t-46 36t-56.5 15.5v2v0l1 5q29 2 58.5 13t52 32t28.5 52q6 37 -16.5 68t-67.5 32q-49 0 -80.5 -30.5t-42.5 -72.5h-6q12 45 45 77t85 32q48 -1 72 -34t16 -72
q-8 -46 -47.5 -70.5t-83.5 -30.5q29 -5 55.5 -18.5t41.5 -37.5t10 -58q-8 -48 -48 -79.5t-93 -30.5zM780 699h12l-676 -699h-13zM614 412l-83 -198l-13 -19l93 223h192l-1 -6h-188zM744 136q-6 -42 -28 -74.5t-55.5 -51t-72.5 -17.5q-46 0 -70 24t-36 63l5 3
q12 -38 34.5 -61t66.5 -23q56 -1 98.5 38t51.5 99q7 48 -16.5 85t-71.5 39q-40 1 -72.5 -18.5t-59.5 -46.5l13 19q18 21 50 36.5t69 15.5q34 -1 56.5 -19.5t32.5 -48t5 -62.5z" />
    <glyph glyph-name="uni2158" unicode="&#x2158;" horiz-adv-x="840" 
d="M69 364l1 1h-2l282 335h1l-57 -330h64l-1 -6h-64l-15 -83h-7l15 83h-217zM814 699h12l-676 -699h-13zM341 679l-261 -309h207zM648 412l-83 -198l-13 -19l93 223h191v-6h-188zM778 136q-6 -42 -28 -74.5t-55.5 -51t-72.5 -17.5q-46 0 -70 24t-36 63l5 3q12 -38 34.5 -61
t66.5 -23q56 -1 98.5 38t51.5 99q6 48 -17 85t-71 39q-40 1 -72.5 -18.5t-59.5 -46.5l13 19q18 21 50 36.5t69 15.5q34 -1 56.5 -19.5t32.5 -48t5 -62.5z" />
    <glyph glyph-name="uni2159" unicode="&#x2159;" horiz-adv-x="712" 
d="M695 699h12l-676 -699h-12zM107 667l1 7l110 23l-74 -422h-6l72 414zM623 417h9l-179 -205v0q22 20 50.5 34.5t62.5 13.5q35 0 58.5 -19.5t34.5 -49t6 -61.5q-5 -38 -26 -69.5t-53 -50t-71 -17.5q-40 0 -65 19t-35 50.5t-5 67.5q5 26 19.5 51.5t30.5 43.5zM416 130
q-5 -34 4.5 -64t33.5 -48.5t61 -18.5q37 -1 67.5 17t51 48.5t25.5 65.5q5 31 -5.5 59t-33 46t-54.5 19q-39 0 -71 -17.5t-52.5 -46t-26.5 -60.5z" />
    <glyph glyph-name="uni215A" unicode="&#x215a;" horiz-adv-x="830" 
d="M814 699h12l-676 -699h-13zM201 692l-83 -198l-14 -19l93 223h192l-1 -6h-187zM331 416q-6 -42 -28.5 -74.5t-55.5 -51t-72 -17.5q-46 0 -70.5 24t-36.5 63l6 3q12 -38 34.5 -61t66.5 -23q56 -1 98.5 38t51.5 99q6 48 -17 85t-71 39q-40 1 -72.5 -18.5t-59.5 -46.5l13 19
q18 21 50 36.5t69 15.5q34 -1 56.5 -19.5t32 -48t5.5 -62.5zM742 417h8l-179 -205v0q22 20 51 34.5t63 13.5q34 0 58 -19.5t34.5 -49t6.5 -61.5q-6 -38 -27 -69.5t-53 -50t-71 -17.5q-40 0 -65 19t-35 50.5t-4 67.5q4 26 18.5 51.5t30.5 43.5zM535 130q-6 -34 3.5 -64
t33.5 -48.5t61 -18.5q37 -1 67.5 17t51 48.5t26.5 65.5q4 31 -6 59t-32.5 46t-54.5 19q-39 0 -71 -17.5t-53 -46t-26 -60.5z" />
    <glyph glyph-name="oneeighth" unicode="&#x215b;" horiz-adv-x="737" 
d="M695 699h12l-676 -699h-12zM107 667l1 7l110 23l-74 -422h-6l72 414zM451 112q4 28 22.5 52.5t44.5 40t55 17.5q-36 5 -58 35.5t-16 68.5q4 26 21 48.5t42.5 37t54.5 14.5q43 -1 67 -32.5t18 -68.5q-4 -26 -20.5 -48.5t-40 -37.5t-48.5 -17q41 -4 65 -36.5t19 -74.5
q-5 -32 -23.5 -58.5t-46.5 -42.5t-63 -15q-53 0 -77 35.5t-16 81.5zM505 326q-4 -26 6 -48.5t29 -37t42 -14.5q23 -1 48 13t43.5 36.5t22.5 49.5q5 36 -16.5 65t-62.5 30q-27 0 -51.5 -13t-40.5 -34.5t-20 -46.5zM457 111q-8 -44 14.5 -77t72.5 -33q49 -1 84.5 31.5
t42.5 78.5q6 43 -20 75t-68 33q-29 0 -56 -14.5t-46 -39t-24 -54.5z" />
    <glyph glyph-name="threeeighths" unicode="&#x215c;" horiz-adv-x="821" 
d="M178 275q-58 0 -83 34t-21 82h6q-4 -46 19 -78t79 -32q50 -1 88.5 29t46.5 75q5 36 -12.5 59.5t-46 36t-56.5 15.5v2v0l1 5q29 2 58.5 13t52 32t28.5 52q6 37 -16.5 68t-67.5 32q-49 0 -80.5 -30.5t-42.5 -72.5h-6q12 45 45 77t85 32q48 -1 72 -34t16 -72
q-8 -46 -47.5 -70.5t-83.5 -30.5q29 -5 55.5 -18.5t41.5 -37.5t10 -58q-8 -48 -48 -79.5t-93 -30.5zM780 699h12l-676 -699h-13zM535 112q5 28 23 52.5t44.5 40t55.5 17.5q-36 5 -58 35.5t-17 68.5q4 26 21.5 48.5t43 37t54.5 14.5q42 -1 66 -32.5t18 -68.5
q-4 -26 -20.5 -48.5t-40 -37.5t-48.5 -17q41 -4 65.5 -36.5t18.5 -74.5q-4 -32 -22.5 -58.5t-47 -42.5t-63.5 -15q-52 0 -76 35.5t-17 81.5zM589 326q-4 -26 6 -48.5t29.5 -37t42.5 -14.5q23 -1 47.5 13t43 36.5t22.5 49.5q6 36 -16 65t-62 30q-28 0 -52 -13t-40.5 -34.5
t-20.5 -46.5zM541 111q-7 -44 15.5 -77t71.5 -33q49 -1 84.5 31.5t42.5 78.5q6 43 -20 75t-68 33q-28 0 -55.5 -14.5t-46.5 -39t-24 -54.5z" />
    <glyph glyph-name="fiveeighths" unicode="&#x215d;" horiz-adv-x="855" 
d="M814 699h12l-676 -699h-13zM201 692l-83 -198l-14 -19l93 223h192l-1 -6h-187zM331 416q-6 -42 -28.5 -74.5t-55.5 -51t-72 -17.5q-46 0 -70.5 24t-36.5 63l6 3q12 -38 34.5 -61t66.5 -23q56 -1 98.5 38t51.5 99q6 48 -17 85t-71 39q-40 1 -72.5 -18.5t-59.5 -46.5l13 19
q18 21 50 36.5t69 15.5q34 -1 56.5 -19.5t32 -48t5.5 -62.5zM569 112q5 28 23 52.5t44 40t55 17.5q-36 5 -57.5 35.5t-16.5 68.5q4 26 21.5 48.5t43 37t54.5 14.5q42 -1 66 -32.5t18 -68.5q-4 -26 -20.5 -48.5t-40 -37.5t-48.5 -17q41 -4 65.5 -36.5t18.5 -74.5
q-4 -32 -22.5 -58.5t-47 -42.5t-63.5 -15q-52 0 -76 35.5t-17 81.5zM623 326q-4 -26 6 -48.5t29.5 -37t42.5 -14.5q23 -1 47.5 13t43 36.5t22.5 49.5q6 36 -16 65t-62 30q-28 0 -52 -13t-40.5 -34.5t-20.5 -46.5zM575 111q-7 -44 15.5 -77t71.5 -33q49 -1 84.5 31.5
t42.5 78.5q6 43 -20 75t-68 33q-28 0 -55.5 -14.5t-46.5 -39t-24 -54.5z" />
    <glyph glyph-name="seveneighths" unicode="&#x215e;" horiz-adv-x="749" 
d="M127 694v6h275l-288 -419h-7l283 413h-263zM708 699h12l-676 -699h-12zM463 112q5 28 23 52.5t44.5 40t55.5 17.5q-36 5 -58 35.5t-17 68.5q4 26 21.5 48.5t43 37t54.5 14.5q42 -1 66 -32.5t18 -68.5q-4 -26 -20.5 -48.5t-40 -37.5t-48.5 -17q41 -4 65.5 -36.5
t18.5 -74.5q-7 -48 -43.5 -82.5t-88.5 -33.5q-53 0 -77 35.5t-17 81.5zM517 326q-4 -26 6.5 -48.5t29.5 -37t42 -14.5q23 -1 48 13t43 36.5t22 49.5q6 36 -16 65t-62 30q-28 0 -52 -13t-40.5 -34.5t-20.5 -46.5zM469 111q-7 -44 15.5 -77t72.5 -33q49 -1 84 31.5t42 78.5
q6 43 -19.5 75t-67.5 33q-29 0 -56 -14.5t-46.5 -39t-24.5 -54.5z" />
    <glyph glyph-name="minus" unicode="&#x2212;" horiz-adv-x="572" 
d="M86 265l2 10h437l-2 -10h-437z" />
    <glyph glyph-name="uni2219" unicode="&#x2219;" horiz-adv-x="252" 
d="M165 449q0 4 4 7.5t9 3.5q9 0 9 -11q-1 -4 -5 -7.5t-8 -3.5q-10 0 -9 11z" />
    <glyph glyph-name="uniFF10" unicode="&#xff10;" horiz-adv-x="533" 
d="M86 350q9 63 31 127t56.5 116.5t81.5 84.5t106 32q47 -1 78 -23.5t48.5 -60.5t25 -84.5t6.5 -96.5t-6 -95q-9 -63 -31 -127t-56.5 -116.5t-81.5 -84.5t-105 -31q-48 0 -79 22.5t-48.5 60.5t-25 84.5t-6.5 96.5t6 95zM97 350q-5 -42 -6 -90t5.5 -94t23 -83.5t45.5 -60
t74 -22.5q56 0 101 31.5t78 83.5t54.5 113.5t29.5 121.5q5 42 6 90t-5.5 94t-23 83t-45.5 59.5t-74 23.5q-56 0 -101 -31.5t-78 -83.5t-54.5 -113.5t-29.5 -121.5z" />
    <glyph glyph-name="uniFF11" unicode="&#xff11;" horiz-adv-x="533" 
d="M246 655l2 11l182 39l-122 -705h-10l119 691z" />
    <glyph glyph-name="uniFF12" unicode="&#xff12;" horiz-adv-x="533" 
d="M16 0l367 334q41 38 77.5 81t46.5 104q8 41 -4 83t-45.5 70t-91.5 29q-64 0 -112 -34t-79 -89t-43 -117h-10q13 65 45 122.5t82.5 92.5t117.5 35q60 -1 96 -30.5t49.5 -73.5t5.5 -88q-10 -61 -47 -106.5t-79 -84.5l-350 -317l416 -1l-1 -10h-441z" />
    <glyph glyph-name="uniFF13" unicode="&#xff13;" horiz-adv-x="533" 
d="M242 -9q-64 0 -105 26t-58.5 70.5t-11.5 97.5h10q-6 -52 10.5 -93.5t55 -66t99.5 -24.5q56 0 104 22.5t79.5 62t39.5 89.5q7 44 -8 78t-44.5 57t-66 35.5t-71.5 14.5v3v0l2 8q47 2 97 21t86.5 54t46.5 87q7 42 -7.5 79.5t-48 62t-84.5 25.5q-55 0 -96.5 -23.5t-69 -62.5
t-38.5 -87h-10q12 51 40.5 92.5t72.5 66t101 24.5q55 -1 91 -26.5t51 -65.5t7 -84q-8 -51 -40.5 -86t-78.5 -56t-95 -27q49 -7 91.5 -30.5t66 -63.5t15.5 -96q-9 -54 -42 -95.5t-82.5 -65t-108.5 -23.5z" />
    <glyph glyph-name="uniFF14" unicode="&#xff14;" horiz-adv-x="533" 
d="M498 140h-105l-24 -140h-11l24 140l-362 1l467 559h2l-95 -550h106zM472 665l-433 -515h345z" />
    <glyph glyph-name="uniFF15" unicode="&#xff15;" horiz-adv-x="533" 
d="M485 230q-10 -71 -47 -125t-92 -84.5t-121 -29.5q-76 0 -118 40t-59 106l8 5q18 -64 57 -102.5t113 -38.5q62 -1 115 28.5t88.5 81.5t45.5 119q8 53 -7.5 99.5t-51 76t-89.5 29.5q-66 2 -120 -28.5t-97 -76.5l-1 -2v1v0v0l153 371h321l-2 -10h-314l-135 -330q30 36 82 61
t113 25q57 -1 95 -31.5t54.5 -79t8.5 -105.5z" />
    <glyph glyph-name="uniFF16" unicode="&#xff16;" horiz-adv-x="533" 
d="M420 699h12l-295 -343h-1q37 35 85 58.5t104 22.5q57 -1 96.5 -32.5t57.5 -81t10 -103.5q-9 -63 -43.5 -115.5t-87.5 -83.5t-119 -30q-67 0 -108.5 32t-58 84.5t-6.5 112.5q7 44 30.5 86t50.5 73zM76 220q-9 -56 7 -106t55 -81.5t101 -31.5q62 -1 113 29t84.5 80.5
t43.5 109.5q7 52 -10 99t-54.5 77t-91.5 31q-65 0 -118 -29t-87 -76.5t-43 -101.5z" />
    <glyph glyph-name="uniFF17" unicode="&#xff17;" horiz-adv-x="533" 
d="M141 690l2 10h457l-480 -700h-10l472 690h-441z" />
    <glyph glyph-name="uniFF18" unicode="&#xff18;" horiz-adv-x="533" 
d="M83 185q8 48 37 88t71.5 66t89.5 31q-38 7 -66.5 32t-42.5 61.5t-8 77.5q7 44 35.5 82.5t70.5 62.5t91 24q48 -1 81.5 -25.5t49 -63t9.5 -80.5q-7 -43 -33 -80t-64 -61.5t-79 -29.5q44 -6 77 -32.5t48.5 -66.5t8.5 -86q-8 -53 -38 -97.5t-76.5 -71t-105.5 -25.5
q-59 0 -96.5 27t-52.5 71.5t-7 95.5zM174 541q-6 -42 10.5 -79.5t48 -61.5t70.5 -24q40 -1 80.5 22t70.5 61t37 82q6 41 -8 77t-45.5 58.5t-77.5 23.5q-46 0 -86 -22t-66.5 -58.5t-33.5 -78.5zM94 185q-8 -49 6 -91t49 -67.5t90 -25.5q55 -1 99.5 24t73.5 67t37 93
q7 48 -10.5 88.5t-53.5 65.5t-82 26q-48 0 -93 -24.5t-76.5 -65t-39.5 -90.5z" />
    <glyph glyph-name="uniFF19" unicode="&#xff19;" horiz-adv-x="533" 
d="M179 0h-12l295 344l1 1q-38 -36 -85.5 -59.5t-102.5 -22.5q-58 1 -97.5 32.5t-57.5 81t-10 103.5q10 63 44 115.5t87 83.5t120 31q66 -1 107.5 -33t58 -84.5t7.5 -112.5q-8 -44 -31.5 -86t-50.5 -73zM524 480q8 57 -8 106.5t-55 81t-101 32.5q-62 0 -113 -30t-84.5 -80
t-42.5 -110q-8 -52 9 -99t54.5 -77t91.5 -30q65 -1 117.5 28t87 76.5t44.5 101.5z" />
    <glyph glyph-name="amacron.alt" horiz-adv-x="422" 
d="M123 550l2 10h340l-2 -10h-340zM122 396l-6 8q31 24 71.5 45t91.5 21q44 -1 68 -22t32 -54.5t3 -73.5l-55 -320h-10l20 119q-22 -53 -68 -90.5t-110 -37.5q-40 0 -70.5 17.5t-45.5 50t-8 77.5q7 46 37.5 78.5t73.5 49.5t89 17q45 0 74 -13t49 -30l15 82q4 38 -3 69
t-29 50.5t-63 20.5q-47 1 -86 -19.5t-70 -44.5zM45 135q-10 -63 24.5 -99t90.5 -36q44 1 81 21.5t63 54t38 72.5l14 80q-21 18 -51 30.5t-71 12.5q-42 0 -83 -16t-70 -46t-36 -74z" />
    <glyph glyph-name="aacute.alt" horiz-adv-x="422" 
d="M432 706l-194 -155l-6 5l193 158zM122 396l-6 8q31 24 71.5 45t91.5 21q44 -1 68 -22t32 -54.5t3 -73.5l-55 -320h-10l20 119q-22 -53 -68 -90.5t-110 -37.5q-40 0 -70.5 17.5t-45.5 50t-8 77.5q7 46 37.5 78.5t73.5 49.5t89 17q45 0 74 -13t49 -30l15 82q4 38 -3 69
t-29 50.5t-63 20.5q-47 1 -86 -19.5t-70 -44.5zM45 135q-10 -63 24.5 -99t90.5 -36q44 1 81 21.5t63 54t38 72.5l14 80q-21 18 -51 30.5t-71 12.5q-42 0 -83 -16t-70 -46t-36 -74z" />
    <glyph glyph-name="adieresis.alt" horiz-adv-x="422" 
d="M352 561q0 4 4 7.5t9 3.5q9 0 9 -11q-1 -4 -5 -7.5t-8 -3.5q-10 0 -9 11zM197 561q0 4 4 7.5t8 3.5q10 0 9 -11q0 -4 -4 -7.5t-8 -3.5q-10 0 -9 11zM122 396l-6 8q31 24 71.5 45t91.5 21q44 -1 68 -22t32 -54.5t3 -73.5l-55 -320h-10l20 119q-22 -53 -68 -90.5
t-110 -37.5q-40 0 -70.5 17.5t-45.5 50t-8 77.5q7 46 37.5 78.5t73.5 49.5t89 17q45 0 74 -13t49 -30l15 82q4 38 -3 69t-29 50.5t-63 20.5q-47 1 -86 -19.5t-70 -44.5zM45 135q-10 -63 24.5 -99t90.5 -36q44 1 81 21.5t63 54t38 72.5l14 80q-21 18 -51 30.5t-71 12.5
q-42 0 -83 -16t-70 -46t-36 -74z" />
    <glyph glyph-name="aogonek.alt" horiz-adv-x="422" 
d="M331 -173l6 -8q-18 -15 -45 -27t-57 -11q-42 0 -67.5 21t-19.5 59q5 37 33.5 64t66.5 47t70 35l19 112q-22 -53 -68 -90.5t-110 -37.5q-40 0 -70.5 17.5t-45.5 50t-8 77.5q7 46 37.5 78.5t73.5 49.5t89 17q45 0 74 -13t49 -30l15 82q4 38 -3 69t-29 50.5t-63 20.5
q-47 1 -86 -19.5t-70 -44.5l-6 8q31 24 71.5 45t91.5 21q44 -1 68 -22t32 -54.5t3 -73.5l-55 -319l1 -1q-33 -15 -70.5 -35t-66 -46t-33.5 -59q-5 -34 19.5 -51.5t58.5 -17.5q28 -1 53 10.5t42 25.5zM45 135q-10 -63 24.5 -99t90.5 -36q44 1 81 21.5t63 54t38 72.5l14 80
q-21 18 -51 30.5t-71 12.5q-42 0 -83 -16t-70 -46t-36 -74z" />
    <glyph glyph-name="atilde.alt" horiz-adv-x="422" 
d="M167 582q7 21 23 39t47 18q23 0 39.5 -12t33 -23.5t39.5 -10.5q22 0 36 13.5t27 33.5l8 -3q-14 -23 -31.5 -37.5t-41.5 -14.5q-23 0 -40 11t-32.5 22.5t-35.5 12.5q-29 0 -43.5 -16t-20.5 -34zM122 396l-6 8q31 24 71.5 45t91.5 21q44 -1 68 -22t32 -54.5t3 -73.5
l-55 -320h-10l20 119q-22 -53 -68 -90.5t-110 -37.5q-40 0 -70.5 17.5t-45.5 50t-8 77.5q7 46 37.5 78.5t73.5 49.5t89 17q45 0 74 -13t49 -30l15 82q4 38 -3 69t-29 50.5t-63 20.5q-47 1 -86 -19.5t-70 -44.5zM45 135q-10 -63 24.5 -99t90.5 -36q44 1 81 21.5t63 54
t38 72.5l14 80q-21 18 -51 30.5t-71 12.5q-42 0 -83 -16t-70 -46t-36 -74z" />
    <glyph glyph-name="agrave.alt" horiz-adv-x="422" 
d="M188 707l9 8l139 -160l-6 -4zM122 396l-6 8q31 24 71.5 45t91.5 21q44 -1 68 -22t32 -54.5t3 -73.5l-55 -320h-10l20 119q-22 -53 -68 -90.5t-110 -37.5q-40 0 -70.5 17.5t-45.5 50t-8 77.5q7 46 37.5 78.5t73.5 49.5t89 17q45 0 74 -13t49 -30l15 82q4 38 -3 69
t-29 50.5t-63 20.5q-47 1 -86 -19.5t-70 -44.5zM45 135q-10 -63 24.5 -99t90.5 -36q44 1 81 21.5t63 54t38 72.5l14 80q-21 18 -51 30.5t-71 12.5q-42 0 -83 -16t-70 -46t-36 -74z" />
    <glyph glyph-name="aring.alt" horiz-adv-x="422" 
d="M207 631q4 27 21.5 49.5t43 36t52.5 13.5q39 -1 63.5 -30.5t18.5 -69.5q-4 -28 -22 -50.5t-43 -36t-51 -12.5q-40 0 -64.5 29.5t-18.5 70.5zM217 630q-5 -36 16.5 -62.5t57.5 -26.5q24 -1 46.5 11t38.5 33t20 45q5 36 -16 62.5t-57 27.5q-25 0 -47.5 -12t-38.5 -32.5
t-20 -45.5zM122 396l-6 8q31 24 71.5 45t91.5 21q44 -1 68 -22t32 -54.5t3 -73.5l-55 -320h-10l20 119q-22 -53 -68 -90.5t-110 -37.5q-40 0 -70.5 17.5t-45.5 50t-8 77.5q7 46 37.5 78.5t73.5 49.5t89 17q45 0 74 -13t49 -30l15 82q4 38 -3 69t-29 50.5t-63 20.5
q-47 1 -86 -19.5t-70 -44.5zM45 135q-10 -63 24.5 -99t90.5 -36q44 1 81 21.5t63 54t38 72.5l14 80q-21 18 -51 30.5t-71 12.5q-42 0 -83 -16t-70 -46t-36 -74z" />
    <glyph glyph-name="a.alt" horiz-adv-x="422" 
d="M122 396l-6 8q31 24 71.5 45t91.5 21q44 -1 68 -22t32 -54.5t3 -73.5l-55 -320h-10l20 119q-22 -53 -68 -90.5t-110 -37.5q-40 0 -70.5 17.5t-45.5 50t-8 77.5q7 46 37.5 78.5t73.5 49.5t89 17q45 0 74 -13t49 -30l15 82q4 38 -3 69t-29 50.5t-63 20.5q-47 1 -86 -19.5
t-70 -44.5zM45 135q-10 -63 24.5 -99t90.5 -36q44 1 81 21.5t63 54t38 72.5l14 80q-21 18 -51 30.5t-71 12.5q-42 0 -83 -16t-70 -46t-36 -74z" />
    <glyph glyph-name="abreve.alt" horiz-adv-x="422" 
d="M152 680h10q-4 -51 26 -90t95 -39q44 -1 78 17.5t56.5 48t32.5 62.5h10q-10 -36 -33.5 -67.5t-59.5 -51.5t-85 -19q-48 0 -78 19.5t-42.5 51.5t-9.5 68zM122 396l-6 8q31 24 71.5 45t91.5 21q44 -1 68 -22t32 -54.5t3 -73.5l-55 -320h-10l20 119q-22 -53 -68 -90.5
t-110 -37.5q-40 0 -70.5 17.5t-45.5 50t-8 77.5q7 46 37.5 78.5t73.5 49.5t89 17q45 0 74 -13t49 -30l15 82q4 38 -3 69t-29 50.5t-63 20.5q-47 1 -86 -19.5t-70 -44.5zM45 135q-10 -63 24.5 -99t90.5 -36q44 1 81 21.5t63 54t38 72.5l14 80q-21 18 -51 30.5t-71 12.5
q-42 0 -83 -16t-70 -46t-36 -74z" />
    <glyph glyph-name="acircumflex.alt" horiz-adv-x="422" 
d="M315 675l-172 -134l-6 7l179 139l132 -140l-7 -7zM122 396l-6 8q31 24 71.5 45t91.5 21q44 -1 68 -22t32 -54.5t3 -73.5l-55 -320h-10l20 119q-22 -53 -68 -90.5t-110 -37.5q-40 0 -70.5 17.5t-45.5 50t-8 77.5q7 46 37.5 78.5t73.5 49.5t89 17q45 0 74 -13t49 -30l15 82
q4 38 -3 69t-29 50.5t-63 20.5q-47 1 -86 -19.5t-70 -44.5zM45 135q-10 -63 24.5 -99t90.5 -36q44 1 81 21.5t63 54t38 72.5l14 80q-21 18 -51 30.5t-71 12.5q-42 0 -83 -16t-70 -46t-36 -74z" />
    </font>
</defs>
</svg>
